
<svg width="2039" height="1165" viewBox="0 0 2039 1165" fill="none" xmlns="http://www.w3.org/2000/svg">
<g clip-path="url(#clip0_17_1101)">
<path d="M1342.64 1166.52C895.149 1166.52 448.412 1166.52 1.59619 1166.52C1.59619 778.282 1.59619 390.048 1.59619 1.51697C341.212 1.51697 680.906 1.51697 1020.6 1.51697C1360.39 1.51697 1700.19 1.51697 2040.25 1.51697C2040.25 389.85 2040.25 778.184 2040.25 1166.52C1808.09 1166.52 1575.75 1166.52 1342.64 1166.52ZM524.063 1129.42C524.091 1130.17 524.12 1130.93 524.79 1132.43C539.229 1130.29 553.274 1127.48 560.888 1112C551.006 1112.69 543.046 1115.27 537.359 1123.74C535.361 1121.43 533.363 1119.11 530.041 1115.26C526.44 1115.08 520.295 1115.64 514.627 1114.25C507.703 1112.56 504.295 1117.91 498.133 1119.59C497.029 1119.07 495.412 1118.85 494.903 1117.98C490.683 1110.79 487.829 1109.46 479.712 1111.36C486.71 1119.73 494.187 1127.36 506.165 1130.46C509.956 1132.5 513.376 1133.58 514.676 1126.24C517.919 1126.93 521.163 1127.63 524.063 1129.42ZM1559.16 1089.45C1556.23 1084.55 1553.31 1079.64 1549.3 1072.91C1547.59 1077.56 1546.51 1080.49 1545.2 1084.02C1549.68 1084.7 1552.73 1085.16 1556.51 1085.74C1552.15 1089.5 1548.65 1092.59 1545.04 1095.56C1544.59 1095.93 1543.19 1095.96 1542.9 1095.6C1537.34 1088.67 1530.8 1095.25 1524.65 1094.51C1525.64 1095.19 1526.63 1095.87 1528.25 1097.6C1535.71 1100 1543.18 1102.4 1550.64 1104.81C1550.55 1103.65 1550.47 1102.5 1550.39 1101.34C1552.95 1099.86 1556.72 1096.48 1557.88 1097.21C1564.73 1101.55 1568.59 1097.21 1571.91 1092.84C1575.77 1087.76 1578.7 1081.97 1581.82 1076.86C1581.32 1076.11 1581.61 1076.39 1581.56 1076.5C1581.28 1077.06 1581.05 1077.82 1580.57 1078.06C1574.63 1081.09 1566.7 1081.46 1564.93 1090.12C1564.83 1090.61 1561.48 1090.44 1559.16 1089.45ZM1422.3 1134.35C1420.6 1134.42 1417.77 1135.15 1417.37 1134.47C1413 1126.94 1404.95 1130.42 1399.02 1127.67C1404.55 1135.52 1412.1 1139.79 1422.24 1142.07C1425.25 1142.07 1428.26 1142.07 1431.28 1142.07C1435.27 1134.19 1436.95 1133.95 1442.42 1140.55C1457.57 1137.59 1468.26 1128.47 1469.72 1118.44C1459.17 1114.94 1457.85 1135.41 1443.84 1127.55C1439.93 1125.35 1433.03 1128.1 1427.62 1129.17C1425.95 1129.5 1424.65 1131.76 1422.3 1134.35ZM322.201 1039.25C322.736 1039.8 323.271 1040.36 324.27 1041.87C328.637 1045.35 333.003 1048.83 336.821 1051.88C340.121 1049.61 342.433 1048.01 345.974 1047.04C350.613 1057.02 359.51 1057.95 368.282 1055.84C376.647 1053.82 384.484 1049.61 392.552 1046.36C386.2 1044.01 380.78 1043.44 375.346 1043.2C374.133 1043.15 372.107 1043.99 371.749 1044.91C369.062 1051.87 364.694 1048.09 360.346 1047.17C360.548 1044.8 360.727 1042.71 360.913 1040.53C354.814 1038.27 348.854 1036.81 343.685 1033.94C338.224 1030.9 334.894 1031.85 330.965 1037.34C329.367 1036.91 327.769 1036.48 325.776 1035.45C325.458 1035.08 325.075 1034.81 324.52 1033.52C325.016 1025.61 320.37 1019.94 309.676 1015.85C311.399 1024.96 315.261 1032.47 322.201 1039.25ZM279.227 1030.17C279.227 1030.17 279.152 1029.99 279.216 1028.67C275.088 1005.36 282.306 985.782 299.551 968.578C312.839 958.515 326.559 955.804 341.197 965.893C342.48 966.777 344.449 967.001 346.089 966.972C352.105 966.866 358.118 966.522 364.699 965.979C365.06 965.753 365.373 965.474 366.006 964.223C366.134 963.919 366.263 963.616 367.173 962.616C367.669 960.767 368.692 958.881 368.568 957.075C368.092 950.171 371.736 947.824 378.676 948.775C379.058 953.934 379.371 959.099 379.851 964.248C380.12 967.14 379.61 971.323 381.27 972.651C387.501 977.636 391.961 985.987 401.989 984.799C403.798 984.584 405.864 985.802 407.695 986.62C423.981 993.896 433.028 1014.91 428.533 1035.8C425.334 1050.66 418.815 1063.78 404.576 1074.02C416.376 1078.05 426.514 1081.62 436.733 1084.95C446.662 1088.19 446.699 1088.08 450.013 1078.06C455.575 1061.26 474.17 1045.64 493.356 1050.84C497.664 1052.01 502.791 1050.21 507.535 1049.72C514.124 1049.04 515.208 1044.85 513.788 1039.4C513.222 1037.23 512.063 1035.21 511.315 1031.98C513.871 1030.27 516.426 1028.55 519.79 1027.36C521.092 1029.13 522.395 1030.91 523.797 1033.81C527.253 1042.43 530.193 1051.54 542.401 1053.52C546.579 1054.14 550.758 1054.76 556.046 1055.56C557.793 1055.2 559.54 1054.85 562.37 1054.67C574.616 1057.24 581.901 1066.11 588.994 1076.62C590.247 1086.58 592.326 1096.53 592.427 1106.5C592.484 1112.04 593.71 1113.36 598.786 1113.79C626.964 1116.2 655.083 1119.36 683.286 1121.38C727.879 1124.57 772.496 1127.67 817.154 1129.65C858.804 1131.5 900.516 1132.35 942.209 1132.76C1007.67 1133.4 1073.13 1133.42 1138.59 1133.51C1212.93 1133.61 1287.1 1129.7 1361.21 1124.04C1368.41 1123.49 1371.74 1121.68 1371.7 1113.33C1371.6 1092.48 1384.39 1079.69 1405.12 1078.26C1414.71 1077.6 1421.68 1071.97 1424.38 1062.67C1424.38 1062.67 1424.64 1062.12 1424.93 1061.27C1425.37 1060.48 1425.82 1059.7 1427.08 1058.54C1427.72 1057.58 1428.37 1056.62 1429.75 1054.88C1432.63 1053.59 1435.52 1052.3 1438.48 1052.09C1439.1 1053.33 1439.71 1054.58 1439.66 1056.74C1438.15 1059 1435.9 1061.12 1435.41 1063.59C1435.07 1065.28 1436.97 1068.99 1438.23 1069.16C1444.81 1070.07 1451.49 1070.15 1458.14 1070.49C1461.86 1070.67 1465.73 1070.2 1469.28 1071.05C1483.12 1074.39 1489.85 1084.57 1493.78 1097.34C1494.56 1099.87 1496.07 1102.19 1497.25 1104.6C1498.08 1104.21 1498.91 1103.82 1499.75 1103.43C1499.29 1101.34 1498.67 1099.27 1498.4 1097.16C1497.48 1089.71 1495.83 1082.23 1496.03 1074.8C1496.35 1062.95 1506.06 1052.09 1516.81 1049.91C1531.33 1046.96 1533.35 1044.58 1534.25 1029.25C1534.62 1027.99 1534.99 1026.74 1536.17 1025.16C1536.73 1025.01 1537.29 1024.86 1538.75 1025.26C1540.02 1026.78 1541.29 1028.3 1542.72 1031.02C1542.77 1035.59 1545.32 1038.19 1549.63 1038.41C1554.78 1038.67 1560.26 1039.29 1565.08 1037.92C1578.05 1034.23 1587.99 1036.48 1595.51 1047.79C1599.73 1054.12 1602.2 1061.69 1604.96 1068.89C1606.2 1072.12 1607.05 1074.91 1611.09 1072.98C1620.11 1068.66 1629.03 1064.13 1638.65 1059.36C1636.41 1055.2 1634.49 1051.72 1632.65 1048.2C1624.88 1033.31 1621.3 1017.83 1627.98 1001.66C1632.81 989.989 1641.34 983.224 1654.51 980.858C1660.54 979.775 1665.72 973.439 1670.95 969.082C1671.62 968.524 1670.71 965.222 1669.72 963.73C1668.36 961.681 1666.22 960.145 1664.33 957.281C1663.81 954.728 1663.29 952.176 1663.22 949.362C1663.22 949.362 1663.72 949.219 1664.8 949.329C1666.13 948.95 1667.46 948.571 1669.77 948.327C1671.45 949.369 1673.12 950.41 1675.12 952.366C1677.93 954.999 1680.73 957.631 1684.14 960.975C1684.57 961.432 1684.99 961.89 1685.81 963.026C1687.2 963.163 1688.6 963.3 1691.3 963.386C1693.45 963.653 1695.59 963.921 1698.21 964.852C1700.04 964.84 1701.86 964.828 1704.73 964.499C1709.87 961.871 1715 959.242 1721.52 956.824C1739.27 955.795 1750.49 966.173 1759.89 979.968C1762.85 977.899 1765.37 976.616 1767.29 974.725C1791.19 951.203 1815.57 928.143 1838.58 903.782C1850.81 890.838 1862.51 876.657 1871.09 861.171C1887.92 830.761 1902.87 799.266 1917.66 767.779C1924.81 752.546 1929.84 736.313 1936.55 719.716C1937.77 716.157 1939.47 712.684 1940.12 709.024C1944.62 683.697 1948.67 658.289 1953.31 632.989C1958.75 603.365 1956 574.45 1944.99 546.673C1935.08 521.685 1920.58 499.207 1903.85 478.104C1889.06 459.446 1873.13 443.471 1848.79 436.871C1824.07 430.17 1804.16 415.014 1788.13 394.851C1782.97 388.351 1776.96 382.516 1770.35 375.297C1767.4 384.91 1765.42 392.454 1762.78 399.757C1755.16 420.777 1732.63 434.07 1710.96 430.755C1706.39 430.055 1704.52 427.711 1706.11 423.456C1715.07 399.496 1729.34 381.011 1756.1 375.592C1758.93 375.02 1761.73 374.308 1766.72 373.16C1756.4 366.853 1747.81 361.797 1739.41 356.423C1710.9 338.167 1689.37 312.671 1668.06 287.004C1664.58 282.803 1662.14 279.365 1656.05 283.922C1643.36 293.404 1628.39 298.176 1612.91 298.223C1604.01 298.25 1594.9 294.139 1586.31 290.809C1582.65 289.392 1578.89 285.553 1583.32 280.541C1599.4 262.342 1632.52 252.011 1652.67 269.894C1653.8 270.9 1655.42 271.363 1657.15 272.256C1654.19 259.007 1651.68 246.49 1648.38 234.182C1647.8 232.03 1644.18 229.901 1641.58 229.21C1624.25 224.608 1606.96 219.607 1589.35 216.388C1580.25 214.725 1571.47 208.411 1561.45 212.828C1560.59 213.204 1558.81 211.785 1557.6 210.986C1552.61 207.687 1547.76 204.174 1542.7 200.98C1527.79 191.563 1512.86 182.19 1497.85 172.937C1487.15 166.336 1476.62 159.327 1465.42 153.681C1456.69 149.28 1446.99 146.851 1437.84 143.241C1433.56 141.554 1430.42 141.864 1427.03 145.344C1413.63 159.09 1396.99 167.231 1378.85 172.857C1373.7 174.454 1371.41 173.278 1370.28 168.086C1366.6 151.201 1368.93 135.035 1378.25 120.768C1390.55 101.944 1385.98 104.321 1376.22 90.1931C1372.54 84.8627 1368.81 84.1269 1363.54 87.4018C1344.33 99.3398 1323.79 108.166 1300.45 113.534C1293.71 114.183 1286.98 115.242 1280.23 115.348C1275.14 115.429 1271.97 117.013 1269.42 121.602C1262.94 133.256 1253.19 141.653 1241.3 148.427C1239.07 144.458 1237.51 140.706 1235.05 137.701C1233.72 136.083 1230.83 135.745 1227.55 134.967C1215.15 139.052 1202.94 143.857 1190.3 146.984C1181.01 149.285 1178.02 145.884 1180.93 136.597C1183.53 128.287 1187.93 120.507 1191.83 112.645C1195.51 105.257 1195.04 102.306 1187.85 99.021C1160.26 86.4228 1138.81 66.4354 1120.21 43.072C1116.68 38.6402 1113.3 36.8688 1107.94 39.2258C1082.43 50.4475 1055.93 56.9183 1027.83 56.1575C1019.12 55.9217 1017.65 58.4042 1019.46 66.8377C1021.2 74.951 1022.81 83.109 1024 91.317C1024.92 97.6369 1021.28 99.8282 1015.71 97.9002C1002.24 93.2416 988.975 88.3171 984.112 72.5684C982.17 66.2821 976.856 64.8516 972.409 68.8229C955.68 83.7626 939.051 98.8148 921.319 113.965C919.513 114.845 917.597 115.553 915.919 116.632C877.754 141.172 835.02 150.732 789.219 154.79C768.745 152.178 747.925 151.114 727.871 146.625C688.318 137.772 652.943 119.735 622.775 92.3008C618.683 88.5796 616.029 88.0846 611.185 91.3556C591.761 104.472 571.32 115.284 546.948 115.523C544.942 115.543 542.948 116.755 539.409 117.919C543.873 121.967 547.141 124.905 550.381 127.873C552.996 130.269 554.063 132.764 550.674 135.405C543.436 141.045 536.151 146.376 526.151 145.687C523.262 145.488 520.284 146.575 516.601 147.773C516.347 150.379 515.298 153.227 516.002 155.541C517.531 160.563 519.81 165.379 522.046 170.156C526.208 179.047 525.035 181.099 515.128 181.537C513.885 181.592 512.629 181.34 511.378 181.26C498.74 180.448 488.644 173.914 478.553 167.098C475.799 165.239 472.049 164.855 467.731 164.05C440.697 179.985 413.107 195.141 390.316 219.701C393.629 218.99 395.649 218.393 397.712 218.146C403.421 217.46 409.147 216.439 414.869 216.415C431.277 216.347 444.593 225.169 458.491 232.243C463.596 234.842 463.166 237.935 459.8 241.841C449.183 254.163 427.092 258.558 410.202 250.271C401.038 245.775 392.641 239.508 384.459 233.302C379.985 229.91 377.217 229.897 372.635 233.202C363.682 239.66 354.508 246.175 344.56 250.811C325.045 259.908 303.865 260.156 282.833 259.178C274.633 258.797 270.39 262.063 267.31 269.278C258.901 288.977 250.02 308.475 241.285 328.035C229.974 353.366 216.03 376.862 195.212 395.796C186.807 403.441 178.81 411.575 171.05 419.881C145.726 446.99 121.036 474.708 95.2285 501.345C79.3539 517.73 71.2858 536.508 71.287 559.058C71.291 631.848 71.1235 704.639 71.4675 777.427C71.5256 789.719 73.1987 802.094 75.1469 814.268C80.691 848.912 95.7089 879.466 116.883 907.136C122.454 914.416 128.539 921.301 134.971 929.072C138.234 924.482 140.509 921.224 142.843 918.009C154.544 901.891 170.618 893.075 192.798 904.181C198.907 907.24 206.524 907.26 213.069 900.528C215.389 898.712 217.708 896.895 221.013 894.83C223.274 893.461 225.534 892.092 228.953 890.641C231.777 892.195 234.602 893.75 237.426 895.304C235.457 897.436 233.173 899.36 231.597 901.751C229.485 904.955 225.86 911.072 226.437 911.538C232.587 916.501 238.923 922.277 246.225 924.527C256.936 927.827 264.13 934.282 268.092 943.737C278.258 967.999 265.428 998.194 241.378 1008.53C240.76 1008.8 240.302 1009.43 237.986 1011.45C252.371 1017.93 265.759 1023.96 279.227 1030.17ZM181.591 249.313C174.329 284.858 178.836 320.854 175.293 357.838C178.974 356.601 180.67 356.517 181.634 355.634C194.424 343.907 209.305 333.672 219.367 319.92C240.083 291.605 255.765 260.172 267.06 226.74C269.046 220.86 267.851 218.263 261.253 218.329C242.572 218.516 223.888 218.483 205.206 218.385C199.063 218.353 194.05 220.638 191.363 225.966C187.756 233.118 185.006 240.703 181.591 249.313ZM114.564 300.391C98.6084 315.746 92.77 335.578 89.3582 356.595C91.6432 355.467 93.0458 353.86 94.0672 352.04C104.296 333.809 119.448 322.339 140.023 318.056C150.724 315.828 153.003 317.824 151.371 328.613C147.2 356.193 123.123 374.227 95.6735 369.567C88.1936 368.298 86.3095 370.343 86.2561 377.38C86.076 401.113 85.3651 424.842 85.0808 448.575C84.9925 455.94 87.5432 457.55 93.7558 454.107C112.06 443.963 126.61 429.602 136.839 411.551C158.416 373.471 161.341 331.49 160.548 288.965C160.4 281.038 159.193 273.131 158.33 263.617C141.172 273.748 129.256 287.928 114.564 300.391ZM133.51 247.993C166.282 224.265 199.054 200.537 231.91 176.748C218.359 160.961 211.776 160.411 195.363 168.733C184.76 174.108 173.093 178.155 161.441 180.465C150.699 182.595 139.339 181.936 128.254 181.873C122.103 181.839 118.219 183.526 116.417 189.794C111.683 206.262 101.872 219.519 89.6594 231.241C87.7455 233.078 85.4114 235.715 85.3482 238.039C84.9536 252.562 85.149 267.1 85.149 283.392C101.935 271.145 117.309 259.927 133.51 247.993ZM1800.05 370.086C1805.22 375.27 1810.21 380.646 1815.59 385.599C1825.98 395.165 1837.85 402.735 1851.95 404.525C1865.4 406.232 1879.11 405.838 1892.7 406.535C1899.03 406.86 1900.89 403.84 1901.09 397.877C1902.12 365.904 1887.39 352.305 1863.68 338.524C1861.95 337.521 1857.79 338.668 1855.94 340.223C1839.93 353.734 1822.34 356.794 1803.14 348.462C1796.47 345.562 1790.32 341.436 1783.61 337.69C1784.25 347.798 1785.58 350.42 1800.05 370.086ZM1841.82 288.99C1859.34 298.396 1876.86 307.802 1895.66 317.894C1895.99 313.131 1896.31 310.665 1896.32 308.198C1896.37 293.801 1896.4 279.404 1896.34 265.007C1896.3 256.034 1895.21 255.674 1886.48 258.352C1877.34 261.154 1868 263.368 1858.63 265.311C1853.47 266.383 1850.09 264.602 1851.87 258.247C1852.4 256.344 1852.46 254.233 1852.35 252.238C1851.99 245.759 1848.41 243.294 1842.18 244.975C1829.28 248.452 1816.35 251.858 1803.47 255.392C1801.97 255.801 1800.65 256.83 1797.21 258.649C1812.71 269.16 1826.82 278.732 1841.82 288.99ZM1743.12 328.068C1740.26 320.946 1737.53 313.77 1734.52 306.711C1724.92 284.186 1712.5 263.275 1693.52 247.615C1686.54 241.858 1676.24 240.123 1667.45 236.553C1666.91 237.444 1666.38 238.335 1665.84 239.227C1675.44 258.772 1684.58 278.559 1702.23 292.904C1712.4 301.164 1722.95 309.324 1728.39 321.779C1731.27 328.387 1735.69 330.285 1743.12 328.068ZM1787.77 319.808C1810.99 309.646 1831.84 319.346 1853.42 327.524C1851.84 323.658 1849.93 320.262 1847.39 317.441C1830.38 298.569 1806.89 290.559 1784.65 280.539C1778.59 277.805 1776.13 281.312 1776.67 287.141C1777.56 296.922 1778.65 306.686 1779.76 316.445C1780.25 320.808 1782.72 321.997 1787.77 319.808ZM293.856 233.432C297.595 232.95 301.424 232.829 305.057 231.922C318.903 228.463 332.971 225.557 346.38 220.817C353.955 218.139 360.348 212.222 364.873 204.523C346.889 203.419 329.369 203.361 311.851 203.505C309.978 203.52 307.402 204.153 306.365 205.46C300.619 212.712 295.096 220.156 289.828 227.762C287.892 230.558 288.509 233.145 293.856 233.432ZM1731.94 274.436C1741.22 290.825 1750.17 307.442 1763.59 321.535C1763.53 303.579 1762.3 286.096 1760.23 268.712C1759.81 265.17 1756.77 259.712 1754.03 259.077C1744.44 256.855 1734.46 256.358 1724.62 255.205C1724.09 255.846 1723.56 256.487 1723.03 257.129C1725.81 262.578 1728.59 268.027 1731.94 274.436ZM175.748 968.763C185.58 975.81 195.413 982.856 205.07 989.777C213.516 982.309 226.721 989.626 232.912 978.736C227.16 978.104 221.487 977.432 215.802 976.885C214.12 976.724 211.79 976.2 210.801 977.053C203.411 983.426 203.44 977.585 202.961 972.984C198.55 971.357 194.35 969.807 189.97 968.192C183.785 973.129 182.023 972.565 179.742 964.683C179.493 963.822 179.015 962.826 178.328 962.325C173.175 958.566 167.943 954.916 161.005 950.007C162.749 954.15 163.244 957.022 164.89 958.868C167.891 962.237 171.574 964.999 175.748 968.763ZM1979.08 1117.94C1981.95 1121.51 1984.82 1125.08 1987.69 1128.65C1986.48 1127.45 1985.26 1126.24 1984.05 1125.03C1989.19 1120.05 1994.33 1115.07 1999.47 1110.09C1999.37 1112.31 1999.27 1114.53 1999.16 1116.75C1994.1 1111.65 1989.04 1106.56 1983.97 1101.47C1985.85 1101.13 1987.73 1100.8 1989.61 1100.46C1984.45 1105.46 1979.29 1110.46 1974.12 1115.45C1973.4 1114.88 1972.68 1114.31 1971.96 1113.74C1974.06 1114.91 1976.15 1116.08 1979.08 1117.94ZM258.621 203.334C262.908 203.303 267.224 203.572 271.474 203.16C276.11 202.71 278.832 197.173 275.544 195.439C270.678 192.873 264.771 190.483 259.529 190.887C253.233 191.372 247.109 194.719 241.034 197.137C238.763 198.041 236.841 199.82 234.76 201.199C235.003 201.911 235.246 202.623 235.489 203.335C242.702 203.335 249.914 203.335 258.621 203.334ZM324.469 1005.17C329.64 1010.59 335.115 1011.24 344.759 1007.41C338.249 999.482 331.801 991.627 325.065 983.419C319.565 990.459 320.398 997.251 324.469 1005.17ZM370.609 1018.39C375.076 1024.33 380.366 1029.32 388.352 1026.12C395.854 1023.11 398.077 1016.24 399.185 1006.69C388.741 1010.59 379.705 1013.95 370.609 1018.39ZM498.959 1082.54C494.221 1079.32 489.484 1076.1 484.734 1072.87C482.142 1081.2 483.693 1089.6 488.406 1092.91C493.188 1096.27 501.929 1095.32 508.461 1090.29C505.495 1087.84 502.666 1085.51 498.959 1082.54ZM539.698 1088.2C537.237 1089.56 534.777 1090.92 531.949 1092.48C540.94 1098.68 549.093 1099.59 554.188 1094.9C559.267 1090.23 559.679 1084.29 558.096 1076.8C551.643 1080.81 546.151 1084.23 539.698 1088.2ZM175.648 939.888C182.896 944.074 190.262 942.06 190.655 935.264C190.839 932.097 189.032 927.85 186.651 925.839C185.067 924.501 180.309 925.348 177.969 926.812C173.531 929.588 171.969 934.019 175.648 939.888ZM1710.82 987.699C1710.51 990.925 1708.94 994.783 1710.17 997.246C1712.84 1002.61 1718.08 1002.95 1723.11 1000.3C1727.88 997.789 1728.25 993.521 1725.55 989.443C1722 984.086 1717.27 982.282 1710.82 987.699ZM1422.38 1108.21C1414.97 1104.9 1407.55 1101.59 1399.69 1098.08C1398.16 1105.21 1399.18 1110.95 1404.99 1113.86C1411.57 1117.15 1417.57 1114.69 1422.38 1108.21ZM1661.32 1005.23C1657.94 1009.88 1656.85 1015.08 1662.2 1018.32C1664.59 1019.76 1670.66 1019.07 1672.12 1017.13C1674.2 1014.37 1675.16 1008.83 1673.75 1005.81C1671.46 1000.95 1666.43 1001.43 1661.32 1005.23ZM1462.02 1088.54C1455.49 1094.47 1448.96 1100.41 1441.35 1107.32C1449.62 1109.56 1455.94 1109.76 1460.85 1105.18C1465.59 1100.77 1465 1094.79 1462.02 1088.54ZM238.099 947.609C234.198 943.412 229.311 941.46 225.189 946.055C223.137 948.342 222.224 953.981 223.662 956.402C225.062 958.758 230.523 960.494 233.483 959.729C238.377 958.462 241.098 954.249 238.099 947.609ZM1586.86 176.901C1586.47 180.27 1584.77 185.973 1585.92 186.622C1592.35 190.25 1599.47 192.658 1606.36 195.482C1606.73 194.743 1607.11 194.005 1607.48 193.267C1603.68 188.3 1600.22 182.987 1595.89 178.537C1594.16 176.764 1590.48 176.899 1586.86 176.901ZM1547.27 153.434C1541.64 154.277 1536 155.121 1530.37 155.964C1533.46 160.569 1536.35 163.264 1539.61 165.4C1542.41 167.239 1545.53 171.766 1549.02 166.879C1551.98 162.72 1555.53 157.763 1547.27 153.434ZM1522.95 1068.31C1520.33 1072.51 1520.25 1076.82 1524.79 1079.19C1526.69 1080.19 1531.5 1079.23 1532.45 1077.64C1533.88 1075.26 1534.24 1070.93 1532.97 1068.52C1531.06 1064.89 1527.18 1063.99 1522.95 1068.31ZM1572.12 1057.8C1569.08 1057.65 1564.6 1056.21 1563.32 1057.64C1561.49 1059.69 1561.07 1064.08 1561.88 1066.96C1562.28 1068.38 1567.3 1069.96 1569.32 1069.17C1573.9 1067.38 1575.12 1063.29 1572.12 1057.8ZM522.834 1097.98C521.853 1096.55 520.873 1095.12 519.222 1092.71C516.359 1097.4 513.873 1101.47 510.688 1106.68C516.82 1106.68 521.272 1106.68 526.915 1106.68C525.4 1103.3 524.411 1101.09 522.834 1097.98ZM350.902 1017.93C348.494 1020.08 346.085 1022.23 342.523 1025.41C348.354 1026.78 352.906 1027.85 358.208 1029.1C357.203 1023.37 356.481 1019.25 355.61 1014.28C353.913 1015.59 352.788 1016.46 350.902 1017.93ZM1699.12 1023.3C1701.07 1022.34 1703.02 1021.38 1705.76 1020.04C1701.82 1016.91 1698.48 1014.26 1693.89 1010.63C1692.87 1016.44 1692.13 1020.66 1691.24 1025.74C1694.32 1024.83 1696.2 1024.29 1699.12 1023.3ZM205.355 959.939C204.94 957.382 204.525 954.826 203.863 950.749C199.301 954.749 196.095 957.559 192.167 961.003C197.472 963.035 201.397 964.539 205.931 966.276C205.748 964.013 205.629 962.545 205.355 959.939ZM1674.83 1039.23C1675.24 1038.96 1675.66 1038.7 1676.05 1038.39C1676.09 1038.35 1675.92 1037.87 1675.83 1037.86C1670.89 1037.36 1665.95 1036.89 1659.82 1036.31C1664.71 1043.39 1669.27 1042.31 1674.83 1039.23ZM1430.53 1111.96C1430.12 1115.31 1429.72 1118.67 1429.24 1122.61C1433.69 1121.61 1437.24 1120.81 1441.4 1119.87C1438.62 1116.04 1436.56 1112.96 1434.17 1110.17C1433.81 1109.74 1431.91 1110.64 1430.53 1111.96Z" fill="#262220"/>
<path d="M1533.62 1030.02C1533.35 1044.58 1531.33 1046.96 1516.81 1049.91C1506.06 1052.09 1496.35 1062.95 1496.03 1074.8C1495.83 1082.23 1497.48 1089.71 1498.4 1097.16C1498.67 1099.27 1499.29 1101.34 1499.75 1103.43C1498.91 1103.82 1498.08 1104.21 1497.25 1104.6C1496.07 1102.19 1494.56 1099.87 1493.78 1097.34C1489.85 1084.57 1483.12 1074.39 1469.28 1071.05C1465.73 1070.2 1461.86 1070.67 1458.14 1070.49C1451.49 1070.15 1444.81 1070.07 1438.23 1069.16C1436.97 1068.99 1435.07 1065.28 1435.41 1063.59C1435.9 1061.12 1438.15 1059 1440.21 1055.89C1439.97 1053.71 1439.19 1052.36 1438.41 1051.02C1435.52 1052.3 1432.63 1053.59 1428.97 1055.45C1427.54 1056.98 1426.9 1057.95 1426.26 1058.91C1425.82 1059.7 1425.37 1060.48 1424.39 1061.32C1420.94 1058.53 1417.15 1052.82 1415.27 1053.4C1409.02 1055.3 1404.14 1052.58 1398.74 1051.15C1398.71 1051.06 1398.79 1051.22 1399.05 1051.67C1401.55 1054.42 1404.5 1056.36 1405.9 1059.09C1412.06 1071.09 1414.03 1071.62 1424.18 1062.86C1421.68 1071.97 1414.71 1077.6 1405.12 1078.26C1384.39 1079.69 1371.6 1092.48 1371.7 1113.33C1371.74 1121.68 1368.41 1123.49 1361.21 1124.04C1287.1 1129.7 1212.93 1133.61 1138.59 1133.51C1073.13 1133.42 1007.67 1133.4 942.209 1132.76C900.516 1132.35 858.804 1131.5 817.154 1129.65C772.496 1127.67 727.879 1124.57 683.286 1121.38C655.083 1119.36 626.964 1116.2 598.787 1113.79C593.71 1113.36 592.484 1112.04 592.427 1106.5C592.326 1096.53 590.247 1086.58 589.225 1075.57C590.177 1070.34 591.281 1066.18 591.556 1061.97C592.822 1042.59 593.718 1023.18 595.009 1003.81C596.804 976.887 598.854 949.985 600.754 923.072C602.389 899.929 604.002 876.784 605.562 853.636C607.545 824.203 609.496 794.769 611.398 765.331C612.568 747.209 613.567 729.076 614.736 710.954C616.618 681.764 618.636 652.582 620.481 623.39C621.707 604.007 622.517 584.597 623.899 565.226C625.586 541.585 627.679 517.974 629.592 494.35C630.996 477.011 632.666 459.687 633.678 442.325C634.178 433.746 633.461 425.096 633.482 415.965C635.377 410.975 638.028 406.616 638.608 401.997C640.076 390.302 644.913 381.738 655.54 375.622C662.447 371.647 667.01 362.158 676.86 371.051C681.332 361.146 683.388 352.115 681.172 342.739C678.68 332.198 670.067 329.9 662.75 337.741C658.994 341.767 656.362 346.827 652.737 350.997C650.565 353.495 647.457 355.178 643.554 358.154C642.154 349.244 641.105 342.569 640.089 335.166C641.702 307.503 643.085 280.554 644.942 253.638C646 238.315 647.834 223.045 649.743 208.036C651.43 209.551 652.852 210.656 653.931 212.031C666.662 228.265 683.012 237.068 703.674 240.414C753.893 248.545 800.034 200.611 790.64 154.924C835.02 150.732 877.755 141.172 915.919 116.632C917.597 115.553 919.513 114.845 921.961 114.419C928.276 123.49 932.835 133.154 939.801 140.554C989.731 193.597 1050.62 214.184 1122.5 200.079C1165.91 191.561 1200.93 169.055 1228.65 134.83C1230.83 135.745 1233.72 136.083 1235.05 137.701C1237.51 140.706 1239.07 144.458 1241.3 148.427C1253.19 141.653 1262.94 133.256 1269.42 121.602C1271.97 117.013 1275.14 115.429 1280.23 115.348C1286.98 115.242 1293.71 114.183 1301.2 114.097C1312.79 148.909 1333.94 176.011 1362.2 197.147C1402.11 226.987 1447.16 240.809 1497.31 235.544C1501.95 235.055 1504.77 236.201 1507.05 240.505C1521.95 268.703 1543.88 290.178 1571.06 306.544C1575.71 309.346 1580.27 312.306 1585.34 315.488C1581.79 319.926 1578.92 323.725 1575.84 327.345C1546.43 361.892 1532.39 402.145 1532.71 447.191C1532.87 470.222 1536.85 492.911 1544.22 515.269C1537.8 524.144 1540.46 532.808 1543.43 541.385C1546.91 551.47 1547.37 551.607 1557.04 547.716C1559.29 548.277 1561.02 548.692 1562.69 549.103C1562.63 549.1 1562.64 548.983 1562.78 549.498C1572.99 561.346 1583.06 572.679 1593.48 584.292C1594.05 585.411 1594.27 586.25 1594.69 587.494C1595.31 588.714 1595.72 589.53 1596.56 590.597C1599 593.419 1600.86 596.134 1603.05 598.538C1618.51 615.444 1634.62 630.967 1661.11 624.743C1692.05 636.756 1723.56 638.414 1755.25 632.982C1771.26 630.238 1786.74 624.422 1802.43 620.71C1802.22 624.696 1802.39 628.03 1801.81 631.228C1797.8 653.294 1794.16 675.443 1789.44 697.359C1774.36 767.393 1757.25 836.921 1735.92 905.356C1730.6 922.424 1725.39 939.527 1720.13 956.613C1715 959.242 1709.87 961.871 1703.86 964.388C1701.23 964.247 1699.48 964.218 1697.73 964.188C1695.59 963.921 1693.45 963.653 1690.24 963.149C1687.93 962.724 1686.67 962.536 1685.41 962.347C1684.99 961.89 1684.57 961.432 1684.34 960.233C1689.71 957.773 1697.08 960.087 1699.32 952.915C1701.6 945.625 1702.77 937.989 1704.36 930.49C1704.39 930.378 1703.57 930.089 1704.03 930.313C1700.63 932.952 1697.82 936.869 1694.51 937.36C1685.26 938.731 1680.66 943.488 1680.38 952.831C1678.15 952.279 1676.47 951.865 1674.8 951.451C1673.12 950.41 1671.45 949.369 1668.92 948.044C1666.62 948.247 1665.17 948.733 1663.72 949.219C1663.72 949.219 1663.22 949.362 1662.55 949.667C1656.36 954.703 1659.41 956.84 1664.42 958.39C1666.22 960.145 1668.36 961.681 1669.72 963.73C1670.71 965.222 1671.62 968.524 1670.95 969.082C1665.72 973.439 1660.54 979.775 1654.51 980.858C1641.34 983.224 1632.81 989.989 1627.98 1001.66C1621.3 1017.83 1624.88 1033.31 1632.65 1048.2C1634.49 1051.72 1636.41 1055.2 1638.65 1059.36C1629.03 1064.13 1620.11 1068.66 1611.09 1072.98C1607.05 1074.91 1606.2 1072.12 1604.96 1068.89C1602.2 1061.69 1599.73 1054.12 1595.51 1047.79C1587.99 1036.48 1578.06 1034.23 1565.08 1037.92C1560.26 1039.29 1554.78 1038.67 1549.63 1038.41C1545.33 1038.19 1542.77 1035.59 1543.16 1030.63C1545.54 1031.4 1547.34 1033.02 1549.44 1033.62C1554.1 1034.93 1558.4 1033.88 1559.36 1028.55C1560.3 1023.37 1560.12 1017.98 1560.46 1012.26C1556.92 1016.98 1544.55 1023.67 1537.85 1024.72C1537.29 1024.86 1536.73 1025.01 1535.4 1025.51C1534.3 1027.25 1533.96 1028.64 1533.62 1030.02ZM1631.39 867.946C1642.23 872.877 1652.31 871.423 1660.88 863.343C1671.19 853.634 1681.96 845.588 1698.7 849.052C1692.78 841.748 1686.89 838.851 1679.65 838.737C1674.34 838.653 1669.03 838.737 1663.72 838.674C1645.33 838.455 1631.6 828.911 1627.41 813.479C1622.87 796.793 1631.36 773.845 1644.91 765.552C1646.37 764.658 1647.99 762.477 1647.94 760.936C1647.75 753.906 1647.75 746.709 1646.12 739.952C1645.32 736.681 1641.38 732.445 1638.32 731.941C1635.28 731.441 1630.78 734.374 1628.34 737.083C1625.23 740.557 1623.8 745.492 1621.14 749.458C1619.02 752.628 1616.14 755.292 1613.59 758.18C1611.2 755.086 1608.32 752.252 1606.53 748.842C1603.14 742.372 1600.6 735.462 1597.31 728.933C1591.5 717.404 1581.72 711.734 1569.03 712.086C1555.39 712.465 1544.85 718.637 1538.5 731.123C1532.23 743.446 1530.5 756.507 1531.72 770.159C1531.95 772.65 1530.93 775.252 1530.48 777.803C1527.74 776.944 1524.51 776.729 1522.36 775.094C1517.56 771.436 1513.66 766.508 1508.66 763.204C1505.66 761.224 1500.59 759.717 1497.73 760.957C1494.87 762.196 1491.69 767.341 1492.03 770.39C1492.96 778.536 1495.47 786.546 1497.95 794.424C1498.34 795.652 1502.94 797.118 1503.72 796.409C1509.28 791.374 1513.98 794.529 1518.88 797.229C1523.08 799.543 1527.64 801.375 1531.42 804.237C1534.76 806.765 1538.56 809.949 1539.89 813.656C1547.04 833.711 1559.91 849.205 1576.8 861.549C1586.92 868.954 1598.14 871.875 1610.38 866.749C1617.14 863.92 1623.71 864.676 1631.39 867.946Z" fill="#67554C"/>
<path d="M227.794 890.723C225.534 892.092 223.274 893.461 220.202 894.525C217.256 882.625 206.724 881.04 197.974 875.735C198.842 880.795 199.945 884.827 200.15 888.904C200.647 898.792 201.983 900.341 212.177 901.138C206.524 907.26 198.907 907.24 192.798 904.181C170.618 893.075 154.544 901.891 142.843 918.009C140.509 921.224 138.234 924.482 134.971 929.072C128.539 921.301 122.454 914.416 116.883 907.136C95.7089 879.466 80.6911 848.912 75.1469 814.268C73.1988 802.094 71.5257 789.719 71.4676 777.427C71.1235 704.639 71.291 631.848 71.2871 559.058C71.2859 536.508 79.3539 517.73 95.2285 501.345C121.036 474.708 145.726 446.99 171.05 419.881C178.81 411.575 186.807 403.441 195.213 395.796C216.03 376.862 229.974 353.366 241.285 328.035C250.02 308.475 258.901 288.977 267.31 269.278C270.39 262.063 274.633 258.797 282.833 259.178C303.865 260.156 325.045 259.908 344.56 250.811C354.508 246.175 363.682 239.66 372.635 233.202C377.217 229.897 379.985 229.91 384.459 233.302C392.641 239.508 401.038 245.775 410.202 250.271C427.092 258.558 449.183 254.163 459.8 241.841C463.166 237.935 463.596 234.842 458.491 232.243C444.593 225.169 431.277 216.347 414.869 216.415C409.147 216.439 403.421 217.46 397.712 218.145C395.649 218.393 393.629 218.99 390.316 219.701C413.107 195.141 440.697 179.985 468.313 164.459C469.602 166.17 470.145 167.599 471.04 168.756C486.469 188.733 498.16 210.73 504.243 235.205C511.918 266.088 514.04 297.284 506.134 328.646C500.094 352.607 489.878 374.585 476.511 395.293C465.231 412.766 449.537 425.702 433.27 438.809C420.921 445.935 409.019 452.848 396.802 459.944C406.628 477.085 416.447 494.213 426.271 511.961C426.912 515.772 427.364 519.013 428.211 522.147C434.441 545.183 435.121 568.627 429.339 591.506C425.006 608.654 417.329 624.958 410.831 641.955C410.209 643.083 409.896 643.895 409.613 644.695C409.643 644.684 409.593 644.644 409.103 644.781C406.066 647.687 403.33 650.306 401.001 653.248C371.864 690.058 333.253 708.313 286.913 709.611C270.703 710.066 254.388 706.772 237.732 704.853C226.836 699.702 216.393 694.73 205.741 690.258C204.307 689.656 200.929 690.984 199.982 692.424C196.952 697.031 194.909 702.276 192.01 706.981C180.533 725.604 164.087 739.291 146.504 751.689C140.825 755.693 141.227 757.972 146.461 762.287C158.074 771.862 170.05 781.32 180.037 792.474C201.099 815.998 214.001 843.946 220.822 874.813C222.048 880.359 225.416 885.432 227.794 890.723ZM183.8 534.452C184.763 535.62 186.066 536.645 186.633 537.981C189.28 544.217 193.269 546.308 200.275 544.776C206.746 543.361 213.251 544.31 218.116 550.319C219.143 551.587 223.092 551.76 224.919 550.861C229.589 548.563 233.57 548.417 237.336 552.182C239.04 553.886 240.603 555.73 242.428 557.727C243.65 556.579 244.559 556.035 245.03 555.234C248.632 549.106 252.876 545.447 260.45 549.614C261.569 550.23 264.944 548.644 265.994 547.166C271.343 539.641 278.455 537.626 287.225 538.772C289.079 539.014 292.507 537.591 293.006 536.165C296.762 525.434 304.259 518.595 315.845 514.063C312.841 511.479 310.945 508.624 308.444 507.921C300.071 505.57 291.547 503.354 282.939 502.456C279.948 502.144 275.812 505.184 273.492 507.828C269.878 511.945 267.89 517.489 264.282 521.613C256.674 530.309 252.81 529.421 249.299 518.942C249.175 518.571 248.518 518.379 248.852 518.605C242.797 519.249 237.44 519.818 231.622 520.437C231.46 520.86 230.977 521.745 230.777 522.69C229.199 530.159 227.83 531.013 221.663 526.323C216.714 522.56 212.682 517.603 208.163 513.26C206.399 511.564 204.648 509.277 202.492 508.665C193.301 506.057 172.32 512.137 166.746 524.832C172.205 527.769 177.642 530.694 183.8 534.452ZM411.87 327.669C416.295 324.625 420.72 321.582 425.172 318.52C412.425 304.626 399.723 304.745 387.767 318.244C384.845 321.544 380.835 323.882 376.575 327.255C375.092 322.936 374.321 320.691 373.822 319.237C368.913 319.237 364.803 319.237 360.337 319.237C355.87 327.208 353.686 327.501 346.728 320.146C344.841 318.152 343.495 315.657 341.747 313.518C340.344 311.801 339 309.662 337.125 308.772C329.578 305.189 314.273 310.696 309.279 318.473C312.645 320.528 317.122 321.817 319.163 324.783C324.668 332.784 330.794 338.478 341.317 337.791C343.158 337.671 345.156 339.967 347.081 341.147C348.331 341.913 350.075 343.64 350.757 343.292C357.804 339.694 362.02 344.563 366.273 348.534C369.638 346.089 373.427 341.548 375.393 342.234C381.896 344.504 385.815 341.912 390.143 338.028C391.426 336.876 394.031 336.54 395.891 336.805C403.172 337.844 408.011 334.85 411.87 327.669Z" fill="#382E2A"/>
<path d="M411.14 641.637C417.329 624.958 425.006 608.654 429.34 591.506C435.121 568.627 434.441 545.183 428.211 522.147C427.364 519.013 426.912 515.772 426.573 511.422C429.151 486.374 431.434 462.485 433.716 438.596C449.537 425.702 465.232 412.766 476.511 395.293C489.878 374.585 500.094 352.607 506.134 328.646C514.04 297.284 511.918 266.088 504.243 235.205C498.16 210.73 486.469 188.733 471.04 168.756C470.145 167.599 469.602 166.17 468.826 164.331C472.049 164.855 475.799 165.239 478.553 167.098C488.644 173.914 498.74 180.448 511.378 181.26C512.63 181.34 513.885 181.592 515.128 181.537C525.035 181.099 526.208 179.047 522.046 170.156C519.81 165.379 517.531 160.563 516.003 155.541C515.298 153.227 516.347 150.379 517.079 147.949C520.423 151.55 523.313 154.954 526.15 158.401C552.255 190.107 586.126 200.13 625.642 193.52C643.317 190.563 643.246 190.137 649.318 207.751C647.834 223.045 646 238.315 644.942 253.638C643.085 280.554 641.703 307.503 639.758 334.678C635.417 326.806 632.512 317.894 627.205 310.773C619.46 300.381 607.916 296.342 594.933 298.106C581.28 299.961 572.57 308.013 568.494 321.028C566.458 327.528 565.097 334.246 562.917 340.693C561.873 343.779 559.635 346.461 557.939 349.327C555.203 347.39 552.079 345.82 549.82 343.432C546.208 339.616 543.717 334.611 539.77 331.267C532.663 325.243 525.235 328.164 523.784 337.415C523.013 342.335 523.42 347.495 523.748 352.517C524.118 358.167 524.892 363.515 532.636 364.125C534.921 364.304 537.521 366.871 539.052 369.006C543.456 375.145 548.099 381.278 551.372 388.032C561.55 409.033 553.626 426.943 531.397 433.815C524.661 435.897 517.599 436.904 510.793 438.789C503.564 440.79 496.785 443.674 492.334 453.158C505.624 447.354 515.68 451.293 525.22 457.902C526.668 458.905 528.295 459.648 529.833 460.522C539.122 465.8 548.379 466.632 557.747 460.607C565.277 455.765 573.421 455.06 582.374 455.326C589.49 455.537 597.547 453.71 603.713 450.2C617.191 442.529 626.356 430.295 633.295 416.478C633.461 425.096 634.178 433.746 633.678 442.325C632.666 459.687 630.996 477.011 629.592 494.35C627.679 517.974 625.586 541.586 623.899 565.226C622.517 584.597 621.707 604.007 620.481 623.39C618.636 652.582 616.618 681.764 614.736 710.954C613.567 729.076 612.568 747.209 611.398 765.331C609.497 794.769 607.545 824.203 605.562 853.636C604.003 876.784 602.389 899.929 600.755 923.072C598.854 949.985 596.804 976.887 595.009 1003.81C593.718 1023.18 592.823 1042.59 591.556 1061.97C591.281 1066.18 590.177 1070.34 589.134 1074.99C581.901 1066.11 574.617 1057.24 561.457 1054.27C558.675 1054.38 556.806 1054.88 554.936 1055.39C550.758 1054.76 546.579 1054.14 541.71 1052.72C539.698 1049.94 538.375 1047.97 537.053 1046C537.833 1046.2 538.613 1046.41 539.393 1046.61C546.023 1038.26 552.653 1029.91 559.283 1021.56C558.821 1021.07 558.359 1020.58 557.896 1020.08C555.908 1021.39 554.03 1023.59 551.914 1023.85C541.924 1025.07 532.339 1027.28 523.697 1032.68C522.395 1030.91 521.093 1029.13 519.096 1026.63C514.854 1026.03 511.307 1026.15 507.761 1026.28C508.898 1028.56 510.036 1030.84 511.174 1033.12C512.063 1035.21 513.222 1037.23 513.788 1039.4C515.208 1044.85 514.124 1049.04 507.535 1049.72C502.791 1050.21 497.664 1052.01 493.356 1050.84C474.17 1045.64 455.575 1061.26 450.014 1078.06C446.699 1088.08 446.662 1088.19 436.733 1084.95C426.515 1081.62 416.376 1078.05 404.576 1074.02C418.816 1063.78 425.334 1050.66 428.533 1035.8C433.028 1014.91 423.981 993.896 407.695 986.62C405.865 985.802 403.798 984.584 401.989 984.799C391.962 985.987 387.501 977.636 381.27 972.651C379.61 971.323 380.12 967.14 379.851 964.248C379.372 959.099 379.059 953.934 378.08 947.952C376.585 945.967 375.688 944.806 374.778 942.992C376.52 929.622 378.379 916.918 380.008 904.184C383.841 874.217 387.693 844.251 391.297 814.255C395.319 780.775 399.239 747.28 402.892 713.758C405.4 690.75 407.378 667.684 409.593 644.644C409.593 644.644 409.644 644.684 409.898 644.365C410.481 643.242 410.811 642.44 411.14 641.637Z" fill="#413631"/>
<path d="M1544.45 514.811C1536.85 492.911 1532.88 470.222 1532.71 447.191C1532.39 402.145 1546.43 361.891 1575.84 327.345C1578.92 323.725 1581.79 319.926 1585.34 315.488C1580.27 312.306 1575.71 309.346 1571.06 306.544C1543.88 290.178 1521.95 268.703 1507.05 240.505C1504.77 236.201 1501.95 235.055 1497.31 235.544C1447.16 240.809 1402.11 226.987 1362.2 197.147C1333.94 176.011 1312.79 148.909 1301.87 114.083C1323.79 108.166 1344.33 99.3397 1363.54 87.4017C1368.81 84.1268 1372.54 84.8626 1376.22 90.1931C1385.98 104.321 1390.55 101.944 1378.25 120.768C1368.93 135.035 1366.6 151.201 1370.28 168.086C1371.41 173.278 1373.7 174.454 1378.85 172.857C1396.99 167.231 1413.63 159.09 1427.03 145.344C1430.42 141.864 1433.56 141.554 1437.84 143.24C1446.99 146.851 1456.69 149.28 1465.42 153.68C1476.62 159.327 1487.15 166.336 1497.85 172.937C1512.86 182.19 1527.79 191.563 1542.7 200.979C1547.76 204.174 1552.61 207.687 1557.6 210.986C1558.81 211.785 1560.59 213.204 1561.45 212.828C1571.47 208.411 1580.25 214.725 1589.35 216.388C1606.96 219.607 1624.25 224.607 1641.58 229.21C1644.18 229.901 1647.8 232.03 1648.38 234.182C1651.68 246.49 1654.19 259.007 1657.16 272.256C1655.42 271.363 1653.8 270.9 1652.67 269.894C1632.52 252.011 1599.4 262.342 1583.32 280.541C1578.89 285.553 1582.65 289.392 1586.31 290.809C1594.9 294.139 1604.01 298.25 1612.91 298.223C1628.39 298.176 1643.36 293.404 1656.05 283.922C1662.14 279.365 1664.58 282.803 1668.06 287.004C1689.37 312.671 1710.9 338.167 1739.41 356.423C1747.81 361.797 1756.4 366.853 1766.72 373.16C1761.73 374.308 1758.93 375.02 1756.1 375.592C1729.34 381.011 1715.07 399.496 1706.11 423.456C1704.52 427.711 1706.39 430.055 1710.96 430.755C1732.63 434.07 1755.16 420.777 1762.78 399.757C1765.42 392.454 1767.4 384.91 1770.35 375.297C1776.96 382.516 1782.97 388.351 1788.13 394.851C1804.16 415.014 1824.07 430.17 1848.79 436.871C1873.13 443.471 1889.06 459.446 1903.85 478.104C1920.59 499.207 1935.08 521.685 1944.99 546.673C1956 574.45 1958.75 603.365 1953.31 632.989C1948.67 658.289 1944.62 683.697 1940.12 709.024C1939.47 712.684 1937.77 716.157 1935.88 719.645C1931.5 704.891 1928.02 690.225 1930.64 674.826C1930.92 673.18 1928.5 669.92 1926.67 669.265C1917.25 665.899 1907.35 663.784 1898.12 660.014C1884.94 654.634 1873.12 646.855 1864.64 635.074C1856.58 623.87 1848.9 612.387 1841.17 600.943C1839.36 598.266 1838.19 595.649 1834.25 598.401C1823.74 605.734 1813.06 612.814 1802.45 619.995C1786.74 624.422 1771.26 630.238 1755.25 632.982C1723.56 638.414 1692.05 636.756 1661.71 624.569C1667.48 624.877 1673.5 624.794 1678.72 626.781C1689.91 631.036 1699.69 629.299 1708.35 621.65C1717.95 613.171 1727.32 604.672 1743.53 609.456C1737.61 600.666 1731.13 598.162 1723.58 597.658C1716.52 597.186 1709.4 597.22 1702.42 596.219C1684.36 593.627 1671.84 579.583 1673.53 561.525C1674.44 551.809 1678.76 542.202 1682.76 533.085C1684.47 529.209 1689.37 526.77 1692.72 523.569C1694.19 522.157 1696.49 520.509 1696.54 518.907C1696.77 512.121 1697.13 505.132 1695.73 498.583C1694.95 494.972 1691.32 490.463 1687.99 489.386C1685.33 488.525 1680.43 491.493 1677.9 494.098C1674.65 497.436 1673 502.271 1670.23 506.161C1668.17 509.071 1665.44 511.507 1663 514.154C1660.75 511.278 1657.96 508.672 1656.37 505.471C1652.9 498.481 1650.68 490.818 1646.81 484.087C1633.81 461.488 1602.91 461.108 1589.83 483.809C1585.18 491.866 1583.15 501.618 1580.99 510.847C1579.48 517.34 1579.78 524.257 1579.14 532.743C1575.39 530.904 1572.29 530.024 1570.04 528.139C1566.38 525.082 1563.17 521.452 1559.94 517.907C1555.49 513.015 1550.53 511.27 1544.45 514.811Z" fill="#382E2A"/>
<path d="M1802.43 620.71C1813.06 612.814 1823.74 605.734 1834.25 598.401C1838.19 595.649 1839.36 598.266 1841.17 600.943C1848.9 612.387 1856.58 623.87 1864.64 635.075C1873.12 646.855 1884.94 654.635 1898.12 660.014C1907.35 663.784 1917.25 665.899 1926.67 669.265C1928.5 669.92 1930.92 673.18 1930.64 674.826C1928.02 690.226 1931.5 704.891 1935.52 720.053C1929.84 736.313 1924.81 752.546 1917.66 767.779C1902.87 799.267 1887.92 830.761 1871.09 861.171C1862.51 876.657 1850.81 890.838 1838.58 903.782C1815.57 928.143 1791.19 951.203 1767.29 974.725C1765.37 976.616 1762.85 977.899 1759.89 979.968C1750.49 966.173 1739.27 955.795 1720.83 956.719C1725.39 939.527 1730.6 922.424 1735.92 905.356C1757.25 836.921 1774.36 767.393 1789.44 697.359C1794.16 675.443 1797.81 653.294 1801.81 631.229C1802.39 628.03 1802.22 624.696 1802.43 620.71Z" fill="#413631"/>
<path d="M409.103 644.781C407.378 667.684 405.4 690.75 402.892 713.758C399.238 747.28 395.319 780.775 391.297 814.255C387.693 844.251 383.841 874.217 380.008 904.184C378.379 916.918 376.52 929.622 374.202 943.012C361.966 941.25 350.06 939.398 340.495 930.811C341.638 933.713 343.4 936.289 344.744 939.068C345.935 941.531 346.554 944.264 347.615 946.798C349.335 950.908 350.249 956.195 353.353 958.596C355.479 960.241 360.743 957.832 365.421 957.109C365.579 958.115 365.985 960.714 366.392 963.312C366.263 963.616 366.134 963.919 365.553 964.841C364.747 965.691 364.424 965.961 364.133 966.268C358.118 966.522 352.106 966.866 346.089 966.972C344.449 967.001 342.48 966.777 341.197 965.893C326.559 955.804 312.839 958.515 298.638 968.855C296.8 968.767 295.635 968.643 294.986 967.999C275.229 948.396 259.453 926.299 251.709 899.119C242.796 867.832 241.463 835.554 239.954 803.431C238.419 770.727 238.658 737.94 238.121 705.19C254.388 706.772 270.703 710.066 286.913 709.612C333.253 708.313 371.864 690.058 401.001 653.248C403.33 650.306 406.066 647.687 409.103 644.781Z" fill="#67554C"/>
<path d="M1228.1 134.899C1200.93 169.055 1165.91 191.561 1122.5 200.079C1050.62 214.184 989.731 193.597 939.801 140.554C932.835 133.154 928.276 123.49 922.494 114.35C939.051 98.8148 955.68 83.7625 972.409 68.8229C976.856 64.8515 982.17 66.2821 984.112 72.5684C988.975 88.317 1002.24 93.2416 1015.71 97.9001C1021.28 99.8281 1024.92 97.6368 1024 91.317C1022.81 83.1089 1021.2 74.951 1019.46 66.8376C1017.65 58.4041 1019.12 55.9217 1027.83 56.1575C1055.93 56.9182 1082.43 50.4474 1107.94 39.2258C1113.3 36.8687 1116.68 38.6402 1120.21 43.072C1138.81 66.4354 1160.26 86.4227 1187.85 99.021C1195.04 102.306 1195.51 105.257 1191.83 112.645C1187.93 120.507 1183.53 128.287 1180.93 136.597C1178.02 145.884 1181.01 149.285 1190.3 146.984C1202.94 143.857 1215.15 139.052 1228.1 134.899Z" fill="#382E2A"/>
<path d="M649.743 208.036C643.246 190.137 643.317 190.563 625.642 193.52C586.126 200.13 552.254 190.107 526.15 158.401C523.313 154.954 520.423 151.55 517.453 147.599C520.285 146.575 523.262 145.488 526.151 145.687C536.151 146.376 543.437 141.045 550.674 135.405C554.063 132.764 552.996 130.269 550.381 127.873C547.141 124.905 543.873 121.967 539.409 117.919C542.948 116.755 544.942 115.543 546.948 115.523C571.32 115.283 591.761 104.472 611.185 91.3556C616.029 88.0845 618.683 88.5796 622.775 92.3008C652.943 119.734 688.318 137.772 727.871 146.625C747.925 151.114 768.746 152.178 789.93 154.857C800.034 200.611 753.893 248.545 703.674 240.414C683.012 237.068 666.662 228.265 653.931 212.031C652.852 210.656 651.43 209.551 649.743 208.036Z" fill="#382E2A"/>
<path d="M237.732 704.853C238.658 737.94 238.418 770.727 239.954 803.431C241.463 835.554 242.796 867.832 251.709 899.118C259.453 926.299 275.229 948.396 294.986 967.999C295.635 968.643 296.8 968.766 298.241 969.185C282.306 985.782 275.088 1005.36 279.182 1029.33C279.149 1029.99 279.147 1030 279.147 1030C265.759 1023.96 252.371 1017.93 237.986 1011.45C240.302 1009.43 240.76 1008.8 241.378 1008.53C265.428 998.194 278.258 967.999 268.092 943.737C264.13 934.282 256.936 927.826 246.225 924.527C238.923 922.277 232.587 916.501 226.437 911.537C225.86 911.072 229.485 904.955 231.597 901.75C233.173 899.36 235.457 897.436 237.426 895.304C234.602 893.75 231.777 892.195 228.373 890.682C225.415 885.432 222.048 880.359 220.822 874.813C214.001 843.946 201.099 815.997 180.037 792.474C170.05 781.32 158.074 771.862 146.461 762.287C141.227 757.972 140.825 755.693 146.504 751.689C164.087 739.291 180.533 725.604 192.009 706.981C194.909 702.275 196.952 697.031 199.982 692.424C200.929 690.983 204.307 689.656 205.741 690.258C216.393 694.73 226.836 699.702 237.732 704.853Z" fill="#413631"/>
<path d="M181.74 248.708C185.006 240.703 187.756 233.118 191.363 225.965C194.05 220.638 199.063 218.353 205.207 218.385C223.889 218.483 242.573 218.516 261.253 218.329C267.852 218.263 269.046 220.86 267.06 226.74C255.765 260.172 240.083 291.605 219.367 319.92C209.306 333.672 194.424 343.906 181.634 355.634C180.671 356.517 178.974 356.601 175.293 357.838C178.836 320.854 174.329 284.858 181.74 248.708Z" fill="#382E2A"/>
<path d="M114.948 300.008C129.256 287.927 141.172 273.748 158.33 263.617C159.193 273.131 160.4 281.038 160.548 288.965C161.341 331.49 158.416 373.471 136.839 411.551C126.61 429.602 112.06 443.963 93.7558 454.107C87.5433 457.55 84.9926 455.94 85.0808 448.575C85.3652 424.842 86.076 401.113 86.2562 377.38C86.3096 370.343 88.1937 368.298 95.6736 369.567C123.123 374.227 147.2 356.193 151.371 328.613C153.003 317.824 150.724 315.828 140.023 318.056C119.448 322.339 104.296 333.809 94.0673 352.04C93.0458 353.86 91.6432 355.467 89.3582 356.595C92.7701 335.578 98.6085 315.746 114.948 300.008Z" fill="#382E2A"/>
<path d="M133.097 248.351C117.309 259.927 101.935 271.145 85.1492 283.392C85.1492 267.1 84.9538 252.561 85.3484 238.039C85.4115 235.715 87.7457 233.078 89.6596 231.241C101.873 219.519 111.683 206.262 116.417 189.794C118.219 183.526 122.103 181.839 128.255 181.873C139.339 181.936 150.699 182.595 161.441 180.465C173.093 178.155 184.761 174.108 195.363 168.732C211.776 160.411 218.359 160.961 231.91 176.748C199.054 200.537 166.282 224.265 133.097 248.351Z" fill="#382E2A"/>
<path d="M1799.69 369.681C1785.58 350.42 1784.25 347.798 1783.61 337.69C1790.32 341.436 1796.47 345.562 1803.14 348.462C1822.34 356.794 1839.93 353.734 1855.94 340.223C1857.79 338.668 1861.95 337.521 1863.68 338.524C1887.39 352.305 1902.12 365.904 1901.09 397.877C1900.89 403.84 1899.03 406.86 1892.7 406.535C1879.11 405.838 1865.4 406.232 1851.95 404.525C1837.85 402.735 1825.98 395.165 1815.59 385.599C1810.21 380.646 1805.22 375.27 1799.69 369.681Z" fill="#382E2A"/>
<path d="M1841.38 288.648C1826.82 278.732 1812.71 269.16 1797.21 258.649C1800.65 256.83 1801.97 255.801 1803.47 255.392C1816.35 251.858 1829.28 248.452 1842.18 244.975C1848.41 243.294 1851.99 245.759 1852.35 252.238C1852.46 254.233 1852.4 256.344 1851.87 258.247C1850.09 264.602 1853.47 266.383 1858.63 265.311C1868 263.368 1877.34 261.154 1886.48 258.352C1895.21 255.674 1896.3 256.034 1896.34 265.007C1896.4 279.404 1896.37 293.801 1896.32 308.198C1896.31 310.665 1896 313.131 1895.66 317.894C1876.86 307.802 1859.34 298.396 1841.38 288.648Z" fill="#382E2A"/>
<path d="M1742.69 328.385C1735.69 330.285 1731.27 328.387 1728.39 321.779C1722.95 309.324 1712.4 301.164 1702.23 292.904C1684.58 278.558 1675.44 258.772 1665.84 239.227C1666.38 238.335 1666.91 237.444 1667.45 236.553C1676.24 240.122 1686.54 241.858 1693.52 247.615C1712.5 263.274 1724.92 284.186 1734.52 306.711C1737.53 313.77 1740.26 320.946 1742.69 328.385Z" fill="#382E2A"/>
<path d="M1787.23 320.041C1782.73 321.997 1780.25 320.808 1779.76 316.445C1778.65 306.686 1777.56 296.922 1776.67 287.141C1776.13 281.312 1778.59 277.805 1784.65 280.539C1806.89 290.559 1830.38 298.569 1847.39 317.441C1849.93 320.262 1851.84 323.658 1853.42 327.524C1831.85 319.346 1810.99 309.646 1787.23 320.041Z" fill="#382E2A"/>
<path d="M293.255 233.443C288.509 233.145 287.892 230.558 289.828 227.762C295.096 220.156 300.619 212.712 306.365 205.46C307.402 204.153 309.978 203.52 311.851 203.505C329.369 203.361 346.889 203.419 364.873 204.523C360.348 212.222 353.955 218.139 346.38 220.817C332.971 225.557 318.903 228.463 305.057 231.922C301.424 232.829 297.595 232.95 293.255 233.443Z" fill="#382E2A"/>
<path d="M1731.65 273.956C1728.59 268.027 1725.81 262.578 1723.03 257.129C1723.56 256.487 1724.09 255.846 1724.62 255.205C1734.46 256.358 1744.45 256.855 1754.03 259.077C1756.77 259.712 1759.81 265.17 1760.23 268.712C1762.3 286.096 1763.53 303.578 1763.59 321.535C1750.17 307.442 1741.22 290.825 1731.65 273.956Z" fill="#382E2A"/>
<path d="M175.36 968.389C171.574 964.999 167.891 962.237 164.89 958.868C163.244 957.022 162.749 954.15 161.005 950.007C167.943 954.916 173.175 958.566 178.328 962.325C179.015 962.826 179.493 963.822 179.742 964.683C182.023 972.565 183.785 973.129 189.97 968.192C194.35 969.807 198.55 971.357 202.961 972.984C203.44 977.585 203.411 983.426 210.801 977.053C211.79 976.2 214.12 976.724 215.803 976.885C221.488 977.432 227.161 978.104 232.913 978.736C226.721 989.626 213.516 982.309 205.07 989.777C195.413 982.856 185.58 975.81 175.36 968.389Z" fill="#E1B97A"/>
<path d="M323.805 1040.92C323.271 1040.36 322.736 1039.8 322.235 1038.53C323.054 1036.75 323.84 1035.69 324.625 1034.62C325.075 1034.81 325.458 1035.08 326.329 1036.07C328.649 1036.81 330.417 1036.93 332.185 1037.06C334.894 1031.85 338.224 1030.9 343.685 1033.94C348.855 1036.81 354.814 1038.27 360.913 1040.53C360.727 1042.71 360.548 1044.8 360.346 1047.17C364.695 1048.09 369.062 1051.87 371.749 1044.91C372.107 1043.99 374.133 1043.15 375.346 1043.2C380.78 1043.44 386.2 1044.01 392.552 1046.36C384.484 1049.61 376.647 1053.82 368.282 1055.84C359.51 1057.95 350.613 1057.02 344.964 1046.65C337.238 1044.48 330.522 1042.7 323.805 1040.92Z" fill="#EBBE7F"/>
<path d="M1423.18 1133.14C1424.65 1131.76 1425.95 1129.5 1427.62 1129.17C1433.03 1128.1 1439.93 1125.35 1443.84 1127.55C1457.85 1135.41 1459.17 1114.94 1469.72 1118.44C1468.26 1128.47 1457.57 1137.59 1442.42 1140.55C1436.95 1133.95 1435.27 1134.19 1431.28 1142.07C1428.26 1142.07 1425.25 1142.07 1421.57 1141.5C1421.65 1138.33 1422.42 1135.73 1423.18 1133.14Z" fill="#E7B776"/>
<path d="M1559.64 1090.57C1561.48 1090.44 1564.83 1090.61 1564.93 1090.12C1566.7 1081.46 1574.63 1081.09 1580.57 1078.06C1581.05 1077.82 1581.28 1077.06 1581.56 1076.5C1581.61 1076.39 1581.32 1076.11 1581.82 1076.86C1578.7 1081.97 1575.77 1087.76 1571.91 1092.84C1568.59 1097.21 1564.73 1101.55 1557.88 1097.21C1556.72 1096.48 1552.95 1099.86 1550.39 1101.34C1550.47 1102.5 1550.55 1103.65 1550.64 1104.81C1543.18 1102.4 1535.71 1100 1528.14 1096.62C1533.42 1095.64 1538.83 1095.64 1544.25 1095.64C1549.12 1094.04 1554.38 1092.3 1559.64 1090.57Z" fill="#E7B776"/>
<path d="M366.783 962.964C365.985 960.714 365.579 958.115 365.421 957.109C360.743 957.832 355.479 960.241 353.353 958.596C350.249 956.195 349.335 950.908 347.615 946.798C346.554 944.264 345.935 941.531 344.744 939.068C343.4 936.289 341.638 933.713 340.495 930.811C350.06 939.398 361.966 941.25 374.215 943.664C375.688 944.806 376.585 945.967 377.703 947.513C371.736 947.824 368.092 950.171 368.568 957.075C368.692 958.881 367.669 960.767 366.783 962.964Z" fill="#67554C"/>
<path d="M523.747 1033.24C532.339 1027.28 541.924 1025.07 551.914 1023.85C554.03 1023.59 555.908 1021.39 557.896 1020.08C558.359 1020.58 558.821 1021.07 559.283 1021.56C552.653 1029.91 546.023 1038.26 539.393 1046.61C538.613 1046.41 537.833 1046.2 537.053 1046C538.375 1047.97 539.698 1049.94 541.276 1052.36C530.193 1051.54 527.253 1042.43 523.747 1033.24Z" fill="#413631"/>
<path d="M1978.67 1117.6C1976.15 1116.08 1974.06 1114.91 1971.96 1113.74C1972.68 1114.31 1973.4 1114.88 1974.12 1115.45C1979.29 1110.46 1984.45 1105.46 1989.61 1100.46C1987.73 1100.8 1985.85 1101.13 1983.97 1101.47C1989.04 1106.56 1994.1 1111.65 1999.16 1116.75C1999.27 1114.53 1999.37 1112.31 1999.47 1110.09C1994.33 1115.07 1989.19 1120.05 1984.05 1125.03C1985.26 1126.24 1986.48 1127.45 1987.69 1128.65C1984.82 1125.08 1981.95 1121.51 1978.67 1117.6Z" fill="#262220"/>
<path d="M257.874 203.334C249.914 203.335 242.702 203.335 235.489 203.335C235.246 202.623 235.003 201.911 234.76 201.199C236.841 199.82 238.763 198.041 241.034 197.137C247.109 194.719 253.232 191.372 259.529 190.887C264.771 190.483 270.678 192.873 275.544 195.439C278.832 197.173 276.11 202.71 271.474 203.16C267.224 203.572 262.908 203.303 257.874 203.334Z" fill="#382E2A"/>
<path d="M524.148 1131.68C524.12 1130.93 524.091 1130.17 524.258 1128.42C520.966 1124.82 517.479 1121.99 513.995 1127.43C513.376 1133.58 509.957 1132.5 506.093 1129.79C510.446 1121.16 502.781 1122.09 499.278 1119.96C504.295 1117.91 507.703 1112.56 514.627 1114.25C520.295 1115.64 526.44 1115.08 530.042 1115.26C533.363 1119.11 535.361 1121.43 537.529 1124.18C534.328 1124 530.957 1123.37 528.709 1122.96C527.094 1126.05 525.621 1128.86 524.148 1131.68Z" fill="#EBC488"/>
<path d="M324.172 1004.68C320.399 997.25 319.565 990.459 325.065 983.419C331.801 991.626 338.249 999.482 344.759 1007.41C335.116 1011.24 329.64 1010.59 324.172 1004.68Z" fill="#E8B46E"/>
<path d="M370.64 1017.86C379.705 1013.95 388.741 1010.59 399.185 1006.69C398.077 1016.24 395.854 1023.11 388.352 1026.12C380.366 1029.32 375.076 1024.33 370.64 1017.86Z" fill="#E8B46E"/>
<path d="M1674.96 951.908C1676.47 951.865 1678.15 952.279 1680.38 952.831C1680.66 943.488 1685.26 938.731 1694.51 937.36C1697.82 936.869 1700.63 932.952 1704.03 930.313C1703.57 930.089 1704.39 930.378 1704.36 930.49C1702.77 937.989 1701.6 945.625 1699.32 952.915C1697.08 960.087 1689.71 957.773 1684.04 959.878C1680.73 957.631 1677.93 954.999 1674.96 951.908ZM1687.03 944.656C1685.21 948.309 1684.14 951.93 1689.33 953.557C1690.54 953.935 1692.24 952.751 1695.04 951.866C1692.02 950.617 1690.44 949.963 1688.15 949.013C1690.18 946.715 1691.7 945.009 1693.21 943.304C1693.04 942.929 1692.87 942.554 1692.7 942.178C1691.06 942.735 1689.41 943.292 1687.03 944.656Z" fill="#262220"/>
<path d="M499.397 1082.86C502.666 1085.51 505.495 1087.84 508.461 1090.29C501.929 1095.32 493.188 1096.27 488.406 1092.91C483.693 1089.6 482.142 1081.2 484.734 1072.87C489.484 1076.1 494.221 1079.32 499.397 1082.86Z" fill="#E8B46E"/>
<path d="M540.179 1087.92C546.151 1084.23 551.643 1080.81 558.096 1076.8C559.679 1084.29 559.267 1090.23 554.188 1094.9C549.093 1099.59 540.94 1098.68 531.949 1092.48C534.777 1090.92 537.238 1089.56 540.179 1087.92Z" fill="#E7B776"/>
<path d="M212.623 900.833C201.983 900.341 200.647 898.792 200.15 888.904C199.945 884.827 198.842 880.795 197.974 875.735C206.724 881.04 217.256 882.625 219.71 894.649C217.708 896.895 215.389 898.712 212.623 900.833Z" fill="#382E2A"/>
<path d="M524.469 1132.05C525.621 1128.86 527.094 1126.05 528.709 1122.96C530.957 1123.37 534.328 1124 538.102 1124.31C543.046 1115.27 551.006 1112.69 560.889 1112C553.274 1127.48 539.229 1130.29 524.469 1132.05Z" fill="#E2B06B"/>
<path d="M175.273 939.497C171.969 934.019 173.531 929.588 177.969 926.812C180.309 925.348 185.067 924.501 186.652 925.839C189.032 927.85 190.839 932.097 190.656 935.264C190.262 942.061 182.896 944.074 175.273 939.497Z" fill="#E8B46E"/>
<path d="M1711.22 987.27C1717.27 982.282 1722 984.086 1725.55 989.443C1728.25 993.521 1727.88 997.789 1723.11 1000.3C1718.08 1002.95 1712.84 1002.61 1710.17 997.245C1708.94 994.783 1710.51 990.925 1711.22 987.27Z" fill="#E8B46E"/>
<path d="M1422.36 1108.74C1417.57 1114.69 1411.57 1117.15 1404.99 1113.86C1399.18 1110.95 1398.16 1105.21 1399.69 1098.08C1407.55 1101.59 1414.97 1104.9 1422.36 1108.74Z" fill="#E1B97A"/>
<path d="M1661.7 1004.84C1666.43 1001.43 1671.46 1000.95 1673.75 1005.81C1675.16 1008.83 1674.2 1014.37 1672.12 1017.13C1670.66 1019.07 1664.59 1019.76 1662.2 1018.32C1656.85 1015.08 1657.94 1009.88 1661.7 1004.84Z" fill="#E2B06B"/>
<path d="M1462.46 1088.79C1465 1094.79 1465.59 1100.77 1460.85 1105.18C1455.94 1109.76 1449.62 1109.56 1441.35 1107.32C1448.96 1100.41 1455.49 1094.47 1462.46 1088.79Z" fill="#EBBE7F"/>
<path d="M238.423 948.096C241.098 954.249 238.377 958.462 233.483 959.728C230.523 960.494 225.062 958.758 223.662 956.402C222.224 953.981 223.137 948.341 225.189 946.054C229.311 941.46 234.199 943.412 238.423 948.096Z" fill="#E2B06B"/>
<path d="M1587.27 176.533C1590.48 176.899 1594.16 176.764 1595.89 178.537C1600.22 182.987 1603.68 188.3 1607.48 193.267C1607.11 194.005 1606.73 194.743 1606.36 195.482C1599.47 192.657 1592.35 190.25 1585.92 186.622C1584.77 185.973 1586.47 180.27 1587.27 176.533Z" fill="#382E2A"/>
<path d="M1538.3 1024.99C1544.54 1023.67 1556.92 1016.98 1560.46 1012.26C1560.12 1017.98 1560.3 1023.37 1559.36 1028.55C1558.4 1033.88 1554.1 1034.93 1549.44 1033.62C1547.34 1033.03 1545.54 1031.4 1543.08 1030.03C1541.29 1028.3 1540.02 1026.78 1538.3 1024.99Z" fill="#262220"/>
<path d="M498.705 1119.78C502.781 1122.09 510.446 1121.16 505.709 1129.47C494.187 1127.36 486.71 1119.73 479.712 1111.36C487.829 1109.46 490.683 1110.79 494.903 1117.98C495.412 1118.85 497.029 1119.07 498.705 1119.78Z" fill="#E8B46E"/>
<path d="M1559.4 1090.01C1554.38 1092.3 1549.12 1094.04 1544.25 1095.64C1538.83 1095.64 1533.42 1095.64 1527.82 1096.1C1526.63 1095.87 1525.64 1095.19 1524.65 1094.51C1530.8 1095.24 1537.34 1088.67 1542.9 1095.6C1543.19 1095.96 1544.59 1095.93 1545.04 1095.56C1548.65 1092.59 1552.15 1089.5 1556.51 1085.74C1552.73 1085.16 1549.68 1084.7 1545.2 1084.02C1546.51 1080.49 1547.59 1077.56 1549.3 1072.91C1553.31 1079.64 1556.23 1084.55 1559.4 1090.01Z" fill="#EBC488"/>
<path d="M1547.84 153.584C1555.53 157.763 1551.98 162.72 1549.02 166.879C1545.53 171.766 1542.41 167.239 1539.61 165.4C1536.35 163.264 1533.46 160.569 1530.37 155.964C1536 155.121 1541.64 154.277 1547.84 153.584Z" fill="#382E2A"/>
<path d="M1398.77 1051.25C1404.14 1052.58 1409.02 1055.3 1415.27 1053.4C1417.15 1052.82 1420.94 1058.53 1424.25 1061.75C1424.64 1062.12 1424.38 1062.67 1424.28 1062.76C1414.03 1071.62 1412.06 1071.09 1405.9 1059.09C1404.5 1056.36 1401.55 1054.42 1399.05 1051.67C1398.78 1051.23 1398.77 1051.25 1398.77 1051.25Z" fill="#262220"/>
<path d="M1422.74 1133.74C1422.42 1135.73 1421.65 1138.33 1421.08 1141.14C1412.1 1139.79 1404.55 1135.52 1399.02 1127.67C1404.95 1130.42 1413 1126.94 1417.37 1134.47C1417.77 1135.15 1420.6 1134.42 1422.74 1133.74Z" fill="#E2B06B"/>
<path d="M324.573 1034.07C323.84 1035.69 323.054 1036.75 322.083 1038.17C315.261 1032.47 311.399 1024.96 309.677 1015.85C320.371 1019.94 325.016 1025.61 324.573 1034.07Z" fill="#E2B06B"/>
<path d="M1523.28 1067.9C1527.18 1063.99 1531.06 1064.89 1532.97 1068.52C1534.24 1070.93 1533.88 1075.26 1532.45 1077.64C1531.5 1079.23 1526.69 1080.19 1524.79 1079.19C1520.25 1076.82 1520.33 1072.51 1523.28 1067.9Z" fill="#E1B97A"/>
<path d="M1572.45 1058.21C1575.12 1063.29 1573.9 1067.38 1569.32 1069.17C1567.3 1069.96 1562.28 1068.38 1561.88 1066.96C1561.07 1064.08 1561.49 1059.69 1563.32 1057.64C1564.6 1056.21 1569.08 1057.65 1572.45 1058.21Z" fill="#E7B776"/>
<path d="M523.128 1098.43C524.411 1101.09 525.4 1103.3 526.915 1106.68C521.273 1106.68 516.82 1106.68 510.688 1106.68C513.874 1101.47 516.359 1097.4 519.223 1092.71C520.873 1095.12 521.854 1096.55 523.128 1098.43Z" fill="#EBC488"/>
<path d="M351.282 1017.63C352.788 1016.46 353.913 1015.59 355.61 1014.28C356.481 1019.25 357.203 1023.37 358.208 1029.1C352.906 1027.85 348.354 1026.78 342.523 1025.41C346.085 1022.23 348.494 1020.08 351.282 1017.63Z" fill="#E1B97A"/>
<path d="M1698.6 1023.52C1696.2 1024.29 1694.32 1024.83 1691.24 1025.74C1692.13 1020.66 1692.87 1016.44 1693.89 1010.63C1698.48 1014.26 1701.82 1016.91 1705.76 1020.04C1703.02 1021.38 1701.07 1022.34 1698.6 1023.52Z" fill="#E2B06B"/>
<path d="M205.433 960.508C205.629 962.545 205.748 964.013 205.931 966.276C201.397 964.539 197.472 963.035 192.167 961.003C196.095 957.559 199.301 954.749 203.863 950.749C204.525 954.826 204.94 957.382 205.433 960.508Z" fill="#E1B97A"/>
<path d="M1674.43 1039.4C1669.27 1042.31 1664.71 1043.39 1659.82 1036.31C1665.95 1036.89 1670.89 1037.36 1675.83 1037.86C1675.92 1037.87 1676.09 1038.35 1676.05 1038.39C1675.67 1038.7 1675.24 1038.96 1674.43 1039.4Z" fill="#E2B06B"/>
<path d="M324.038 1041.39C330.522 1042.7 337.238 1044.48 344.35 1046.34C342.433 1048.01 340.121 1049.61 336.821 1051.88C333.004 1048.83 328.637 1045.35 324.038 1041.39Z" fill="#E2B06B"/>
<path d="M1430.62 1111.44C1431.91 1110.64 1433.81 1109.74 1434.17 1110.17C1436.56 1112.96 1438.62 1116.04 1441.4 1119.87C1437.24 1120.81 1433.69 1121.61 1429.24 1122.61C1429.72 1118.67 1430.12 1115.31 1430.62 1111.44Z" fill="#E1B97A"/>
<path d="M511.245 1032.55C510.036 1030.84 508.898 1028.56 507.76 1026.28C511.307 1026.15 514.854 1026.03 518.691 1026.37C516.426 1028.55 513.871 1030.27 511.245 1032.55Z" fill="#2C223A"/>
<path d="M1664.37 957.835C1659.41 956.84 1656.36 954.703 1662.32 949.797C1663.29 952.176 1663.81 954.728 1664.37 957.835Z" fill="#2C223A"/>
<path d="M514.335 1126.83C517.479 1121.99 520.966 1124.82 524.43 1127.88C521.163 1127.63 517.919 1126.93 514.335 1126.83Z" fill="#E2B06B"/>
<path d="M1697.97 964.52C1699.48 964.217 1701.23 964.247 1703.34 964.546C1701.86 964.828 1700.04 964.84 1697.97 964.52Z" fill="#2C223A"/>
<path d="M555.491 1055.47C556.806 1054.88 558.675 1054.38 560.916 1054.18C559.54 1054.85 557.793 1055.2 555.491 1055.47Z" fill="#2C223A"/>
<path d="M1664.26 949.274C1665.17 948.733 1666.62 948.247 1668.43 947.977C1667.46 948.571 1666.13 948.95 1664.26 949.274Z" fill="#2C223A"/>
<path d="M1438.45 1051.55C1439.19 1052.36 1439.97 1053.71 1440.54 1055.44C1439.71 1054.58 1439.1 1053.33 1438.45 1051.55Z" fill="#372844"/>
<path d="M1685.61 962.687C1686.67 962.536 1687.93 962.724 1689.59 963.175C1688.6 963.3 1687.2 963.163 1685.61 962.687Z" fill="#2C223A"/>
<path d="M1533.93 1029.64C1533.96 1028.64 1534.3 1027.25 1535 1025.67C1534.99 1026.74 1534.62 1027.99 1533.93 1029.64Z" fill="#372844"/>
<path d="M1426.67 1058.73C1426.9 1057.95 1427.54 1056.98 1428.6 1055.84C1428.37 1056.62 1427.72 1057.58 1426.67 1058.73Z" fill="#372844"/>
<path d="M331.575 1037.2C330.417 1036.93 328.649 1036.81 326.526 1036.37C327.769 1036.48 329.367 1036.91 331.575 1037.2Z" fill="#E2B06B"/>
<path d="M364.416 966.123C364.424 965.961 364.747 965.691 365.369 965.3C365.373 965.474 365.06 965.754 364.416 966.123Z" fill="#2C223A"/>
<path d="M279.15 1029.99C279.15 1029.99 279.227 1030.17 279.187 1030.08C279.147 1030 279.15 1029.99 279.15 1029.99Z" fill="#4A3056"/>
<path d="M1658.95 275.328C1658.96 275.361 1658.94 275.296 1658.95 275.328Z" fill="#382845"/>
<path d="M1544.22 515.269C1550.53 511.27 1555.49 513.015 1559.94 517.907C1563.17 521.452 1566.38 525.082 1570.04 528.139C1572.29 530.024 1575.39 530.905 1579.14 532.743C1579.78 524.257 1579.48 517.34 1580.99 510.847C1583.14 501.618 1585.18 491.866 1589.83 483.809C1602.9 461.108 1633.81 461.489 1646.81 484.087C1650.68 490.818 1652.9 498.481 1656.37 505.471C1657.96 508.672 1660.75 511.278 1663 514.154C1665.43 511.507 1668.17 509.071 1670.23 506.161C1673 502.271 1674.65 497.436 1677.9 494.098C1680.43 491.494 1685.33 488.525 1687.99 489.386C1691.32 490.463 1694.95 494.972 1695.73 498.583C1697.13 505.132 1696.77 512.121 1696.54 518.907C1696.49 520.509 1694.19 522.158 1692.71 523.569C1689.37 526.77 1684.47 529.209 1682.76 533.085C1678.76 542.202 1674.44 551.809 1673.53 561.525C1671.84 579.583 1684.36 593.627 1702.42 596.219C1709.4 597.22 1716.52 597.186 1723.58 597.658C1731.13 598.162 1737.61 600.667 1743.53 609.456C1727.32 604.672 1717.95 613.171 1708.35 621.65C1699.69 629.299 1689.91 631.036 1678.72 626.782C1673.5 624.794 1667.48 624.877 1661.23 624.196C1634.62 630.967 1618.51 615.444 1603.05 598.538C1600.86 596.134 1599 593.419 1596.44 590.137C1595.43 588.647 1594.96 587.868 1594.49 587.09C1594.27 586.25 1594.05 585.411 1593.34 583.746C1590.78 577.008 1588.88 571.023 1586.54 565.217C1585.57 562.798 1584.13 559.914 1582.06 558.708C1575.81 555.079 1569.14 552.172 1562.64 548.983C1562.64 548.983 1562.63 549.1 1562.44 548.715C1560.34 548.077 1558.43 547.824 1556.53 547.571C1547.37 551.607 1546.91 551.47 1543.43 541.386C1540.46 532.808 1537.8 524.144 1544.22 515.269ZM1632.88 516.323C1630.5 513.773 1627.86 509.815 1624.72 514.834C1620.33 521.841 1615.99 522.03 1610.07 516.797C1609.19 516.027 1604.75 517.34 1603.97 518.779C1601.09 524.108 1603.89 534.63 1607.79 538.422C1611.9 535.931 1615.54 532.123 1619.52 531.737C1623.83 531.319 1628.44 534.095 1634.97 536.108C1634.46 529.825 1633.96 523.591 1632.88 516.323ZM1627.13 490.243C1624.87 490.897 1620.66 491.558 1620.66 492.206C1620.67 497.153 1620.38 502.64 1622.41 506.893C1624.46 511.189 1629.6 509.996 1631.47 505.222C1633.61 499.77 1632.19 494.937 1627.13 490.243ZM1601.97 508.647C1604.13 503.364 1604.07 498.318 1599.75 494.14C1598.97 493.383 1595.97 493.374 1595.82 493.75C1594.14 497.96 1592.29 502.238 1591.64 506.665C1591.38 508.448 1593.55 511.668 1595.33 512.338C1596.82 512.897 1599.35 510.693 1601.97 508.647Z" fill="#96A1A4"/>
<path d="M1630.81 867.744C1623.71 864.676 1617.14 863.92 1610.38 866.75C1598.14 871.875 1586.92 868.954 1576.8 861.549C1559.91 849.205 1547.04 833.711 1539.89 813.656C1538.56 809.949 1534.76 806.765 1531.42 804.237C1527.64 801.375 1523.08 799.543 1518.88 797.229C1513.98 794.529 1509.28 791.374 1503.72 796.41C1502.94 797.118 1498.34 795.652 1497.95 794.424C1495.47 786.546 1492.96 778.536 1492.03 770.39C1491.69 767.341 1494.87 762.196 1497.73 760.957C1500.59 759.717 1505.66 761.224 1508.66 763.204C1513.66 766.508 1517.56 771.436 1522.36 775.094C1524.51 776.73 1527.74 776.944 1530.48 777.803C1530.93 775.253 1531.95 772.65 1531.72 770.16C1530.5 756.507 1532.23 743.446 1538.5 731.123C1544.85 718.637 1555.39 712.465 1569.03 712.086C1581.72 711.734 1591.5 717.404 1597.31 728.933C1600.6 735.462 1603.14 742.372 1606.53 748.842C1608.32 752.252 1611.2 755.086 1613.59 758.18C1616.14 755.292 1619.02 752.628 1621.14 749.459C1623.8 745.492 1625.23 740.557 1628.34 737.083C1630.78 734.374 1635.28 731.441 1638.32 731.941C1641.38 732.445 1645.32 736.681 1646.12 739.952C1647.75 746.709 1647.75 753.906 1647.94 760.936C1647.99 762.477 1646.37 764.658 1644.91 765.552C1631.36 773.845 1622.87 796.793 1627.41 813.479C1631.6 828.911 1645.33 838.455 1663.72 838.674C1669.03 838.737 1674.34 838.653 1679.64 838.737C1686.89 838.851 1692.78 841.748 1698.7 849.052C1681.96 845.588 1671.19 853.634 1660.88 863.343C1652.31 871.423 1642.23 872.877 1630.81 867.744ZM1585.51 769.914C1581.85 766.228 1578.76 761.553 1574.41 759.078C1567.15 754.943 1559.73 758.302 1556.42 765.93C1552.5 774.976 1555.46 784.98 1561.3 787.408C1563.9 783.26 1565.44 777.714 1568.91 775.926C1576.1 772.224 1581 777.484 1584.64 783.689C1585.45 783.498 1586.26 783.307 1587.07 783.115C1586.7 779.066 1586.32 775.016 1585.51 769.914ZM1568.68 742.411C1570.4 750.722 1574.67 755.262 1578.35 752.344C1580.67 750.5 1582.55 745.536 1581.7 742.907C1580.6 739.469 1576.62 736.956 1573.87 734.045C1572.14 736.423 1570.41 738.8 1568.68 742.411ZM1541.19 751.124C1543.43 753.673 1545.66 756.221 1547.9 758.769C1549.8 755.886 1553.36 752.903 1553.19 750.144C1552.96 746.363 1550.13 739.782 1548.03 739.629C1541.99 739.19 1541.46 745.018 1541.19 751.124Z" fill="#A5A6B0"/>
<path d="M633.482 415.965C626.356 430.295 617.191 442.529 603.713 450.2C597.547 453.71 589.49 455.537 582.374 455.326C573.421 455.06 565.276 455.765 557.747 460.607C548.379 466.632 539.122 465.8 529.833 460.522C528.295 459.648 526.668 458.905 525.22 457.902C515.68 451.293 505.624 447.354 492.333 453.158C496.785 443.674 503.564 440.79 510.793 438.789C517.599 436.904 524.661 435.897 531.397 433.815C553.626 426.943 561.55 409.033 551.372 388.032C548.099 381.278 543.456 375.145 539.052 369.006C537.52 366.871 534.92 364.305 532.636 364.125C524.892 363.515 524.118 358.167 523.748 352.517C523.42 347.495 523.013 342.335 523.784 337.416C525.235 328.164 532.662 325.243 539.77 331.267C543.717 334.611 546.208 339.616 549.82 343.432C552.079 345.82 555.203 347.39 557.938 349.327C559.635 346.461 561.873 343.779 562.917 340.693C565.096 334.246 566.458 327.528 568.494 321.028C572.569 308.013 581.28 299.961 594.933 298.106C607.915 296.342 619.46 300.382 627.204 310.773C632.512 317.894 635.416 326.806 639.726 335.405C641.105 342.569 642.154 349.245 643.554 358.154C647.457 355.178 650.565 353.495 652.736 350.998C656.362 346.827 658.994 341.768 662.75 337.742C670.067 329.9 678.68 332.198 681.171 342.739C683.388 352.115 681.332 361.146 676.86 371.052C667.01 362.158 662.447 371.647 655.54 375.622C644.913 381.739 640.076 390.302 638.607 401.997C638.028 406.616 635.377 410.975 633.482 415.965ZM589.291 363.569C593.901 360.157 597.523 360.864 602.835 363.764C607.726 366.435 614.784 365.798 620.801 365.375C622.803 365.234 624.535 361.242 625.623 359.934C618.034 357.384 612.047 355.114 605.906 353.393C601.104 352.047 596.104 350.665 591.205 350.708C588.662 350.73 584.42 353.515 584.069 355.582C583.659 357.997 586.653 360.991 589.291 363.569ZM595.858 340.463C600.193 335.832 600.547 330.404 597.832 325.147C596.882 323.305 593.678 322.627 591.503 321.417C589.668 325.519 586.589 329.548 586.341 333.744C586.084 338.111 588.344 342.897 595.858 340.463ZM626.679 327.272C624.56 325.512 622.442 323.751 620.323 321.991C618.818 324.329 615.868 326.837 616.118 328.969C616.599 333.076 618.681 337.081 620.647 340.842C620.959 341.439 625.611 340.864 625.737 340.283C626.582 336.403 626.743 332.374 626.679 327.272Z" fill="#9DA3AA"/>
<path d="M1562.78 549.498C1569.14 552.172 1575.81 555.079 1582.06 558.708C1584.13 559.914 1585.57 562.798 1586.54 565.217C1588.88 571.023 1590.78 577.008 1593 583.467C1583.06 572.679 1572.99 561.346 1562.78 549.498Z" fill="#392845"/>
<path d="M1557.04 547.717C1558.43 547.824 1560.34 548.077 1562.5 548.718C1561.02 548.692 1559.29 548.277 1557.04 547.717Z" fill="#392845"/>
<path d="M1594.69 587.494C1594.96 587.868 1595.44 588.647 1596.02 589.886C1595.72 589.53 1595.31 588.714 1594.69 587.494Z" fill="#392845"/>
<path d="M1398.78 1051.23C1398.79 1051.22 1398.71 1051.06 1398.74 1051.15C1398.77 1051.24 1398.78 1051.23 1398.78 1051.23Z" fill="#372844"/>
<path d="M183.439 534.036C177.642 530.694 172.205 527.769 166.746 524.832C172.32 512.136 193.301 506.057 202.492 508.665C204.648 509.277 206.399 511.564 208.163 513.26C212.682 517.603 216.714 522.56 221.663 526.323C227.83 531.013 229.199 530.159 230.777 522.69C230.977 521.745 231.46 520.86 231.622 520.437C237.44 519.818 242.797 519.249 248.852 518.605C248.518 518.379 249.175 518.571 249.299 518.942C252.81 529.421 256.674 530.309 264.282 521.613C267.89 517.489 269.878 511.945 273.492 507.828C275.812 505.184 279.948 502.144 282.939 502.456C291.547 503.354 300.071 505.57 308.444 507.921C310.945 508.623 312.84 511.479 315.845 514.063C304.259 518.595 296.762 525.434 293.006 536.165C292.507 537.591 289.079 539.014 287.225 538.772C278.455 537.626 271.343 539.641 265.994 547.166C264.944 548.644 261.569 550.229 260.45 549.614C252.876 545.447 248.632 549.106 245.03 555.234C244.559 556.035 243.65 556.579 242.428 557.727C240.603 555.729 239.04 553.886 237.336 552.182C233.57 548.417 229.589 548.563 224.919 550.861C223.092 551.76 219.143 551.587 218.116 550.318C213.251 544.31 206.746 543.361 200.275 544.776C193.269 546.308 189.28 544.217 186.633 537.981C186.066 536.644 184.763 535.62 183.439 534.036Z" fill="#19212A"/>
<path d="M411.502 328.08C408.011 334.85 403.172 337.844 395.891 336.805C394.031 336.54 391.426 336.876 390.143 338.028C385.815 341.912 381.896 344.504 375.393 342.234C373.428 341.548 369.638 346.089 366.273 348.534C362.02 344.563 357.804 339.694 350.757 343.292C350.075 343.641 348.331 341.913 347.082 341.147C345.156 339.967 343.158 337.671 341.318 337.791C330.794 338.478 324.668 332.784 319.163 324.783C317.122 321.817 312.645 320.528 309.28 318.472C314.273 310.696 329.578 305.189 337.125 308.772C339 309.662 340.344 311.801 341.747 313.518C343.495 315.657 344.841 318.152 346.728 320.146C353.686 327.501 355.87 327.208 360.337 319.237C364.803 319.237 368.913 319.237 373.822 319.237C374.321 320.691 375.092 322.936 376.575 327.255C380.835 323.882 384.845 321.544 387.767 318.245C399.723 304.745 412.425 304.626 425.172 318.52C420.72 321.582 416.295 324.625 411.502 328.08Z" fill="#19212A"/>
<path d="M433.27 438.809C431.434 462.485 429.151 486.374 426.567 510.802C416.447 494.213 406.628 477.085 396.802 459.944C409.019 452.848 420.921 445.935 433.27 438.809Z" fill="#67554C"/>
<path d="M410.831 641.955C410.811 642.44 410.481 643.242 409.868 644.376C409.896 643.895 410.209 643.083 410.831 641.955Z" fill="#653F6A"/>
<path d="M1687.4 944.252C1689.41 943.292 1691.06 942.735 1692.7 942.178C1692.87 942.554 1693.04 942.929 1693.21 943.304C1691.7 945.009 1690.18 946.714 1688.15 949.013C1690.44 949.963 1692.02 950.617 1695.04 951.865C1692.24 952.751 1690.54 953.935 1689.33 953.557C1684.14 951.93 1685.21 948.309 1687.4 944.252Z" fill="#67554C"/>
<path d="M1633.17 516.84C1633.96 523.591 1634.46 529.825 1634.97 536.108C1628.44 534.095 1623.83 531.319 1619.52 531.737C1615.54 532.123 1611.9 535.931 1607.79 538.422C1603.89 534.63 1601.09 524.108 1603.97 518.779C1604.75 517.34 1609.19 516.027 1610.07 516.797C1615.99 522.03 1620.33 521.841 1624.72 514.834C1627.86 509.815 1630.5 513.773 1633.17 516.84Z" fill="#252E34"/>
<path d="M1627.58 490.562C1632.19 494.937 1633.61 499.77 1631.47 505.222C1629.6 509.996 1624.46 511.189 1622.41 506.893C1620.38 502.64 1620.67 497.153 1620.66 492.206C1620.66 491.558 1624.87 490.897 1627.58 490.562Z" fill="#252E34"/>
<path d="M1601.69 509.179C1599.35 510.693 1596.82 512.897 1595.33 512.338C1593.56 511.668 1591.38 508.448 1591.64 506.665C1592.29 502.237 1594.14 497.96 1595.82 493.75C1595.97 493.374 1598.97 493.383 1599.75 494.14C1604.07 498.318 1604.13 503.364 1601.69 509.179Z" fill="#252E34"/>
<path d="M1585.73 770.44C1586.32 775.016 1586.7 779.066 1587.07 783.115C1586.26 783.307 1585.45 783.498 1584.64 783.689C1581 777.484 1576.1 772.224 1568.91 775.926C1565.44 777.714 1563.9 783.26 1561.3 787.408C1555.46 784.98 1552.5 774.976 1556.42 765.93C1559.73 758.302 1567.15 754.943 1574.41 759.078C1578.76 761.553 1581.85 766.228 1585.73 770.44Z" fill="#252E34"/>
<path d="M1568.68 741.794C1570.41 738.8 1572.14 736.422 1573.87 734.045C1576.62 736.956 1580.6 739.469 1581.71 742.907C1582.55 745.536 1580.67 750.5 1578.35 752.344C1574.67 755.261 1570.4 750.722 1568.68 741.794Z" fill="#252E34"/>
<path d="M1541.16 750.514C1541.46 745.018 1541.99 739.191 1548.03 739.629C1550.13 739.782 1552.96 746.363 1553.19 750.144C1553.36 752.903 1549.8 755.886 1547.9 758.77C1545.67 756.221 1543.43 753.673 1541.16 750.514Z" fill="#252E34"/>
<path d="M588.731 363.652C586.653 360.991 583.659 357.997 584.069 355.582C584.421 353.515 588.662 350.73 591.205 350.708C596.105 350.665 601.104 352.046 605.906 353.393C612.047 355.114 618.035 357.384 625.623 359.934C624.535 361.242 622.803 365.234 620.801 365.375C614.785 365.798 607.726 366.435 602.835 363.764C597.524 360.864 593.901 360.157 588.731 363.652Z" fill="#252E34"/>
<path d="M595.348 340.809C588.344 342.897 586.084 338.111 586.342 333.744C586.589 329.548 589.668 325.519 591.503 321.417C593.678 322.627 596.882 323.305 597.833 325.147C600.547 330.404 600.193 335.832 595.348 340.809Z" fill="#252E34"/>
<path d="M626.903 327.833C626.743 332.374 626.582 336.403 625.737 340.283C625.611 340.864 620.959 341.438 620.647 340.842C618.681 337.081 616.599 333.076 616.118 328.969C615.868 326.837 618.819 324.329 620.324 321.991C622.442 323.751 624.56 325.511 626.903 327.833Z" fill="#252E34"/>
</g>
<defs>
<clipPath id="clip0_17_1101">
<rect width="2039" height="1165" fill="white"/>
</clipPath>
</defs>
</svg>
