
<svg width="1473" height="158" viewBox="0 0 1473 158" fill="none" xmlns="http://www.w3.org/2000/svg">
<g clip-path="url(#clip0_19_8)">
<rect width="1473" height="158" fill="#786A62"/>
<rect y="0.119385" width="1473" height="158" fill="#262220"/>
<path d="M796.539 9.85673C767.42 13.8007 747.254 42.257 746.502 80.4658C745.807 115.737 729.896 144.37 705.031 154.125C699.849 156.158 694.196 156.867 688.76 156.87C459.486 157.008 229.743 156.996 0 157C-0.468972 105.331 -2.90573e-06 51.74 -2.90573e-06 8.6993e-05C268.203 8.6993e-05 536.477 -0.428542 805 3.70145e-05C803.768 1.46874 802.088 4.74037 800.609 5.93837C799.183 7.0938 797.89 8.5389 796.539 9.85673Z" fill="#786A62"/>
<path d="M752.511 9.69884C753.451 8.13064 754.829 6.42215 756.349 5.05614C757.926 3.63979 759.64 2.55521 761.453 0.818822C763.44 0.312131 765.269 0.312131 767.746 0.790632C770.972 4.40869 773.387 4.2787 775.5 0C1008.01 0 1240.49 0.115567 1473 0.119351C1473 2.73279 1473 5.539 1473 8.93131C1233 9.71232 993.007 9.71068 752.511 9.69884Z" fill="#786A62"/>
</g>
<defs>
<clipPath id="clip0_19_8">
<rect width="1473" height="158" fill="white"/>
</clipPath>
</defs>
</svg>
