<svg width="1473" height="158" viewBox="0 0 1473 158" fill="none" xmlns="http://www.w3.org/2000/svg">
<g clip-path="url(#clip0_37_2)">
<rect width="1473" height="158" transform="matrix(-1 0 0 1 1473 0)" fill="#786A62"/>
<rect width="1473" height="158" transform="matrix(-1 0 0 1 1473 0.119141)" fill="#262220"/>
<path d="M676.461 9.85673C705.58 13.8007 725.746 42.257 726.498 80.4658C727.193 115.737 743.104 144.37 767.969 154.125C773.151 156.158 778.804 156.867 784.24 156.87C1013.51 157.008 1243.26 156.996 1473 157C1473.47 105.331 1473 51.74 1473 8.6993e-05C1204.8 8.6993e-05 936.523 -0.428542 668 3.70145e-05C669.232 1.46874 670.911 4.74037 672.391 5.93837C673.817 7.0938 675.11 8.5389 676.461 9.85673Z" fill="#463E39"/>
<path d="M720.489 9.69884C719.549 8.13064 718.171 6.42215 716.651 5.05614C715.074 3.63979 713.36 2.55521 711.547 0.818822C709.56 0.312131 707.731 0.312131 705.254 0.790632C702.028 4.40869 699.613 4.2787 697.5 0C464.992 0 232.508 0.115567 0 0.119351C0 2.73279 0.00012207 5.539 0.00012207 8.93131C239.997 9.71232 479.993 9.71068 720.489 9.69884Z" fill="#463E39"/>
</g>
<defs>
<clipPath id="clip0_37_2">
<rect width="1473" height="158" fill="white" transform="matrix(-1 0 0 1 1473 0)"/>
</clipPath>
</defs>
</svg>
