
<svg width="405" height="557" viewBox="0 0 405 557" fill="none" xmlns="http://www.w3.org/2000/svg">
<path d="M151.953 2.90791C155.312 2.25824 158.645 1.32318 162.036 1.00287C197.29 -2.32744 231.221 2.44609 263.216 18.188C291.194 31.9532 314.354 51.6747 332.245 77.0864C346.387 97.1732 356.163 119.354 361.321 143.655C363.759 155.146 364.984 166.51 364.978 178.16C364.936 258.306 364.774 338.452 365.115 418.596C365.191 436.371 367.864 454.129 376.752 469.913C380.718 476.958 386.778 482.894 392.263 488.996C398.895 496.371 405.59 503.748 404.742 514.474C404.436 518.342 402.106 522.05 400.373 525.518C400.065 522.458 400.372 519.676 400.026 516.977C399.644 513.981 398.666 511.061 397.947 508.108C395.935 509.728 393.604 511.08 391.975 513.022C388.187 517.538 377.066 520.419 374.742 516.646C371.74 511.771 367.378 512.612 363.144 511.829C360.366 511.315 357.713 510.097 355.023 509.141C349.719 507.254 344.935 504.078 338.687 504.993C333.022 505.822 326.779 506.876 323.176 499.96C322.562 498.781 320.146 498.384 318.479 497.939C313.629 496.643 308.451 496.148 303.938 494.136C298.836 491.863 294.346 488.235 289.515 485.319C288.739 484.851 287.514 485.196 286.602 484.869C280.766 482.771 274.673 481.133 269.238 478.259C265.145 476.093 262.004 472.184 258.27 469.269C249.607 462.508 238.016 460.176 231.03 450.667C228.5 447.223 224.311 444.988 220.834 442.258C219.45 441.172 218.054 439.652 216.473 439.361C213.354 438.786 212.06 437.526 211.694 434.226C211.384 431.433 210.095 428.448 205.95 431.055C205.189 431.533 203.136 430.465 201.962 429.686C197.836 426.945 197.366 420.997 191.934 418.994C188.218 417.624 184.54 415.037 181.91 412.055C175.019 404.244 168.714 395.917 162.166 387.803C161.963 387.551 161.689 387.303 161.395 387.183C156.24 385.088 153.022 381.631 152.626 375.763C152.562 374.823 150.579 373.128 149.744 373.274C145.43 374.029 144.866 371.48 144.989 368.35C145.105 365.402 144.606 363.373 141.226 362.382C137.757 361.365 136.616 358.669 137.33 354.882C137.725 352.786 137.355 350.269 136.524 348.279C134.938 344.478 132.75 340.931 130.858 337.255C128.864 333.384 126.815 329.535 124.998 325.581C123.769 322.904 123.276 319.839 121.799 317.333C117.306 309.709 114.367 302.022 116.74 292.869C117.462 290.083 118.391 286.222 114.449 284.004C113.932 283.713 114.297 281.853 114.523 280.929C129.722 291.264 146.251 296.795 164.223 298.696C165.22 296.271 166.111 294.139 166.976 291.997C172.524 278.248 172.527 278.155 187.439 279.033C189.041 279.128 191.228 280.748 191.951 282.238C194.555 287.605 196.649 293.22 198.929 298.726C199.849 298.767 200.531 298.925 201.159 298.804C206.059 297.863 211.03 297.164 215.828 295.844C250.404 286.336 272.972 264.411 283.172 229.992C283.737 228.084 283.428 224.747 282.19 223.773C280.677 222.583 277.584 222.562 275.468 223.129C267.61 225.233 259.965 228.179 252.056 230.023C247.436 231.1 244.571 232.921 243.901 237.719C243.742 238.855 243.034 239.917 242.889 241.052C241.673 250.534 236.79 255.41 226.817 254.131C226.027 254.029 225.147 254.279 224.363 254.534C221.159 255.576 219.427 254.151 218.202 251.282C216.896 248.225 215.406 245.235 213.807 242.319C208.825 233.232 211.642 235.092 201.523 235.315C188.542 235.602 175.538 235.744 162.567 235.29C153.224 234.963 153.241 234.484 148.984 242.562C142.557 254.758 142.57 254.59 128.549 253.449C125.004 253.161 123.743 251.789 122.981 248.625C121.852 243.943 120.507 239.273 118.723 234.811C118.073 233.183 116.109 231.55 114.391 230.974C107.956 228.815 101.375 227.092 95.0357 224.891C96.5351 222.842 97.8471 221.107 99.094 219.458C100.448 219.91 101.807 220.364 103.166 220.818C98.8463 216.71 98.1789 212.608 100.454 207.477C101.135 205.941 100.969 202.628 99.9942 202.005C96.1778 199.57 97.0139 196.089 96.9602 192.723C96.9161 189.96 96.9512 187.195 96.9512 184.573C89.5415 183.189 87.0379 181.112 87.3272 176.911C90.2591 178.258 92.844 180.452 95.4779 180.512C110.089 180.848 124.713 180.754 139.331 180.624C146.405 180.561 149.82 175.03 146.799 168.667C139.829 153.982 132.925 139.26 125.522 124.794C124.246 122.3 120.882 120.097 118.065 119.365C114.447 118.426 111.541 120.838 109.722 124.28C107.604 128.287 105.28 132.185 103.018 135.7C104.414 131.188 105.172 126.682 107.43 123.13C110.259 118.679 109.758 116.02 105.377 113.476C104.424 112.923 103.324 111.277 103.527 110.431C103.764 109.448 105.27 108.614 106.392 108.045C107.346 107.561 108.538 107.543 109.544 107.336C110.864 99.6367 108.704 91.1898 116.288 85.7801C116.784 85.4261 117.074 84.0936 116.818 83.4877C115.236 79.745 116.231 77.1983 119.766 75.1948C120.587 74.7293 120.669 72.8776 120.996 71.6389C121.821 68.5196 122.13 65.1661 123.491 62.3088C125.645 57.7843 128.647 53.6716 130.991 49.2267C132.891 45.6233 132.748 40.6985 138.193 39.5734C138.999 39.4068 139.398 37.1691 139.947 35.8731C141.703 31.7226 142.924 27.2311 145.329 23.5013C147.815 19.6464 149.746 14.3534 156.122 15.0091C156.612 15.0594 157.256 13.6088 157.953 12.6908C156.456 11.4662 155.194 10.4346 152.821 8.49395C158.059 8.04817 161.934 7.71829 165.81 7.38842C165.854 6.73669 165.898 6.08496 165.941 5.43321C164.096 5.15854 162.242 4.93551 160.409 4.59718C157.582 4.07559 154.771 3.475 151.953 2.90791ZM258.434 180.711C261.098 180.733 263.762 180.762 266.426 180.775C274.819 180.814 278.419 175.595 274.835 168.053C267.912 153.487 260.729 139.045 253.661 124.549C252.072 121.29 249.626 119.262 245.871 119.293C241.983 119.326 239.404 121.276 237.708 124.786C230.767 139.158 223.608 153.424 216.774 167.846C213.135 175.524 216.475 180.611 224.971 180.695C235.793 180.803 246.617 180.714 258.434 180.711Z" fill="#F4E9C8"/>
<path d="M114.253 280.721C114.297 281.853 113.932 283.713 114.449 284.004C118.391 286.222 117.462 290.083 116.74 292.869C114.367 302.022 117.306 309.709 121.799 317.333C123.276 319.839 123.769 322.904 124.998 325.581C126.815 329.535 128.864 333.384 130.858 337.255C132.75 340.931 134.938 344.478 136.524 348.279C137.355 350.269 137.725 352.786 137.33 354.882C136.616 358.669 137.757 361.365 141.226 362.382C144.606 363.373 145.105 365.402 144.989 368.35C144.866 371.48 145.43 374.029 149.744 373.274C150.579 373.128 152.562 374.823 152.626 375.763C153.022 381.631 156.24 385.088 161.395 387.183C161.689 387.303 161.963 387.551 162.166 387.803C168.714 395.917 175.019 404.244 181.91 412.055C184.54 415.037 188.218 417.624 191.934 418.994C197.366 420.997 197.836 426.945 201.962 429.686C203.136 430.465 205.189 431.533 205.95 431.055C210.095 428.448 211.384 431.433 211.694 434.226C212.06 437.526 213.354 438.786 216.473 439.361C218.054 439.652 219.45 441.172 220.834 442.258C224.311 444.988 228.5 447.223 231.03 450.667C238.016 460.176 249.607 462.508 258.27 469.269C262.004 472.184 265.145 476.093 269.238 478.259C274.673 481.133 280.766 482.771 286.602 484.869C287.514 485.196 288.739 484.851 289.515 485.319C294.346 488.235 298.836 491.863 303.938 494.136C308.451 496.148 313.629 496.643 318.479 497.939C320.146 498.384 322.562 498.781 323.176 499.96C326.779 506.876 333.022 505.822 338.687 504.993C344.935 504.078 349.719 507.254 355.023 509.141C357.713 510.097 360.366 511.315 363.144 511.829C367.378 512.612 371.74 511.771 374.742 516.646C377.066 520.419 388.187 517.538 391.975 513.022C393.604 511.08 395.935 509.728 397.947 508.108C398.666 511.061 399.644 513.981 400.026 516.977C400.372 519.676 400.065 522.458 400.02 525.593C397.491 532.892 392.368 537.557 386.232 541.446C380.05 534.55 371.678 534.604 363.942 533.13C358.696 532.131 352.901 532.697 348.173 530.659C343.412 528.606 338.99 527.167 333.78 526.571C328.535 525.972 323.528 523.144 318.465 521.167C315.406 519.972 312.533 518.235 309.413 517.272C302.953 515.277 296.096 514.316 289.925 511.699C279.336 507.208 269.535 500.611 258.702 497.008C242.435 491.599 230.994 479.618 217.658 470.18C215.27 468.49 212.449 467.427 209.947 465.881C205.246 462.973 200.19 460.422 196.105 456.794C192.026 453.172 189.015 448.363 185.429 444.166C181.217 439.236 175.292 436.411 171.114 431.041C164.762 422.879 156.627 416.107 149.275 408.72C144.3 403.721 138.641 399.199 134.587 393.534C128.326 384.788 123.168 375.25 117.573 366.03C117.241 365.483 117.239 364.746 116.976 364.145C113.697 356.635 110.581 349.046 107.056 341.652C102.928 332.995 97.8951 324.734 94.2508 315.891C90.1697 305.987 87.0898 295.661 83.811 285.442C82.5544 281.526 81.5111 277.468 85.4303 273.945C86.2133 273.241 86.0536 270.327 85.2451 269.233C82.8545 265.997 79.2295 263.529 77.393 260.068C75.5193 256.537 74.9236 252.227 74.2908 248.175C73.8973 245.657 75.0739 242.844 74.4977 240.412C73.0624 234.352 72.5135 228.029 71.5385 222.021C69.3507 208.539 70.2459 194.552 69.9913 180.768C69.9462 178.326 71.4265 175.33 70.4583 173.526C67.0334 167.144 70.9833 161.443 71.3862 155.48C71.7184 150.562 73.1578 145.73 73.8737 140.825C74.3344 137.67 74.3142 134.446 74.6167 131.264C75.0311 126.902 75.4212 122.531 76.0819 118.204C76.3462 116.473 77.592 114.899 77.894 113.167C79.1878 105.745 80.2933 98.2903 81.4743 90.8488C81.8615 88.4086 81.9164 85.846 82.7316 83.5559C85.7058 75.2008 89.0021 66.9609 92.0362 58.6263C93.0989 55.7073 93.4403 52.5055 94.6562 49.6663C98.1543 41.4984 102.152 33.5372 105.415 25.2819C106.084 23.5891 104.41 20.9706 103.817 18.7787C104.617 18.0769 105.303 17.0615 106.235 16.7215C116.205 13.0858 126.214 9.55687 136.858 6.2413C142.053 6.70024 146.756 7.45685 149.955 2.93567C150.399 2.92404 150.843 2.91241 151.62 2.90436C154.771 3.47501 157.582 4.07559 160.409 4.59718C162.242 4.93551 164.096 5.15854 165.941 5.43321C165.898 6.08496 165.854 6.73669 165.81 7.38842C161.934 7.71829 158.059 8.04817 152.821 8.49395C155.194 10.4346 156.456 11.4662 157.953 12.6908C157.256 13.6088 156.612 15.0594 156.122 15.0091C149.746 14.3534 147.815 19.6464 145.329 23.5013C142.924 27.2311 141.703 31.7226 139.947 35.8731C139.398 37.1691 138.999 39.4068 138.193 39.5734C132.748 40.6985 132.891 45.6233 130.991 49.2267C128.647 53.6716 125.645 57.7843 123.491 62.3088C122.13 65.1661 121.821 68.5196 120.996 71.6389C120.669 72.8776 120.587 74.7293 119.766 75.1948C116.231 77.1983 115.236 79.745 116.818 83.4877C117.074 84.0936 116.784 85.4261 116.288 85.7801C108.704 91.1898 110.864 99.6367 109.544 107.336C108.538 107.543 107.346 107.561 106.392 108.045C105.27 108.614 103.764 109.448 103.527 110.431C103.324 111.277 104.424 112.923 105.377 113.476C109.758 116.02 110.259 118.679 107.43 123.13C105.172 126.682 104.414 131.188 103.023 135.904C103.057 136.538 102.878 136.904 102.458 136.904C100.744 137.34 98.5276 137.505 98.307 138.257C96.9674 142.82 96.0823 147.516 95.0653 152.527C93.1883 156.619 90.7441 160.186 89.5462 164.132C88.3113 168.2 84.7454 171.967 87.0028 176.772C87.0379 181.112 89.5415 183.189 96.9512 184.573C96.9512 187.195 96.9161 189.96 96.9602 192.723C97.0139 196.089 96.1778 199.57 99.9942 202.005C100.969 202.628 101.135 205.941 100.454 207.477C98.1789 212.608 98.8463 216.71 103.166 220.818C101.807 220.364 100.448 219.91 99.094 219.458C97.8471 221.107 96.5351 222.842 94.7082 224.873C93.4037 224.872 92.6141 224.574 91.8108 223.887C89.5178 222.471 87.3114 221.211 84.9433 220.464C80.4312 219.039 79.3232 219.983 78.9609 225.42C80.9994 232.046 82.7348 238.392 85.2007 244.439C91.0691 258.832 101.342 269.886 113.11 280.055C113.568 280.446 113.895 280.595 114.233 280.746C114.244 280.748 114.253 280.721 114.253 280.721ZM88.4327 138.569C88.9115 139.208 89.3904 139.848 89.8692 140.487C90.1624 140.184 90.4556 139.881 90.7488 139.578C90.1392 139.105 89.5295 138.632 88.4327 138.569Z" fill="#F2E4C1"/>
<path d="M103.451 18.8041C104.411 20.9706 106.084 23.5891 105.415 25.2819C102.152 33.5372 98.1543 41.4984 94.6562 49.6663C93.4403 52.5055 93.0989 55.7073 92.0362 58.6263C89.0021 66.9609 85.7058 75.2008 82.7316 83.5559C81.9164 85.846 81.8615 88.4086 81.4743 90.8488C80.2933 98.2903 79.1878 105.745 77.894 113.167C77.592 114.899 76.3462 116.473 76.0819 118.204C75.4212 122.531 75.0311 126.902 74.6167 131.264C74.3142 134.446 74.3344 137.67 73.8737 140.825C73.1578 145.73 71.7184 150.562 71.3862 155.48C70.9833 161.443 67.0334 167.144 70.4583 173.526C71.4265 175.33 69.9462 178.326 69.9913 180.768C70.2459 194.552 69.3507 208.539 71.5385 222.021C72.5135 228.029 73.0624 234.352 74.4977 240.412C75.0739 242.844 73.8973 245.657 74.2908 248.175C74.9236 252.227 75.5193 256.537 77.393 260.068C79.2295 263.529 82.8545 265.997 85.2451 269.233C86.0536 270.327 86.2133 273.241 85.4303 273.945C81.5111 277.468 82.5544 281.526 83.811 285.442C87.0898 295.661 90.1697 305.987 94.2508 315.891C97.8951 324.734 102.928 332.995 107.056 341.652C110.581 349.046 113.697 356.635 116.976 364.145C117.239 364.746 117.241 365.483 117.573 366.03C123.168 375.25 128.326 384.788 134.587 393.534C138.641 399.199 144.3 403.721 149.275 408.72C156.627 416.107 164.762 422.879 171.114 431.041C175.292 436.411 181.217 439.236 185.429 444.166C189.015 448.363 192.026 453.172 196.105 456.794C200.19 460.422 205.246 462.973 209.947 465.881C212.449 467.427 215.27 468.49 217.658 470.18C230.994 479.618 242.435 491.599 258.702 497.008C269.535 500.611 279.336 507.208 289.925 511.699C296.096 514.316 302.953 515.277 309.413 517.272C312.533 518.235 315.406 519.972 318.465 521.167C323.528 523.144 328.535 525.972 333.78 526.571C338.99 527.167 343.412 528.606 348.173 530.659C352.901 532.697 358.696 532.131 363.942 533.13C371.678 534.604 380.05 534.55 385.932 541.598C379.023 547.092 371.492 550.886 362.402 551.539C362.556 549.941 363.082 548.716 363.126 548.615C354.426 546.621 345.892 545.193 337.705 542.65C327.944 539.619 318.505 535.562 308.882 532.075C295.85 527.352 282.555 523.274 269.784 517.937C258.221 513.104 247.158 507.052 235.982 501.327C232.173 499.375 228.583 496.934 225.091 494.44C221.634 491.972 218.586 488.918 215.077 486.535C205.414 479.974 195.603 473.631 185.856 467.194C185.581 467.013 185.352 466.76 185.117 466.525C179.644 461.07 174.204 455.581 168.676 450.182C167.509 449.042 165.96 448.301 164.698 447.244C163.068 445.88 161.441 444.483 160.001 442.927C153.765 436.185 147.719 429.263 141.361 422.64C137.124 418.227 131.534 414.842 128.204 409.886C120.317 398.149 113.385 385.768 106.133 373.608C103.02 368.388 99.4306 363.326 97.1848 357.739C92.8517 346.96 86.1456 337.045 84.8428 325.107C84.7402 324.166 84.2986 323.002 83.6094 322.426C78.9892 318.568 77.5628 313.121 75.8361 307.736C72.6713 297.866 68.5878 288.232 66.1972 278.188C63.3799 266.35 61.7837 254.207 60.0014 242.146C59.2056 236.76 60.219 230.967 58.7272 225.85C54.3013 210.669 59.9261 194.801 54.9943 179.755C54.6987 178.853 54.8621 177.758 54.9748 176.772C55.9549 168.191 56.7117 159.574 58.0369 151.046C60.2789 136.618 58.2023 121.669 63.4184 107.581C64.0989 105.743 62.9033 103.265 63.4108 101.299C65.3412 93.8217 67.5893 86.4251 69.7649 79.0118C72.5007 69.6897 75.7721 60.4889 77.8576 51.0252C79.0831 45.4638 83.094 39.1894 76.9124 33.8222C85.6363 28.8246 94.3603 23.827 103.451 18.8041Z" fill="#F0DEB6"/>
<path d="M76.5712 33.8903C83.094 39.1894 79.0831 45.4638 77.8576 51.0252C75.7721 60.4889 72.5007 69.6897 69.7649 79.0118C67.5893 86.4251 65.3412 93.8217 63.4108 101.299C62.9033 103.265 64.0989 105.743 63.4184 107.581C58.2023 121.669 60.2789 136.618 58.0369 151.046C56.7117 159.574 55.9549 168.191 54.9748 176.772C54.8621 177.758 54.6987 178.853 54.9943 179.755C59.9261 194.801 54.3013 210.669 58.7272 225.85C60.219 230.967 59.2056 236.76 60.0014 242.146C61.7837 254.207 63.3799 266.35 66.1972 278.188C68.5878 288.232 72.6713 297.866 75.8361 307.736C77.5628 313.121 78.9892 318.568 83.6094 322.426C84.2986 323.002 84.7402 324.166 84.8428 325.107C86.1456 337.045 92.8517 346.96 97.1848 357.739C99.4306 363.326 103.02 368.388 106.133 373.608C113.385 385.768 120.317 398.149 128.204 409.886C131.534 414.842 137.124 418.227 141.361 422.64C147.719 429.263 153.765 436.185 160.001 442.927C161.441 444.483 163.068 445.88 164.698 447.244C165.96 448.301 167.509 449.042 168.676 450.182C174.204 455.581 179.644 461.07 185.117 466.525C185.352 466.76 185.581 467.013 185.856 467.194C195.603 473.631 205.414 479.974 215.077 486.535C218.586 488.918 221.634 491.972 225.091 494.44C228.583 496.934 232.173 499.375 235.982 501.327C247.158 507.052 258.221 513.104 269.784 517.937C282.555 523.274 295.85 527.352 308.882 532.075C318.505 535.562 327.944 539.619 337.705 542.65C345.892 545.193 354.426 546.621 363.126 548.615C363.082 548.716 362.556 549.941 361.987 551.512C351.574 555.588 340.858 557.127 329.396 556.504C327.979 555.095 327.215 553.622 326.055 553.175C320.247 550.938 314.411 548.712 308.443 546.969C299.848 544.459 291.697 541.089 283.983 536.523C281.762 535.208 278.967 534.895 276.489 533.976C270.017 531.575 263.363 529.533 257.168 526.545C246.919 521.602 237.746 514.606 226.398 511.673C222.103 510.563 218.293 507.278 214.484 504.66C209.37 501.144 204.643 497.049 199.437 493.686C192.784 489.388 185.376 486.152 179.118 481.379C173.288 476.931 168.892 470.644 163.229 465.93C155.008 459.084 146.438 452.697 140.258 443.761C139.802 443.103 139.082 442.54 138.365 442.163C130.482 438.014 126.106 430.49 120.978 423.793C114.438 415.25 108.3 406.393 102.187 397.534C99.863 394.166 98.042 390.444 96.0792 386.836C94.4997 383.932 93.2014 380.868 91.5142 378.032C88.2135 372.484 84.8825 366.942 81.2875 361.583C73.9186 350.599 75.9706 335.365 65.1351 325.958C64.7107 325.589 64.7169 324.72 64.5328 324.08C61.1113 312.202 57.488 300.377 54.3294 288.43C51.2955 276.954 47.685 265.48 46.2477 253.77C44.4549 239.163 44.8282 224.302 43.8713 209.576C43.348 201.524 41.7942 193.544 41.1182 185.497C40.6951 180.463 40.7923 175.348 41.1093 170.298C41.4397 165.034 42.5305 159.82 42.9072 154.557C43.7468 142.825 44.1563 131.061 45.125 119.341C45.6394 113.117 47.9459 106.901 47.5839 100.791C47.3128 96.217 48.1177 92.5034 49.5654 88.3893C51.1274 83.9507 51.6813 79.157 52.6708 74.5172C53.018 72.8892 52.9623 71.028 53.7635 69.6704C56.6415 64.7935 55.8678 57.4206 51.9459 54.9004C60.0406 47.9197 68.1352 40.9391 76.5712 33.8903Z" fill="#EDD8AE"/>
<path d="M0.91422 330.903C0.637059 326.534 0.359869 322.165 0.321264 317.148C0.411169 315.633 0.262456 314.765 0.113744 313.898C0.0835014 310.869 0.0532591 307.839 0.312902 304.041C0.722448 292.15 0.842138 281.029 1.3538 269.919C2.81394 271.87 4.5882 273.735 4.80808 275.767C5.31666 280.469 4.94367 285.258 5.16086 290.001C5.58622 299.288 13.7203 305.928 13.7091 315.667C13.7039 320.166 16.5566 324.684 18.1824 329.168C20.4911 335.536 22.5938 341.998 25.3005 348.194C27.1934 352.528 30.5183 356.267 32.1978 360.656C35.431 369.105 37.912 377.671 42.3929 385.804C48.017 396.011 52.0839 406.981 59.6824 416.186C64.1211 421.564 67.5164 427.857 70.9839 433.963C73.6461 438.652 76.3734 443.113 80.841 446.345C83.4531 448.235 86.0075 450.276 88.2708 452.563C94.5432 458.901 100.38 465.693 106.9 471.755C113.027 477.453 119.799 482.457 126.306 487.744C127.458 488.68 128.749 489.447 129.895 490.39C135.224 494.776 140.793 498.917 145.766 503.679C151.575 509.24 156.24 516.314 164.886 517.812C171.103 518.889 174.431 523.825 177.826 527.918C179.905 530.425 181.165 532.88 184.602 533.898C187.197 534.666 188.042 536.599 184.972 538.422C184.152 538.91 183.51 539.697 182.786 540.346C168.844 535.489 154.538 531.47 141.034 525.606C110.183 512.21 82.765 493.562 59.6584 468.895C39.7086 447.599 25.1517 422.976 14.51 395.907C8.14454 379.715 4.15748 362.957 1.99991 344.912C1.93351 343.315 1.87244 342.535 1.81138 341.754C1.53174 339.406 1.25211 337.057 1.22153 334.106C1.28516 332.636 1.09968 331.77 0.91422 330.903Z" fill="#DEBB82"/>
<path d="M51.6447 55.0512C55.8679 57.4206 56.6415 64.7935 53.7635 69.6704C52.9623 71.028 53.018 72.8892 52.6708 74.5172C51.6813 79.157 51.1274 83.9507 49.5654 88.3893C48.1177 92.5034 47.3128 96.217 47.5839 100.791C47.9459 106.901 45.6394 113.117 45.125 119.341C44.1563 131.061 43.7468 142.825 42.9072 154.557C42.5305 159.82 41.4397 165.034 41.1093 170.298C40.7923 175.348 40.6951 180.463 41.1182 185.497C41.7942 193.544 43.348 201.524 43.8713 209.576C44.8282 224.302 44.4549 239.163 46.2477 253.77C47.685 265.48 51.2955 276.954 54.3294 288.43C57.488 300.377 61.1113 312.202 64.5328 324.08C64.7169 324.72 64.7107 325.589 65.1351 325.958C75.9706 335.365 73.9186 350.599 81.2875 361.583C84.8825 366.942 88.2135 372.484 91.5142 378.032C93.2014 380.868 94.4997 383.932 96.0792 386.836C98.042 390.444 99.863 394.166 102.187 397.534C108.3 406.393 114.438 415.25 120.978 423.793C126.106 430.49 130.482 438.014 138.365 442.163C139.082 442.54 139.802 443.103 140.258 443.761C146.438 452.697 155.008 459.084 163.229 465.93C168.892 470.644 173.288 476.931 179.118 481.379C185.376 486.152 192.784 489.388 199.437 493.686C204.643 497.049 209.37 501.144 214.484 504.66C218.293 507.278 222.103 510.563 226.398 511.673C237.746 514.606 246.919 521.602 257.168 526.545C263.363 529.533 270.017 531.575 276.489 533.976C278.967 534.895 281.762 535.208 283.983 536.523C291.697 541.089 299.848 544.459 308.443 546.969C314.411 548.712 320.247 550.938 326.055 553.175C327.215 553.622 327.979 555.095 328.934 556.472C318.542 556.714 308.141 556.579 297.32 555.89C290.071 551.543 283.413 547.394 276.37 544.057C268.821 540.478 260.762 537.979 253.192 534.44C242.299 529.348 231.647 523.743 220.892 518.356C215.558 515.684 210.048 513.306 204.941 510.254C199.988 507.293 195.65 503.297 190.681 500.368C183.613 496.203 175.994 493.319 170.12 486.898C162.927 479.035 154.398 472.41 146.635 465.05C140.302 459.046 134.213 452.782 128.083 446.566C125.066 443.507 122.263 440.234 119.25 437.17C116.305 434.177 112.636 431.727 110.296 428.34C102.648 417.271 95.2994 405.985 88.1435 394.589C81.3975 383.846 74.5807 373.101 68.6704 361.895C64.5408 354.066 61.988 345.415 58.5136 337.223C57.3864 334.565 54.9271 332.378 54.1775 329.67C50.006 314.603 46.2295 299.427 42.2072 284.318C38.5971 270.756 34.8879 257.243 34.8686 243.027C34.862 238.171 34.4325 233.29 33.8249 228.468C33.0017 221.935 31.5851 215.472 30.8809 208.93C30.4467 204.896 31.1732 200.745 30.8388 196.69C30.0448 187.063 28.9192 177.463 27.9506 167.85C27.6708 165.073 27.2323 162.284 27.2741 159.507C27.4352 148.793 27.7273 138.079 28.0589 127.368C28.114 125.587 28.0281 123.353 29.0083 122.131C32.1285 118.242 31.99 113.866 32.0143 109.349C32.0247 107.419 32.7357 105.496 33.1093 103.566C33.7296 100.362 34.5724 97.1774 34.8787 93.9429C35.1836 90.7235 34.9135 87.4521 34.952 84.2042C34.9785 81.9675 35.2264 79.6427 31.852 79.868C38.3492 71.646 44.8463 63.424 51.6447 55.0512Z" fill="#E9D2A4"/>
<path d="M183.039 540.585C183.51 539.697 184.152 538.91 184.972 538.422C188.042 536.599 187.197 534.666 184.602 533.898C181.165 532.88 179.905 530.425 177.826 527.918C174.431 523.825 171.103 518.889 164.886 517.812C156.24 516.314 151.575 509.24 145.766 503.679C140.793 498.917 135.224 494.776 129.895 490.39C128.749 489.447 127.458 488.68 126.306 487.744C119.799 482.457 113.027 477.453 106.9 471.755C100.38 465.693 94.5432 458.901 88.2708 452.563C86.0075 450.276 83.4531 448.235 80.841 446.345C76.3734 443.113 73.6461 438.652 70.9839 433.963C67.5164 427.857 64.1211 421.564 59.6824 416.186C52.0839 406.981 48.017 396.011 42.3929 385.804C37.912 377.671 35.431 369.105 32.1978 360.656C30.5183 356.267 27.1934 352.528 25.3005 348.194C22.5938 341.998 20.4911 335.536 18.1824 329.168C16.5566 324.684 13.7039 320.166 13.7091 315.667C13.7203 305.928 5.58622 299.288 5.16086 290.001C4.94367 285.258 5.31666 280.469 4.80808 275.767C4.5882 273.735 2.81395 271.87 1.34575 269.45C0.945936 256.362 0.980177 243.753 0.906996 231.145C0.896895 229.402 0.355482 227.662 0.0600723 225.92C0.0488113 217.886 0.0375199 209.852 0.320601 201.038C0.44969 195.483 0.284376 190.707 0.119063 185.932C0.995405 176.857 1.87169 167.783 3.17454 158.321C4.68455 158.743 6.55571 159.418 6.72087 160.384C7.63792 165.749 9.31187 171.358 8.54283 176.561C6.90922 187.614 11.116 197.892 11.3985 208.707C11.8158 224.685 13.9712 240.655 16.0803 256.536C17.3982 266.46 19.7685 276.267 22.0802 286.029C24.0872 294.504 26.7777 302.814 28.9803 311.246C31.4714 320.782 31.889 330.833 37.5945 339.533C40.437 343.868 41.8078 349.171 43.8144 354.048C44.8193 356.491 45.5496 359.069 46.7637 361.398C50.688 368.928 55.1622 376.194 58.7141 383.89C63.7934 394.895 69.5185 405.409 77.2009 414.848C80.0689 418.372 82.6451 422.215 84.8085 426.208C87.1598 430.549 88.7869 435.076 93.3258 438.06C96.4188 440.094 98.289 443.908 101.242 446.25C107.336 451.082 109.367 459.408 116.668 463.265C119.891 464.967 122.384 468.074 125.152 470.604C127.239 472.511 128.956 474.989 131.323 476.393C141.286 482.303 150.573 488.935 158.083 497.91C163.87 504.827 170.876 510.113 179.492 513.257C182.694 514.425 185.589 516.485 188.548 518.266C194.319 521.739 200.013 525.34 205.791 528.803C207.624 529.903 209.582 530.82 211.549 531.667C221.295 535.867 231.063 540.015 239.939 543.804C243.142 546.543 245.809 548.823 248.645 551.248C246.658 551.778 244.83 552.265 243.003 552.752C241.236 552.494 239.47 552.237 237.119 551.671C235.909 551.263 235.284 551.163 234.658 551.062C217.05 550.087 200.087 545.875 183.039 540.585Z" fill="#E2C28D"/>
<path d="M243.411 552.834C244.83 552.265 246.658 551.778 248.645 551.248C245.809 548.823 243.142 546.543 239.939 543.804C231.063 540.015 221.295 535.867 211.549 531.667C209.582 530.82 207.624 529.903 205.791 528.803C200.013 525.34 194.319 521.739 188.548 518.266C185.589 516.485 182.694 514.425 179.492 513.257C170.876 510.113 163.87 504.827 158.083 497.91C150.573 488.935 141.286 482.303 131.323 476.393C128.956 474.989 127.239 472.511 125.152 470.604C122.384 468.074 119.891 464.967 116.668 463.265C109.367 459.408 107.336 451.082 101.242 446.25C98.289 443.908 96.4188 440.094 93.3258 438.06C88.7869 435.076 87.1598 430.549 84.8085 426.208C82.6451 422.215 80.0689 418.372 77.2009 414.848C69.5185 405.409 63.7934 394.895 58.7141 383.89C55.1622 376.194 50.688 368.928 46.7637 361.398C45.5496 359.069 44.8193 356.491 43.8144 354.048C41.8078 349.171 40.437 343.868 37.5945 339.533C31.889 330.833 31.4714 320.782 28.9803 311.246C26.7777 302.814 24.0872 294.504 22.0802 286.029C19.7685 276.267 17.3982 266.46 16.0803 256.536C13.9712 240.655 11.8158 224.685 11.3985 208.707C11.116 197.892 6.90922 187.614 8.54283 176.561C9.31187 171.358 7.63792 165.749 6.72087 160.384C6.55571 159.418 4.68455 158.743 3.17759 157.939C2.49418 157.455 2.23417 156.966 2.33176 156.132C2.72294 154.791 2.75651 153.796 2.79008 152.8C4.36011 137.511 9.07239 123.124 15.7242 109.272C19.5013 112.863 20.7466 116.637 19.1897 121.6C18.4041 124.104 19.2621 127.161 19.5375 129.952C19.9073 133.699 20.8177 137.431 20.8074 141.168C20.7887 148.035 19.9753 154.903 20.0231 161.767C20.0962 172.249 20.3785 182.743 21.0225 193.204C21.6072 202.704 22.626 212.187 23.773 221.639C24.5445 227.996 27.3444 234.449 26.6675 240.575C24.8412 257.104 30.565 272.273 33.6104 287.894C35.6458 298.335 38.7184 308.605 41.8372 318.795C45.2609 329.981 48.8497 341.155 53.1636 352.019C56.3775 360.112 60.8338 367.715 64.7853 375.512C67.8474 381.554 70.5656 387.823 74.1789 393.521C80.8532 404.045 88.1806 414.152 95.0327 424.566C101.811 434.868 110.142 443.773 118.977 452.279C123.486 456.621 127.605 461.402 132.351 465.458C140.131 472.106 148.345 478.244 156.233 484.769C158.856 486.939 160.726 490.092 163.488 492.005C171.031 497.233 178.875 502.026 186.584 507.017C194.18 511.934 201.73 516.924 209.362 521.786C211.017 522.84 212.93 523.491 214.732 524.312C222.421 527.817 230.164 531.211 237.791 534.846C245.965 538.742 253.235 544.325 262.526 546.164C267.299 547.109 271.595 550.465 276.781 553.07C275.012 554.324 274.011 555.035 273.009 555.745C263.279 554.802 253.549 553.859 243.411 552.834Z" fill="#E5C996"/>
<path d="M273.434 555.813C274.011 555.035 275.012 554.324 276.781 553.07C271.595 550.465 267.299 547.109 262.526 546.164C253.235 544.325 245.965 538.742 237.791 534.846C230.164 531.211 222.421 527.817 214.732 524.312C212.93 523.491 211.017 522.84 209.362 521.786C201.73 516.924 194.18 511.934 186.584 507.017C178.875 502.026 171.031 497.233 163.488 492.005C160.726 490.092 158.856 486.939 156.233 484.769C148.345 478.244 140.131 472.106 132.351 465.458C127.605 461.402 123.486 456.621 118.977 452.279C110.142 443.773 101.811 434.868 95.0327 424.566C88.1806 414.152 80.8532 404.045 74.1789 393.521C70.5656 387.823 67.8474 381.554 64.7853 375.512C60.8338 367.715 56.3775 360.112 53.1636 352.019C48.8497 341.155 45.2609 329.981 41.8372 318.795C38.7184 308.605 35.6458 298.335 33.6104 287.894C30.565 272.273 24.8412 257.104 26.6675 240.575C27.3444 234.449 24.5445 227.996 23.773 221.639C22.626 212.187 21.6072 202.704 21.0225 193.204C20.3785 182.743 20.0962 172.249 20.0231 161.767C19.9753 154.903 20.7887 148.035 20.8074 141.168C20.8177 137.431 19.9073 133.699 19.5375 129.952C19.2621 127.161 18.4041 124.104 19.1897 121.6C20.7466 116.637 19.5013 112.863 15.9871 109.032C16.3235 107.504 16.8159 106.316 17.6308 105.353C18.4434 106.278 18.9334 106.98 19.4234 107.681C19.9211 106.995 20.8702 106.28 20.8291 105.627C20.7202 103.898 20.1831 102.195 19.8164 100.482C23.6371 93.7255 27.4577 86.9695 31.5652 80.0407C35.2264 79.6427 34.9785 81.9675 34.952 84.2042C34.9135 87.4521 35.1836 90.7235 34.8787 93.9429C34.5724 97.1774 33.7296 100.362 33.1093 103.566C32.7357 105.496 32.0247 107.419 32.0143 109.349C31.99 113.866 32.1285 118.242 29.0083 122.131C28.0281 123.353 28.114 125.587 28.0589 127.368C27.7273 138.079 27.4352 148.793 27.2741 159.507C27.2323 162.284 27.6708 165.073 27.9506 167.85C28.9192 177.463 30.0448 187.063 30.8388 196.69C31.1732 200.745 30.4467 204.896 30.8809 208.93C31.5851 215.472 33.0017 221.935 33.8249 228.468C34.4325 233.29 34.862 238.171 34.8686 243.027C34.8879 257.243 38.5971 270.756 42.2072 284.318C46.2295 299.427 50.006 314.603 54.1775 329.67C54.9271 332.378 57.3864 334.565 58.5136 337.223C61.988 345.415 64.5408 354.066 68.6704 361.895C74.5807 373.101 81.3975 383.846 88.1435 394.589C95.2994 405.985 102.648 417.271 110.296 428.34C112.636 431.727 116.305 434.177 119.25 437.17C122.263 440.234 125.066 443.507 128.083 446.566C134.213 452.782 140.302 459.046 146.635 465.05C154.398 472.41 162.927 479.035 170.12 486.898C175.994 493.319 183.613 496.203 190.681 500.368C195.65 503.297 199.988 507.293 204.941 510.254C210.048 513.306 215.558 515.684 220.892 518.356C231.647 523.743 242.299 529.348 253.192 534.44C260.762 537.979 268.821 540.478 276.37 544.057C283.413 547.394 290.071 551.543 296.948 555.71C289.285 556.017 281.572 555.949 273.434 555.813ZM25.7458 95.1552C24.7055 96.1933 23.1632 97.0723 22.7692 98.3153C22.3904 99.5102 23.2004 101.082 23.488 102.488C24.9207 101.607 27.3499 100.916 27.5639 99.8009C27.9303 97.8905 26.911 95.7144 26.4736 93.6498C26.3046 93.9216 26.1355 94.1935 25.7458 95.1552Z" fill="#E7CD9C"/>
<path d="M0.00211338 226.384C0.355476 227.662 0.896895 229.402 0.906996 231.145C0.980177 243.753 0.945931 256.362 0.953774 269.439C0.842141 281.029 0.722451 292.15 0.340096 303.587C0.0329975 278.218 -0.0114056 252.532 0.00211338 226.384Z" fill="#E9D2A4"/>
<path d="M149.535 2.92493C146.756 7.45685 142.053 6.70024 137.233 6.20718C141.014 4.925 145.064 3.91959 149.535 2.92493Z" fill="#F4E9C8"/>
<path d="M19.541 100.719C20.1831 102.195 20.7202 103.898 20.8291 105.627C20.8702 106.28 19.9211 106.995 19.4234 107.681C18.9334 106.98 18.4434 106.278 17.9306 105.192C18.3604 103.524 18.813 102.24 19.541 100.719Z" fill="#E5C996"/>
<path d="M0.0506435 186.39C0.284378 190.707 0.449691 195.483 0.354904 200.569C0.0573268 196.203 0.0197905 191.526 0.0506435 186.39Z" fill="#E9D2A4"/>
<path d="M0.703144 331.108C1.09966 331.77 1.28514 332.636 1.23781 333.697C0.834034 333.032 0.663044 332.173 0.703144 331.108Z" fill="#E9D2A4"/>
<path d="M2.54477 153.028C2.7565 153.796 2.72293 154.791 2.36808 155.838C2.13098 155.011 2.21524 154.134 2.54477 153.028Z" fill="#E2C28D"/>
<path d="M0.0432065 314.272C0.262446 314.765 0.411157 315.633 0.352716 316.704C0.0879448 316.153 0.0303285 315.399 0.0432065 314.272Z" fill="#E9D2A4"/>
<path d="M1.61361 341.987C1.87243 342.535 1.9335 343.315 1.98348 344.486C1.78686 343.991 1.60137 343.106 1.61361 341.987Z" fill="#E9D2A4"/>
<path d="M234.885 551.287C235.284 551.163 235.909 551.263 236.737 551.614C236.33 551.746 235.721 551.629 234.885 551.287Z" fill="#E5C996"/>
<path d="M91.8243 224.276C92.614 224.574 93.4037 224.872 94.5209 225.188C101.375 227.092 107.956 228.815 114.391 230.974C116.109 231.55 118.073 233.183 118.723 234.811C120.507 239.273 121.852 243.943 122.981 248.625C123.743 251.789 125.004 253.161 128.549 253.449C142.57 254.59 142.557 254.758 148.984 242.562C153.241 234.484 153.224 234.963 162.567 235.29C175.538 235.744 188.542 235.602 201.523 235.315C211.642 235.092 208.825 233.232 213.807 242.319C215.406 245.235 216.896 248.225 218.202 251.282C219.427 254.151 221.159 255.576 224.363 254.534C225.147 254.279 226.027 254.029 226.817 254.131C236.79 255.41 241.673 250.534 242.889 241.052C243.034 239.917 243.742 238.855 243.901 237.719C244.571 232.921 247.436 231.1 252.056 230.023C259.965 228.179 267.61 225.233 275.468 223.129C277.584 222.562 280.677 222.583 282.19 223.773C283.428 224.747 283.737 228.084 283.172 229.992C272.972 264.411 250.404 286.336 215.828 295.844C211.03 297.164 206.059 297.863 201.159 298.804C200.531 298.925 199.849 298.767 198.929 298.726C196.649 293.22 194.555 287.605 191.951 282.238C191.228 280.748 189.041 279.128 187.439 279.033C172.527 278.155 172.524 278.248 166.976 291.997C166.111 294.139 165.22 296.271 164.223 298.696C146.251 296.795 129.722 291.264 114.523 280.929C114.253 280.721 114.244 280.748 114.112 280.495C113.647 280.099 113.313 279.956 112.979 279.813C101.342 269.886 91.0691 258.832 85.2007 244.439C82.7348 238.392 80.9994 232.046 79.3065 225.309C81.6427 222.061 83.9832 221.145 87.1822 222.834C88.5906 223.578 90.2687 223.811 91.8243 224.276Z" fill="#1B2828"/>
<path d="M87.3272 176.911C84.7454 171.967 88.3113 168.2 89.5462 164.132C90.7441 160.186 93.1883 156.619 95.3867 152.347C98.0849 146.84 100.481 141.872 102.878 136.904C102.878 136.904 103.057 136.538 103.051 136.334C105.28 132.185 107.604 128.287 109.722 124.28C111.541 120.838 114.447 118.426 118.065 119.365C120.882 120.097 124.246 122.3 125.522 124.794C132.925 139.26 139.829 153.982 146.799 168.667C149.82 175.03 146.405 180.561 139.331 180.624C124.713 180.754 110.089 180.848 95.4779 180.512C92.844 180.452 90.2591 178.258 87.3272 176.911Z" fill="#1B2828"/>
<path d="M257.937 180.71C246.617 180.714 235.793 180.803 224.971 180.695C216.475 180.611 213.135 175.524 216.774 167.846C223.608 153.424 230.767 139.158 237.708 124.786C239.404 121.276 241.983 119.326 245.871 119.293C249.626 119.262 252.072 121.29 253.661 124.549C260.729 139.045 267.912 153.487 274.835 168.053C278.419 175.595 274.819 180.814 266.426 180.775C263.762 180.762 261.098 180.733 257.937 180.71Z" fill="#1B2828"/>
<path d="M102.458 136.904C100.481 141.872 98.0849 146.84 95.3669 151.988C96.0823 147.516 96.9674 142.82 98.307 138.257C98.5276 137.505 100.744 137.34 102.458 136.904Z" fill="#F4E9C8"/>
<path d="M91.8108 223.887C90.2687 223.811 88.5906 223.578 87.1822 222.834C83.9832 221.145 81.6427 222.061 79.3355 224.893C79.3232 219.983 80.4312 219.039 84.9433 220.464C87.3114 221.211 89.5178 222.471 91.8108 223.887Z" fill="#F4E9C8"/>
<path d="M88.6763 138.363C89.5295 138.632 90.1392 139.105 90.7488 139.578C90.4556 139.881 90.1624 140.184 89.8692 140.487C89.3904 139.848 88.9115 139.208 88.6763 138.363Z" fill="#F4E9C8"/>
<path d="M113.11 280.055C113.313 279.956 113.647 280.099 114.102 280.493C113.895 280.595 113.568 280.446 113.11 280.055Z" fill="#F4E9C8"/>
<path d="M25.8561 94.8102C26.1355 94.1935 26.3046 93.9216 26.4736 93.6498C26.911 95.7144 27.9303 97.8905 27.5639 99.8009C27.3499 100.916 24.9207 101.607 23.488 102.488C23.2004 101.082 22.3904 99.5102 22.7692 98.3153C23.1632 97.0723 24.7055 96.1933 25.8561 94.8102Z" fill="#E5C996"/>
</svg>
