
<svg width="1473" height="944" viewBox="0 0 1473 944" fill="none" xmlns="http://www.w3.org/2000/svg">
<g clip-path="url(#clip0_14_127)">
<rect width="1473" height="944" transform="translate(0.000610352)" fill="#262220"/>
<path d="M0.0928955 2.87799L1473 3V514.381H0.0928955V2.87799Z" fill="#A7958B"/>
<path d="M797.041 8.22638C767.943 12.2213 747.793 41.0452 747.041 79.7476C746.347 115.475 730.447 144.478 705.601 154.359C700.423 156.418 694.774 157.136 689.342 157.139C460.238 157.279 229.665 157.369 0.0928238 157.374C-0.375801 105.037 -0.406799 52.7589 -0.406799 0.350633C267.597 0.350633 537.218 -0.241187 805.542 0.192929C804.311 1.6806 802.587 3.04392 801.109 4.2574C799.683 5.42776 798.391 6.89153 797.041 8.22638Z" fill="#262220"/>
<path d="M753.046 9.58812C753.985 8.0185 755.362 6.30847 756.882 4.94122C758.457 3.5236 760.17 2.43803 761.981 0.700081C763.967 0.192932 765.794 0.192932 768.269 0.671866C771.493 4.29319 773.883 4.4755 775.995 0.192932C1008.33 0.192932 1240.67 0.192932 1473 0.19672C1473 2.81252 1473 5.42452 1473 8.8199C1233.18 9.60161 993.364 9.59997 753.046 9.58812Z" fill="#262220"/>
<path d="M1199.66 660.082C1198.88 659.896 1198.48 659.672 1197.86 659.468C1193.04 652.955 1195.09 645.296 1195.76 638.198C1196.16 634.033 1201.24 633.383 1203.84 636.638C1206.7 640.227 1206.27 655.803 1203.1 658.877C1202.32 659.635 1201.08 659.675 1199.66 660.082Z" fill="#4D3026"/>
<path d="M1199.11 491.923C1198.33 491.785 1197.93 491.618 1197.31 491.466C1192.5 486.614 1194.54 480.908 1195.22 475.62C1195.61 472.517 1200.61 471.496 1203.2 473.921C1206.06 476.595 1205.71 488.736 1202.55 491.026C1201.77 491.591 1200.53 491.62 1199.11 491.923Z" fill="#4D3026"/>
<path d="M2.34246e-05 802.09C2.34246e-05 654.047 -0.375478 505.913 0.0928289 357.403C229.51 356.931 459.926 356.921 688.874 356.816C694.303 356.814 699.947 356.279 705.122 354.745C729.951 347.384 745.84 325.778 746.534 299.162C747.285 270.33 767.422 248.857 796.968 245.887C1022.29 245.895 1248.15 245.999 1473 246C1473 298.695 1473.45 362.795 1473 416C1470.08 416.559 1465.94 404.507 1463.77 405.33C1461.91 406.038 1459.43 408.309 1459.43 409.884C1459.43 411.503 1461.85 413.921 1463.69 414.536C1466.22 415.381 1470.21 414.937 1473 415C1473 527.037 1473.47 640.523 1473 753C1422.57 753.43 1371.14 751.858 1321.18 751.934C1315.21 751.943 1309.18 752.214 1303.27 753.041C1274.9 757.009 1248.64 766.585 1225.92 784.332C1215.05 792.82 1205.38 802.831 1194.63 811.494C1163.12 836.908 1126.98 849.108 1086.46 848.995C1019.18 848.807 951.897 848.94 884.614 849.039C867.951 849.063 851.834 852.553 836.358 858.518C815.962 866.38 798.858 879.094 783.867 894.97C769.945 909.713 753.226 920.4 734.276 927.75C717.221 934.364 699.431 936.667 681.414 936.803C636.784 937.14 592.147 936.702 547.519 937.127C537.467 937.223 536.708 939.955 526.702 941.49C525.021 941.748 514.274 942.962 512.713 944C412.1 944 311.487 944 210.398 943.554C209.598 939.642 209.153 936.181 208.979 932.707C208.756 928.248 206.001 925.458 202.337 924.238C198.981 923.12 195.155 923.478 191.565 922.975C189.336 922.663 186.81 922.499 185.022 921.337C175.913 915.42 166.336 911.12 155.212 912.13C152.707 912.358 148.929 913.442 148.248 915.141C147.39 917.281 148.61 920.703 149.811 923.138C153.297 930.208 157.221 937.062 160.973 944C107.761 944 53.4571 944 -6.3777e-06 944C-6.3777e-06 902.307 -0.466382 844.301 2.34246e-05 802.09C9.9547 801.565 21.0014 817.87 30.4897 817.861C31.9878 817.86 33.4878 817.896 34.9839 817.837C40.8479 817.605 32.1043 831.736 32 827C31.8931 822.15 37.6013 822.067 32 822C20.6817 821.865 11.3196 802.116 2.34246e-05 802.09ZM1007.84 825.567C1008.02 826.03 1008.06 826.639 1008.39 826.929C1009.45 827.864 1010.62 828.682 1011.74 829.546C1011.97 828.169 1012.38 826.79 1012.36 825.417C1012.35 824.706 1011.58 824.007 1011.48 822.666C1012.16 821.676 1012.85 820.687 1014.18 819.677C1015.16 819.304 1016.15 818.931 1017.18 819.413C1016.87 822.315 1016.55 825.217 1016.12 829.243C1018.99 828.842 1022.11 829.359 1023.34 828.071C1028.37 822.762 1029.33 815.678 1030.15 808.717C1030.26 807.709 1029.7 806.389 1029.02 805.564C1027.17 803.3 1025.09 801.223 1022.62 798.737C1021.68 798.624 1020.74 798.511 1019.17 797.922C1016.39 796.577 1013.64 795.146 1010.8 793.917C1008.88 793.086 1006.88 792.211 1004.84 791.953C1002.71 791.684 1000.49 792.131 997.665 792.194C997.23 792.227 996.795 792.26 995.862 791.813C994.597 790.754 993.275 789.756 992.076 788.627C987.292 784.127 983.853 784.284 979.712 789.124C978.651 790.365 977.436 791.566 976.071 792.439C971.128 795.601 969.828 800.325 973.351 804.954C975.977 808.403 974.726 810.19 971.718 812.133C970.606 812.85 969 814.954 969.209 815.234C971.226 817.93 973.306 820.757 975.983 822.693C977.018 823.441 979.63 822.003 982.128 821.733C982.538 821.821 982.948 821.91 983.487 822.662C983.233 824.242 982.508 825.932 982.844 827.374C983.256 829.146 984.838 832.236 985.423 832.127C990.526 831.171 993.051 834.829 996.478 837.205C997.885 838.18 1000.84 837.854 1002.59 837.043C1003.66 836.55 1004.23 833.99 1004.2 832.371C1004.16 829.464 1003.51 826.567 1003.21 823.316C1003.21 823.316 1003.35 822.978 1003.91 823.33C1005.1 823.871 1006.29 824.411 1007.84 825.567ZM1068.81 516.068C1068.16 516.675 1067.5 517.282 1066.34 518.303C1064.34 521.832 1065.79 525.062 1068.86 526.04C1071.3 526.813 1075.1 526.006 1077.18 524.431C1079.49 522.673 1080.14 519.254 1077.35 516.55C1074.9 514.17 1072.36 512.555 1068.81 516.068ZM867.401 798.059C866.858 798.776 866.314 799.493 865.409 800.879C863.94 806.205 865.222 810.066 869.222 811.9C873.086 813.67 876.509 812.748 878.941 809.387C881.472 805.89 881.211 802.104 878.578 798.747C876.371 795.932 871.34 795.658 867.401 798.059ZM1159.84 588.373C1158.16 595.945 1156.18 603.466 1154.89 611.104C1153.58 618.805 1154.62 619.893 1162.26 621.481C1163.55 621.749 1164.9 621.76 1166.17 622.088C1168.91 622.793 1170.64 621.813 1172.29 619.352C1183.27 620.906 1194.25 622.459 1205.43 624.172L1205.81 624.236C1205.81 624.236 1206.17 624.11 1207.01 624.118C1208.13 624.122 1209.24 624.126 1210.54 624.673C1210.51 625.051 1210.48 625.429 1209.52 625.844C1195.13 628.216 1180.69 630.339 1166.39 633.186C1163.76 633.711 1161.71 637.167 1159.39 639.271C1161.42 641.191 1163.34 643.266 1165.55 644.969C1166.67 645.839 1168.27 646.262 1169.72 646.514C1178.88 648.101 1188 649.978 1197.22 651.028C1224.72 654.16 1252.28 654.181 1279.73 650.768C1289.69 649.529 1299.49 646.738 1309.23 644.165C1311.11 643.669 1313.68 640.829 1313.59 639.185C1313.51 637.429 1310.93 634.846 1308.98 634.293C1299.25 631.549 1289.4 629.217 1279.54 627.018C1273.43 625.656 1267.21 624.79 1261.9 623.656C1262.88 623.544 1263.86 623.425 1264.83 623.32C1275.26 622.206 1285.68 621.095 1296.31 620.752C1301.31 623.596 1306.22 621.605 1310.2 619.108C1311.91 618.039 1312.31 613.426 1311.89 610.641C1308.44 588.065 1302.73 566.321 1287.11 548.568C1286.53 547.899 1286.42 546.805 1286.98 545.913C1295.37 545.393 1303.39 543.65 1310.52 538.871C1313.98 536.553 1314.93 534.306 1312.27 530.292C1309.67 526.376 1307.03 521.728 1306.69 517.229C1306 508.199 1306.87 499.052 1307.13 489.227C1311.72 482.053 1312.02 474.886 1306.96 466.84C1306.77 463.124 1306.41 459.406 1306.46 455.693C1306.48 454.405 1307.52 453.131 1308.91 451.941C1314.1 450.843 1319.43 450.159 1324.44 448.512C1328.19 447.279 1333.83 445.427 1334.56 442.746C1335.83 438.061 1330.15 435.87 1326.47 434.029C1313.84 427.711 1300.99 421.824 1288.12 415.041C1285.65 409.097 1283.18 403.153 1280.36 396.438C1277.87 388.847 1275.39 381.253 1272.88 373.666C1268.82 361.36 1268.76 361.293 1278.82 352.867C1279.99 351.89 1282.43 351.544 1283.93 352.019C1289.79 353.877 1295.48 356.274 1301.3 358.263C1302.98 358.838 1304.9 358.719 1308.35 359.098C1306.13 355.496 1305.01 353.141 1303.41 351.173C1297.94 344.458 1292.29 337.897 1286.76 331.242C1283.24 327.017 1278.75 325.267 1273.42 326.244C1259.68 328.761 1245.95 331.325 1232.27 334.118C1226.99 335.196 1222.8 338.342 1220.25 343.153C1210.74 361.095 1201.35 379.101 1191.45 397.484C1188.35 403.584 1185.25 409.684 1181.45 416.023C1176.49 417.981 1171.4 419.653 1166.61 421.957C1157.18 426.499 1147.8 431.196 1138.64 436.28C1136.48 437.484 1135.3 440.472 1133.67 442.639C1135.71 444.172 1137.55 446.416 1139.84 447.104C1146.52 449.104 1153.38 450.481 1160.17 452.915C1159.87 457.494 1159.57 462.072 1159.02 467.318C1152.48 476.326 1152.87 483.271 1160.22 491.96C1160.26 493.779 1160.16 495.615 1160.37 497.416C1161.81 510.253 1161.16 522.596 1151.68 532.749C1149.61 528.258 1148.19 523.282 1145.3 519.4C1141.8 514.682 1137.11 510.824 1132.82 506.714C1130.17 504.178 1126.73 505.216 1126.13 508.865C1125.83 510.693 1126.06 513.08 1127.04 514.56C1130.03 519.094 1133.7 523.182 1136.73 527.699C1138.68 530.612 1140.12 533.906 1141.51 537.148C1143.51 541.81 1145.01 546.698 1147.16 551.28C1150.67 558.728 1154.54 566.007 1158.19 574.237C1156.85 579.083 1156.79 583.727 1159.84 588.373ZM1064.09 534.907C1063.04 533.161 1062.19 530.127 1060.91 529.938C1058.29 529.549 1055.35 530.396 1052.74 531.313C1051.37 531.795 1050.43 533.497 1048.1 534.678C1047.31 534.612 1046.52 534.546 1046.07 533.836C1046.38 532.887 1046.96 531.932 1046.94 530.99C1046.89 529.003 1046.76 526.949 1046.15 525.094C1046 524.655 1043.12 524.366 1042.7 524.918C1041.54 526.466 1041.13 528.559 1040.18 530.305C1039.37 531.801 1038.23 533.116 1036.17 534.635C1034.4 534.634 1032.63 534.634 1030.81 534.052C1027.95 530.539 1026.25 532.979 1023.61 535.515C1011.49 537.309 999.319 538.861 987.261 541.032C983.3 541.746 979.316 543.578 975.897 545.767C971.105 548.835 970.954 553.198 974.679 557.574C975.308 558.313 975.809 559.16 975.926 560.498C974.895 562.957 973.865 565.417 972.42 568.387C971.282 570.977 969.901 573.491 969.063 576.175C967.857 580.035 966.206 582.532 961.646 583.546C955.528 584.905 952.402 589.986 951.7 596.024C951.018 601.888 952.806 608.245 958.402 609.821C966.231 612.025 967.628 617.752 969.682 623.761C970.163 625.169 970.749 626.627 971.636 627.796C977.539 635.568 983.537 643.268 989.226 651.654C987.532 657.132 985.426 662.249 978.004 663.292C970.958 665.025 963.759 666.31 956.923 668.654C952.669 670.113 952.779 673.528 956.615 676.034C957.984 676.927 959.544 677.709 961.124 678.066C968.742 679.787 976.332 682.225 984.051 682.798C1007.88 684.564 1031.75 686.317 1055.62 686.665C1072.18 686.907 1088.83 685.363 1105.33 683.572C1115.17 682.503 1124.84 679.57 1134.48 677.088C1136.19 676.648 1138.22 674.473 1138.58 672.776C1138.84 671.54 1136.87 668.798 1135.43 668.408C1128.29 666.465 1120.99 665.078 1113.07 663.3C1106.39 661.948 1104.77 656.447 1103.3 650.398C1113.87 640.564 1121.71 629.055 1125.44 614.909C1125.75 613.731 1127.58 612.502 1128.94 612.131C1135.21 610.412 1139.13 606.541 1140.12 600.13C1141.17 593.318 1138.67 586.929 1132.57 584.7C1125.47 582.107 1123.58 576.769 1121.21 571.043C1120.46 569.213 1119.38 567.513 1118.3 565.078C1117.58 563.37 1116.86 561.663 1116.27 559.247C1121.89 550.948 1120.83 547.388 1111.48 543.29C1110.72 542.959 1109.97 542.528 1109.17 542.393C1096.51 540.263 1083.85 538.173 1070.45 535.967C1068.27 535.8 1066.08 535.634 1064.09 534.907ZM867.384 697.222C866.984 695.229 867.129 692.008 866.055 691.53C864.424 690.804 861.774 691.589 859.866 692.433C856.01 694.137 849.655 692.647 848.924 688.863C847.076 679.296 841.276 674.993 831.996 674.411C830.859 674.34 829.755 673.797 828.626 673.511C821.05 671.594 813.502 669.548 805.883 667.816C797.963 666.016 793.543 668.42 791.544 676.123C789.331 684.653 787.539 693.311 786.002 701.991C784.923 708.084 788.5 712.545 794.582 713.88C804.328 716.021 814.168 717.84 823.761 720.533C831.082 722.588 836.382 720.429 841.014 715.012C844.264 711.21 851.633 711.492 854.867 715.465C858.9 720.419 861.208 720.14 864.763 714.479C872.6 717.643 872.985 717.447 874.923 709.298C877.163 699.877 877.163 699.877 867.384 697.222ZM682.672 792.381C671.86 784.803 659.525 783.082 646.945 784.452C635.15 785.737 625.032 791.136 618.024 801.195C613.535 807.638 614.905 814.639 622.3 817.074C631.023 819.946 640.266 821.849 649.417 822.652C660.04 823.584 670.543 822.016 680.501 817.228C690.632 812.358 691.327 798.66 682.672 792.381ZM1323.22 693.646C1326.4 690.508 1329.5 687.325 1330.79 682.773C1327.38 684.693 1324.76 687.278 1322.08 689.809C1319.01 692.709 1315.62 694.356 1310.73 692.289C1312.4 688.346 1314.15 684.631 1315.49 680.773C1315.94 679.503 1315.32 677.863 1315.19 676.393C1314.01 677.32 1312.44 678.016 1311.73 679.22C1309.88 682.369 1308.55 685.829 1306.73 689.002C1304.15 693.507 1301.31 697.865 1298.58 702.286C1297.16 696.366 1296.07 690.9 1296.57 685.582C1297.04 680.51 1299.16 675.591 1300.84 669.593C1299.19 670.842 1298.24 671.386 1297.51 672.144C1292.73 677.082 1292.15 683.051 1292.2 689.69C1292.26 696.721 1292.37 704.546 1289.47 710.601C1286.07 717.737 1279.49 723.366 1274.22 729.59C1273.67 730.238 1272.65 730.49 1271.55 731.088C1271.31 730.035 1270.99 729.411 1271.05 728.824C1272.04 718.822 1270.16 707.962 1279.59 700.459C1280.56 699.686 1281.13 698.272 1281.62 697.047C1282.32 695.257 1282.78 693.369 1283.35 691.523C1282.91 691.338 1282.48 691.154 1282.04 690.97C1279.1 694.881 1276.15 698.793 1273.2 702.705C1272.53 702.503 1271.86 702.302 1271.19 702.101C1271.19 695.372 1271.28 688.64 1271.13 681.915C1271.1 680.278 1270.28 678.659 1269.82 677.032C1269.32 677.174 1268.83 677.316 1268.33 677.457C1267.99 680.537 1267.86 683.657 1267.26 686.684C1266.78 689.129 1265.73 691.463 1264.93 693.846C1262.86 692.688 1260.8 691.515 1258.71 690.393C1258.48 690.27 1258.09 690.441 1256.29 690.641C1258.15 692.94 1259.22 695.667 1260.96 696.195C1268.74 698.55 1268.09 704.052 1267.06 710.086C1266.53 713.196 1266.65 716.409 1266.22 719.541C1264.21 734.276 1258.81 746.573 1242.99 751.177C1242.35 751.363 1241.75 751.662 1241.13 751.9C1237.85 753.156 1235.27 755.237 1236.67 759.004C1238.26 763.312 1241.73 761.784 1244.67 760.55C1256.5 755.596 1267.14 748.667 1275.75 739.229C1281.03 733.438 1287.33 730.642 1294.56 728.944C1300.06 727.654 1305.5 726.149 1310.98 724.797C1314.91 723.828 1318.85 722.884 1322.81 722.067C1325.03 721.609 1327.31 721.431 1329.57 721.126C1329.54 720.582 1329.52 720.038 1329.49 719.494C1326.26 719.081 1323.03 718.669 1318.78 718.126C1322.37 714.023 1325.24 710.752 1328.1 707.482C1327.64 707.064 1327.18 706.647 1326.73 706.23C1321.37 710.81 1316.6 716.577 1310.48 719.636C1304.35 722.699 1296.88 723.056 1289.99 724.6C1295.58 715.329 1301.26 707.363 1307.18 699.583C1307.99 698.51 1310 698.3 1311.49 697.795C1315.21 696.538 1318.94 695.341 1323.22 693.646ZM1063.82 468.036C1059.94 465.537 1056.14 462.884 1052.14 460.57C1044.89 456.374 1044.11 449.84 1050.38 444.403C1051 443.858 1051.74 443.435 1052.33 442.852C1055.26 439.931 1054.78 437.116 1051 435.424C1042 431.385 1023.99 436.448 1023.31 452.017C1022.89 461.609 1026.79 466.921 1037.54 471.096C1041.53 472.645 1045.52 474.411 1046.1 479.234C1046.67 484.05 1042.34 485.387 1039.29 487.526C1039.02 487.717 1038.71 487.854 1038.43 488.028C1032.68 491.537 1030.39 496.617 1031.35 503.286C1032.57 511.865 1043.07 518.852 1050.46 515.641C1049.64 514.545 1048.92 513.458 1048.08 512.464C1042.26 505.565 1043.22 499.435 1050.97 494.638C1054.07 492.714 1057.49 491.244 1060.44 489.118C1067.81 483.808 1069.09 476.416 1063.82 468.036ZM1016.93 749.012C1009.16 745.923 1006.39 742.388 1007.06 735.894C1008.67 736.092 1010.28 736.263 1011.88 736.491C1019.95 737.641 1028.01 738.908 1036.11 739.861C1037.38 740.012 1038.83 738.768 1040.19 738.168C1039 737.124 1037.9 735.958 1036.59 735.089C1035.97 734.676 1034.96 734.886 1034.15 734.717C1020.33 731.829 1006.51 728.94 992.705 725.995C991.725 725.786 990.839 725.135 989.91 724.689C989.938 724.222 989.967 723.755 989.995 723.288C1004.72 719.36 1019.52 716.026 1035.16 719.055C1027.66 711.745 1018.39 714.437 1008.53 714.786C1011.46 711.234 1013.46 708.801 1015.47 706.369C1014.9 705.824 1014.34 705.279 1013.77 704.733C1011.36 706.926 1008.36 708.746 1006.69 711.406C1004.66 714.663 1002.12 715.634 998.632 716.228C994.081 717.004 989.475 718.107 985.241 719.897C981.941 721.293 979.104 721.694 975.72 720.544C963.995 716.558 952.24 716.986 940.32 720.109C933.276 721.954 925.988 722.902 918.78 724.068C915.891 724.535 912.595 724.555 912.953 728.535C913.312 732.526 916.734 732.297 919.53 731.885C926.602 730.842 933.619 729.433 940.687 728.363C944.611 727.768 949.452 725.935 952.382 727.488C960.182 731.622 968.052 736.411 974.215 742.611C979.642 748.07 982.705 755.85 987.007 762.477C988.664 765.03 990.86 767.231 992.81 769.592C993.271 769.262 993.732 768.931 994.193 768.601C992.214 764.715 990.234 760.829 987.768 755.988C992.687 756.919 996.104 757.566 999.521 758.213C999.688 757.487 999.854 756.76 1000.02 756.034C997.167 755.008 994.349 753.86 991.45 752.982C985.875 751.295 981.551 748.608 980.273 742.259C979.41 737.967 976.533 735.043 972.459 733.116C969.947 731.928 967.79 729.99 965.474 728.388C965.703 727.911 965.932 727.433 966.161 726.955C967.887 727.12 969.661 727.083 971.33 727.485C978.933 729.312 986.475 731.406 994.105 733.108C997.89 733.953 1000.22 735.709 1001.41 739.555C1004.49 749.519 1012.84 752.212 1021.87 753.715C1022.44 753.809 1023.14 753.074 1024.7 752.222C1021.79 751.009 1019.71 750.144 1016.93 749.012ZM1162.05 701.704C1155.47 700.485 1143.15 707.361 1138.97 714.589C1135.27 720.985 1137.33 725.284 1144.46 726.067C1145.1 726.138 1145.73 726.388 1146.36 726.534C1150.93 727.576 1155.48 728.676 1160.06 729.595C1160.95 729.773 1161.99 729.249 1162.95 729.021C1169.01 727.586 1175.07 726.162 1181.12 724.691C1182.94 724.249 1184.73 723.67 1185.89 723.339C1185.89 720.277 1186.17 718.072 1185.79 715.987C1185.52 714.535 1184.69 712.661 1183.52 711.987C1176.88 708.146 1171.09 702.434 1162.05 701.704ZM1103.96 762.118C1102.97 762.652 1101.35 762.98 1101.1 763.755C1099.72 767.954 1098.68 772.263 1097.36 777.133C1103.14 778.507 1108.13 780.346 1113.23 780.709C1117.83 781.037 1122.77 780.452 1127.15 779.001C1132.92 777.084 1134.76 777.907 1134.81 783.916C1134.81 785.07 1135.98 786.818 1137.02 787.193C1138.07 787.576 1139.85 786.892 1140.83 786.089C1141.25 785.743 1140.39 783.929 1140.25 782.764C1139.81 779.183 1137.53 775.708 1140.53 772.009C1143.83 767.946 1141.88 763.452 1136.96 762.136C1134.93 761.595 1132.84 760.337 1131.37 758.823C1126.41 753.68 1121.04 752.983 1114.8 756.772C1111.57 758.733 1108.09 760.274 1103.96 762.118ZM796.297 764.791C795.109 763.383 793.92 761.975 791.838 759.508C791.838 764.423 791.838 768.383 791.838 772.944C788.404 769.403 784.512 771.292 783.487 773.746C782.384 776.387 784.062 780.191 784.532 783.531C783.38 783.339 782.208 783.145 780.935 782.933C779.346 788.994 788.151 793.73 781.839 800.087C785.398 795.914 789.243 795.411 793.863 796.026C796.993 796.443 801.033 796.312 799.28 790.815C799.09 790.22 799.771 789.346 800.11 788.436C804.138 788.948 808.292 790.698 811.922 786.367C809.451 785.654 807.475 785.084 804.827 784.32C807.115 782.301 808.965 780.668 811.128 778.759C809.172 778.021 807.799 777.504 805.79 776.746C809.98 774.174 813.499 772.014 817.017 769.855C816.754 769.369 816.491 768.884 816.228 768.399C814.408 768.617 812.587 768.835 809.784 769.17C811.971 764.793 813.78 761.172 815.589 757.55C814.876 757.184 814.164 756.817 813.451 756.45C810.842 761.461 808.233 766.472 805.375 771.959C800.267 766.398 809.379 762.498 806.399 756.974C803.172 759.91 803.068 766.473 796.297 764.791ZM878.942 793.364C880.351 792.948 881.927 792.806 883.138 792.066C887.013 789.697 888.21 784.474 885.945 780.7C883.545 776.702 878.621 775.306 874.711 777.515C870.867 779.687 869.016 785.079 871.59 788.708C873.057 790.776 875.958 791.826 878.942 793.364ZM894.182 806.231C898.268 806.233 901.87 804.586 902.367 800.517C902.718 797.641 901.743 793.62 899.793 791.737C898.044 790.048 893.489 789.336 891.386 790.463C889.034 791.724 887.054 795.416 886.701 798.271C886.175 802.531 889.218 805.208 894.182 806.231ZM1077.34 468.59C1081.71 469.289 1085.02 467.906 1085.93 463.32C1086.73 459.3 1084.53 456.543 1080.81 455.422C1077.4 454.394 1074.46 455.739 1073.02 459.018C1071.24 463.097 1072.23 466.456 1077.34 468.59ZM1018.6 519.624C1021.7 518.619 1023.33 516.382 1021.36 513.666C1020.46 512.424 1017.49 512.327 1015.49 512.439C1014.83 512.477 1013.48 515.227 1013.87 515.959C1014.69 517.473 1016.48 518.463 1018.6 519.624ZM1010.13 448.136C1009.04 446.602 1007.95 445.067 1006.86 443.532C1005.56 444.565 1003.65 445.372 1003.16 446.702C1002.79 447.74 1004.22 450.614 1004.8 450.601C1006.53 450.563 1008.23 449.499 1010.13 448.136ZM1009.72 481.174C1007.91 481.588 1005.96 481.731 1004.39 482.592C1003.95 482.834 1004.18 485.769 1004.97 486.414C1006.01 487.27 1007.9 487.091 1009.43 487.356C1009.7 485.471 1009.96 483.587 1009.72 481.174ZM1081.52 499.025C1082.21 497.617 1082.9 496.209 1083.59 494.8C1082.48 494.278 1081.37 493.337 1080.28 493.37C1079.46 493.395 1077.89 495.099 1078 495.311C1078.75 496.675 1079.88 497.835 1081.52 499.025Z" fill="#A7958B"/>
<path d="M158.975 943.99C154.347 936.882 150.837 928.667 147.015 921.424C145.698 918.928 144.36 915.423 145.301 913.23C146.048 911.49 150.19 910.379 152.937 910.146C165.134 909.111 175.636 913.516 185.624 919.579C187.585 920.769 190.354 920.937 192.798 921.257C196.735 921.772 200.93 921.406 204.61 922.55C208.628 923.8 211.648 926.659 211.893 931.227C212.084 934.786 213.071 939.482 213.435 943.49C195.889 943.947 177.042 943.99 158.975 943.99Z" fill="#A7958B"/>
<path d="M1472 414.467C1469.21 414.858 1466.22 415.381 1463.69 414.536C1461.85 413.921 1459.43 411.503 1459.43 409.884C1459.43 408.309 1461.91 406.038 1463.77 405.33C1465.94 404.507 1468.63 405.051 1471.55 404.961C1472 407.951 1472 410.982 1472 414.467Z" fill="#90645B"/>
<path d="M1118.46 565.753C1119.38 567.513 1120.46 569.213 1121.21 571.043C1123.58 576.769 1125.47 582.107 1132.57 584.7C1138.67 586.929 1141.17 593.318 1140.12 600.13C1139.13 606.541 1135.21 610.412 1128.94 612.131C1127.58 612.502 1125.75 613.731 1125.44 614.909C1121.71 629.055 1113.87 640.564 1102.85 650.801C1098.7 653.769 1095.02 656.335 1090.98 658.999C1078.59 665.076 1065.94 668.749 1052.4 668.678C1052.32 665.574 1052.46 662.916 1052.15 660.313C1051.74 656.981 1047.16 653.831 1043.71 654.212C1040.11 654.61 1037.4 658.072 1037.64 661.955C1037.79 664.407 1037.92 666.86 1037.63 669.294C1031.83 668.349 1026.31 667.95 1021.14 666.369C1013.91 664.157 1006.95 661.064 999.635 658.045C996.096 655.492 992.8 653.241 989.503 650.991C983.536 643.268 977.539 635.568 971.636 627.796C970.749 626.627 970.163 625.169 969.682 623.761C967.628 617.752 966.231 612.025 958.402 609.821C952.806 608.245 951.018 601.888 951.7 596.024C952.402 589.986 955.528 584.905 961.646 583.546C966.206 582.532 967.856 580.035 969.063 576.175C969.901 573.491 971.282 570.977 973.082 568.143C975.701 568.223 977.769 568.246 979.598 568.919C999.404 576.195 1020.13 577.486 1040.87 577.767C1053.93 577.945 1067.18 577.55 1080.05 575.525C1093.04 573.48 1105.67 569.107 1118.46 565.753ZM980.835 623.916C984.57 627.801 987.831 632.41 992.224 635.29C994.723 636.929 997.06 637.394 997.979 640.895C998.416 642.558 1001.63 644.485 1003.55 644.451C1005.11 644.423 1007.82 641.646 1007.83 640.076C1007.84 638.165 1005.78 636.018 1004.17 634.411C1003.3 633.531 1001.51 633.555 1000.68 633.322C1000.14 630.073 1000.42 627.064 999.16 624.977C993.908 616.249 991.109 606.77 989.187 596.891C988.554 593.64 986.809 591.064 982.859 590.932C979.273 590.813 976.632 592.106 975.431 595.548C974.838 597.248 974.467 599.107 974.426 600.905C974.24 608.937 976.491 616.35 980.835 623.916ZM964.999 597.35C964.999 595.116 964.999 592.882 964.999 590.128C960.785 591.654 959.693 594.643 960.098 597.769C960.371 599.882 962.142 601.801 963.243 603.806C963.822 603.551 964.402 603.297 964.982 603.042C964.982 601.432 964.982 599.822 964.999 597.35ZM1127.79 603.186C1131.86 603.264 1132.1 600.168 1132.18 597.42C1132.28 594.043 1130.79 591.538 1126.69 590.75C1126.96 594.943 1127.2 598.723 1127.79 603.186Z" fill="#5A4953"/>
<path d="M1160.37 491.046C1152.87 483.271 1152.48 476.326 1159.48 466.897C1167.65 463.007 1168.28 463.366 1169.06 471.783C1163.45 470.866 1160.91 472.99 1161.37 477.803C1161.88 483.149 1166.55 487.959 1172.12 488.923C1172.12 485.166 1172.12 481.401 1172.12 477.24C1173.4 466.606 1174.44 465.523 1184.57 464.238C1189.62 463.597 1194.73 463.313 1199.73 462.381C1215.74 459.391 1229.84 453.15 1238.25 438.174C1240.84 441.275 1243.03 444.203 1245.52 446.856C1256.58 458.63 1270.37 464.918 1286.28 466.637C1290.08 467.048 1292.03 468.649 1292.36 472.426C1292.49 473.907 1292.88 475.365 1293.14 477.283C1292.91 480.371 1292.48 483.024 1292.62 485.645C1292.68 486.679 1294.66 488.544 1294.71 488.507C1297.87 486.331 1301.74 484.522 1303.68 481.484C1304.94 479.525 1304.29 475.085 1302.8 472.921C1300.29 469.261 1297.26 473.056 1294.43 473.468C1295.9 463.193 1297.44 462.457 1306.18 467.423C1306.45 467.579 1306.79 467.63 1307.09 467.73C1312.02 474.886 1311.72 482.053 1306.76 489.61C1301.8 491.652 1297.19 493.254 1292.65 495.011C1291.58 495.424 1290.21 496.148 1289.82 497.08C1281.92 516.071 1266.66 525.316 1247.48 529.575C1246.12 529.878 1244.97 531.154 1243.58 531.917C1243.45 531.856 1243.15 531.858 1242.78 531.675C1235.3 530.992 1228.19 530.491 1220.68 529.951C1200.19 526.268 1184.08 517.222 1175.75 497.375C1175.31 496.325 1173.7 495.546 1172.46 495.093C1168.47 493.63 1164.41 492.379 1160.37 491.046ZM1196.71 490.835C1194.91 490.59 1193.05 489.947 1191.31 490.184C1187.99 490.639 1184.36 490.929 1181.55 492.518C1178.38 494.317 1178.53 499.306 1181.81 500.17C1186.34 501.364 1191.58 501.592 1196.12 500.531C1200.46 499.514 1199.89 494.976 1199.78 491.201C1200.71 490.929 1201.83 490.9 1202.54 490.342C1205.4 488.078 1205.79 476.61 1203.2 473.967C1200.86 471.571 1196.26 472.049 1195.91 475.116C1195.3 480.342 1193.44 485.981 1196.71 490.835ZM1265.84 494.167C1264.48 497.709 1266.68 499.863 1269.35 500.758C1272.24 501.722 1275.62 502.196 1278.55 501.636C1280.6 501.243 1283.19 499.081 1283.87 497.128C1284.98 493.925 1282.95 491.199 1279.58 490.462C1274.75 489.406 1269.98 489.429 1265.84 494.167ZM1263.57 491.349C1264.58 490.825 1266.41 490.362 1266.46 489.768C1266.83 484.648 1267.03 479.498 1266.83 474.374C1266.81 473.756 1263.88 472.524 1262.67 472.871C1261.25 473.275 1259.44 474.977 1259.23 476.339C1258.69 479.751 1258.53 483.359 1259.09 486.746C1259.36 488.418 1261.54 489.778 1263.57 491.349ZM1234.82 498.511C1231.15 499.444 1227.97 498.857 1225.27 495.927C1224.63 495.231 1223.24 495.232 1222.19 494.912C1222.49 496.071 1222.45 497.514 1223.14 498.341C1227.38 503.388 1236.88 503.343 1240.91 498.249C1241.66 497.3 1241.66 495.755 1242 494.486C1241.66 494.368 1241.31 494.25 1240.97 494.131C1239.15 495.478 1237.33 496.825 1234.82 498.511ZM1231.01 490.751C1232.27 490.236 1234.03 490.073 1234.7 489.134C1236.15 487.101 1233.45 478.841 1230.43 476.473C1230.38 481.468 1225.82 485.722 1231.01 490.751ZM1199.5 466.93C1201.16 467.537 1202.81 468.144 1204.85 468.888C1205.7 464.307 1202.32 464.258 1199.89 463.913C1196.41 463.417 1193.53 464.487 1192.15 467.52C1192.42 467.983 1192.69 468.446 1192.97 468.909C1194.88 468.232 1196.8 467.555 1199.5 466.93ZM1264.54 463.955C1262.29 464.747 1260.04 465.54 1257.79 466.332C1257.98 466.735 1258.17 467.137 1258.36 467.539C1262.14 467.705 1265.93 467.872 1269.71 468.038C1269.98 467.792 1270.24 467.547 1270.5 467.302C1268.78 466.199 1267.06 465.096 1264.54 463.955Z" fill="#F4C2A4"/>
<path d="M1191.92 397.082C1201.35 379.101 1210.74 361.095 1220.25 343.153C1222.8 338.342 1226.99 335.196 1232.27 334.118C1245.95 331.325 1259.68 328.761 1273.42 326.244C1278.75 325.267 1283.24 327.018 1286.76 331.242C1292.29 337.897 1297.94 344.458 1303.41 351.174C1305.01 353.141 1306.13 355.497 1308.35 359.099C1304.9 358.719 1302.98 358.838 1301.3 358.263C1295.48 356.274 1289.79 353.877 1283.93 352.019C1282.43 351.544 1279.99 351.89 1278.82 352.867C1268.76 361.293 1268.82 361.36 1272.88 373.666C1275.39 381.253 1277.87 388.847 1280.15 396.976C1278.46 397.484 1276.98 397.477 1275.5 397.418C1267.07 397.083 1258.64 396.736 1250.01 396.079C1248.23 394.167 1246.66 392.57 1244.84 390.726C1243.55 390.08 1242.51 389.352 1241.45 389.339C1236.07 389.274 1230.67 389.285 1225.29 389.524C1223.96 389.583 1222.67 390.591 1221.13 391.406C1219.95 393.237 1219.01 394.826 1217.63 396.338C1208.76 396.534 1200.34 396.808 1191.92 397.082Z" fill="#3C2C35"/>
<path d="M1293.15 476.834C1292.88 475.365 1292.49 473.907 1292.36 472.426C1292.03 468.649 1290.08 467.048 1286.28 466.637C1270.37 464.918 1256.58 458.63 1245.52 446.856C1243.03 444.203 1240.84 441.275 1238.25 438.174C1229.84 453.15 1215.74 459.391 1199.73 462.381C1194.73 463.313 1189.62 463.597 1184.57 464.238C1174.44 465.524 1173.4 466.606 1171.85 477.074C1170.85 475.503 1170.14 473.703 1169.42 471.903C1168.28 463.366 1167.65 463.007 1159.61 466.563C1159.57 462.072 1159.87 457.494 1160.25 452.13C1161.19 448.647 1162.36 446.002 1162.83 443.24C1163.63 438.538 1166.33 436.351 1170.87 435.878C1174.99 435.448 1179.09 434.74 1183.22 434.388C1199.39 433.007 1215.54 431.225 1231.74 430.572C1242.31 430.146 1252.99 431.027 1263.55 432.018C1275.26 433.116 1286.91 435 1298.58 436.554C1302.26 437.044 1303.73 439.205 1304.39 442.871C1304.95 445.985 1306.8 448.867 1308.08 451.851C1307.52 453.132 1306.48 454.405 1306.46 455.693C1306.41 459.406 1306.77 463.124 1307.03 467.285C1306.79 467.63 1306.45 467.579 1306.18 467.423C1297.44 462.457 1295.9 463.193 1294.32 473.796C1293.89 475.284 1293.52 476.059 1293.15 476.834Z" fill="#4D3026"/>
<path d="M1243.15 531.858C1243.15 531.858 1243.45 531.856 1244.08 531.919C1260.39 531.024 1275.64 531.316 1286.09 545.909C1286.42 546.805 1286.53 547.899 1287.12 548.569C1302.73 566.321 1308.44 588.065 1311.89 610.641C1312.31 613.427 1311.91 618.039 1310.2 619.108C1306.22 621.605 1301.31 623.596 1296.19 619.897C1295.97 612.384 1295.86 605.726 1295.7 598.719C1295.13 594.92 1294.62 591.472 1294.12 587.595C1293.43 583.591 1292.6 580.034 1292.05 576.436C1291.17 570.714 1288.01 567.227 1282.51 565.48C1272.87 562.414 1263.3 559.12 1253.68 555.974C1250.83 555.04 1247.91 554.281 1243.93 553.124C1245.41 557.032 1247.09 559.726 1247.33 562.542C1247.63 566.074 1246.74 569.707 1246.37 573.297C1243.45 571.141 1240.2 569.301 1237.71 566.733C1235.62 564.587 1234.4 561.59 1232.7 558.804C1228.36 564.564 1226.61 572.113 1218.24 573.416C1215.06 566.862 1219.28 560.822 1219.83 554.094C1217.3 554.584 1215.68 554.833 1214.09 555.214C1204.57 557.493 1195.07 559.812 1185.55 562.096C1181.06 563.175 1176.55 564.204 1171.77 565.029C1170.36 564.478 1169.24 564.153 1168.09 563.555C1167.77 562.629 1167.47 561.976 1167.31 560.978C1171.36 555.584 1175.27 550.534 1179.4 545.26C1186.65 537.115 1195.32 532.356 1205.97 531.804C1211.06 531.54 1216.17 531.86 1221.43 532.075C1221.71 532.496 1221.91 532.706 1222.21 533.21C1225.63 536.403 1229 539.251 1233.1 542.712C1236.62 538.95 1239.87 535.472 1243.16 531.964C1243.2 531.935 1243.15 531.858 1243.15 531.858Z" fill="#69396B"/>
<path d="M1308.5 451.896C1306.8 448.867 1304.95 445.985 1304.39 442.871C1303.73 439.205 1302.26 437.044 1298.58 436.554C1286.91 435 1275.26 433.116 1263.55 432.018C1252.99 431.027 1242.31 430.146 1231.74 430.572C1215.54 431.225 1199.39 433.007 1183.22 434.388C1179.09 434.74 1174.99 435.448 1170.87 435.878C1166.33 436.351 1163.63 438.538 1162.83 443.24C1162.36 446.002 1161.19 448.647 1160.25 451.723C1153.38 450.481 1146.52 449.104 1139.84 447.104C1137.55 446.416 1135.71 444.172 1133.67 442.639C1135.3 440.472 1136.48 437.484 1138.64 436.28C1147.8 431.196 1157.18 426.499 1166.62 421.957C1171.4 419.653 1176.49 417.981 1182.24 415.906C1194.71 415.085 1206.38 414.38 1218.23 414.026C1220.5 415.614 1222.52 417.742 1224.69 417.921C1230.76 418.42 1236.9 417.902 1243 418.2C1246.72 418.382 1248.98 417.024 1250.65 413.716C1263.47 414.453 1275.85 415.113 1288.23 415.772C1300.99 421.824 1313.84 427.711 1326.47 434.029C1330.15 435.87 1335.83 438.061 1334.56 442.746C1333.83 445.427 1328.19 447.279 1324.44 448.512C1319.43 450.159 1314.1 450.843 1308.5 451.896Z" fill="#3C2C35"/>
<path d="M999.877 658.348C1006.95 661.064 1013.91 664.157 1021.14 666.369C1026.31 667.95 1031.83 668.349 1037.67 669.717C1038.26 672.623 1038.29 675.093 1038.5 677.549C1038.9 682.433 1042.4 683.119 1046.29 683.031C1050.12 682.944 1052.54 681.288 1052.44 677.04C1052.38 674.411 1052.43 671.779 1052.42 669.148C1065.94 668.749 1078.59 665.076 1091.14 659.32C1094.29 666.424 1097.08 673.154 1105.3 675.203C1109.11 676.156 1112.62 675.879 1115.08 672.486C1117.47 669.193 1115.89 666.244 1113.75 663.495C1120.99 665.078 1128.29 666.465 1135.43 668.408C1136.87 668.798 1138.84 671.54 1138.58 672.776C1138.22 674.473 1136.19 676.648 1134.48 677.088C1124.84 679.57 1115.17 682.503 1105.33 683.572C1088.83 685.363 1072.18 686.907 1055.62 686.665C1031.75 686.317 1007.88 684.564 984.051 682.797C976.332 682.225 968.742 679.787 961.124 678.066C959.544 677.709 957.984 676.927 956.615 676.034C952.779 673.528 952.669 670.113 956.923 668.654C963.759 666.31 970.958 665.025 978.25 663.661C977.811 666.716 975.761 670.271 976.78 671.872C978.112 673.966 981.837 675.429 984.589 675.525C989.295 675.689 993.178 672.939 995.474 668.808C997.301 665.521 998.436 661.849 999.877 658.348Z" fill="#958176"/>
<path d="M1261.03 623.701C1267.21 624.79 1273.43 625.656 1279.54 627.018C1289.4 629.217 1299.25 631.549 1308.98 634.293C1310.94 634.846 1313.51 637.429 1313.6 639.185C1313.68 640.829 1311.11 643.669 1309.23 644.165C1299.49 646.738 1289.69 649.529 1279.73 650.768C1252.28 654.181 1224.72 654.16 1197.22 651.028C1188 649.978 1178.88 648.101 1169.73 646.514C1168.27 646.262 1166.67 645.839 1165.55 644.969C1163.34 643.266 1161.42 641.191 1159.39 639.271C1161.71 637.167 1163.76 633.711 1166.39 633.186C1180.69 630.339 1195.13 628.216 1210.07 626.234C1210.82 629.59 1211.02 632.557 1211.13 635.823C1209.72 637.372 1208.2 638.478 1207.13 639.918C1206.34 640.988 1206.14 642.492 1205.67 643.803C1206.86 644.214 1208.05 644.95 1209.25 644.978C1214.23 645.096 1219.21 644.983 1224.19 644.986C1227.13 644.988 1228.51 643.573 1228.13 640.639C1227.9 638.849 1227.51 637.08 1227.27 634.825C1227.44 631.157 1227.54 627.967 1228.06 624.856C1233.4 624.935 1238.31 624.934 1243.24 625.388C1243.24 629.135 1243.21 632.426 1243.16 636.124C1243.52 639.525 1240.08 644.148 1245.73 644.937C1251.26 645.709 1256.95 645.419 1262.57 645.364C1263.67 645.353 1265.4 644.489 1265.67 643.647C1265.96 642.711 1265.12 641.204 1264.4 640.207C1263.13 638.426 1261.58 636.842 1260.02 634.712C1260.11 630.744 1260.31 627.241 1260.64 623.678C1260.77 623.619 1261.03 623.701 1261.03 623.701Z" fill="#958176"/>
<path d="M682.965 792.595C691.327 798.66 690.632 812.358 680.501 817.228C670.543 822.016 660.04 823.584 649.417 822.652C640.266 821.849 631.023 819.946 622.3 817.074C614.905 814.639 613.535 807.638 618.024 801.195C625.032 791.136 635.15 785.737 646.945 784.452C659.525 783.082 671.86 784.803 682.965 792.595Z" fill="#868282"/>
<path d="M976.368 559.958C975.809 559.161 975.308 558.313 974.679 557.574C970.954 553.199 971.105 548.835 975.897 545.767C979.316 543.578 983.3 541.746 987.261 541.033C999.319 538.861 1011.49 537.309 1024.42 535.42C1027.1 535.095 1028.98 534.864 1030.86 534.633C1032.63 534.634 1034.4 534.634 1037.04 534.624C1040.52 534.568 1043.12 534.524 1045.73 534.48C1046.52 534.546 1047.31 534.612 1048.92 534.711C1050.57 535.046 1051.39 535.348 1051.87 535.887C1050.42 536.416 1049.32 536.885 1048.2 536.97C1034.37 538.022 1020.48 538.63 1006.7 540.192C999.875 540.967 993.213 543.362 986.557 545.3C985.428 545.629 984.706 547.36 983.796 548.443C984.859 549.248 985.922 550.052 987.261 551.125C989.891 552.149 992.197 553.305 994.606 553.592C1007.08 555.078 1019.56 556.881 1032.09 557.516C1042.62 558.049 1053.21 557.13 1063.76 556.861C1063.75 556.868 1063.72 556.876 1064.21 556.919C1076.4 555.606 1088.1 554.334 1099.76 552.805C1101.5 552.577 1103.07 551.132 1105.09 550.156C1109.72 548.096 1108.38 545.994 1105.17 544.935C1100.97 543.548 1096.54 542.742 1092.16 542.007C1084.27 540.682 1076.34 539.596 1067.36 538.251C1069.29 537.153 1070.23 536.613 1071.18 536.074C1083.85 538.173 1096.51 540.263 1109.17 542.394C1109.97 542.528 1110.72 542.959 1111.48 543.29C1120.83 547.388 1121.9 550.948 1115.82 559.605C1107.5 561.955 1099.7 564.268 1091.75 565.879C1070.39 570.208 1048.72 568.911 1027.15 568.857C1020.54 568.84 1013.84 568.32 1007.35 567.094C996.949 565.125 986.69 562.377 976.368 559.958Z" fill="#5A4953"/>
<path d="M1322.95 693.883C1318.95 695.341 1315.21 696.538 1311.49 697.795C1310 698.3 1308 698.51 1307.18 699.584C1301.26 707.363 1295.58 715.329 1289.99 724.6C1296.88 723.056 1304.35 722.699 1310.48 719.636C1316.6 716.577 1321.37 710.81 1326.73 706.23C1327.18 706.647 1327.64 707.064 1328.1 707.482C1325.24 710.752 1322.37 714.023 1318.78 718.126C1323.03 718.669 1326.26 719.081 1329.49 719.494C1329.52 720.038 1329.54 720.582 1329.57 721.126C1327.31 721.431 1325.03 721.609 1322.81 722.067C1318.85 722.884 1314.91 723.828 1310.98 724.797C1305.5 726.149 1300.06 727.654 1294.56 728.944C1287.33 730.642 1281.03 733.438 1275.75 739.229C1267.14 748.667 1256.5 755.596 1244.67 760.55C1241.73 761.784 1238.26 763.312 1236.67 759.004C1235.27 755.237 1237.85 753.156 1241.13 751.9C1241.75 751.662 1242.36 751.363 1242.99 751.177C1258.81 746.573 1264.21 734.277 1266.22 719.541C1266.65 716.409 1266.53 713.196 1267.06 710.086C1268.09 704.052 1268.74 698.55 1260.97 696.195C1259.22 695.667 1258.15 692.94 1256.29 690.641C1258.09 690.441 1258.48 690.27 1258.71 690.393C1260.8 691.515 1262.86 692.688 1264.94 693.846C1265.73 691.463 1266.78 689.129 1267.26 686.684C1267.86 683.657 1268 680.537 1268.33 677.457C1268.83 677.316 1269.32 677.174 1269.82 677.032C1270.28 678.659 1271.1 680.278 1271.13 681.915C1271.28 688.64 1271.19 695.372 1271.19 702.101C1271.86 702.302 1272.53 702.503 1273.2 702.705C1276.15 698.793 1279.1 694.881 1282.04 690.97C1282.48 691.154 1282.91 691.338 1283.35 691.523C1282.78 693.369 1282.32 695.257 1281.62 697.047C1281.13 698.272 1280.56 699.686 1279.59 700.459C1270.16 707.962 1272.04 718.822 1271.05 728.824C1270.99 729.411 1271.31 730.035 1271.55 731.088C1272.65 730.49 1273.67 730.238 1274.22 729.59C1279.49 723.366 1286.07 717.737 1289.48 710.601C1292.37 704.546 1292.26 696.721 1292.2 689.69C1292.15 683.051 1292.73 677.082 1297.51 672.144C1298.24 671.386 1299.19 670.842 1300.84 669.593C1299.16 675.591 1297.04 680.51 1296.57 685.582C1296.07 690.9 1297.16 696.366 1298.58 702.286C1301.31 697.865 1304.15 693.507 1306.73 689.002C1308.55 685.829 1309.88 682.369 1311.73 679.22C1312.44 678.016 1314.01 677.32 1315.19 676.393C1315.32 677.863 1315.94 679.503 1315.49 680.773C1314.15 684.631 1312.4 688.346 1310.73 692.289C1315.62 694.356 1319.01 692.709 1322.08 689.809C1324.76 687.278 1327.38 684.693 1330.79 682.773C1329.5 687.325 1326.4 690.508 1322.95 693.883ZM1270.67 732.686C1270.76 732.614 1270.91 732.551 1270.92 732.468C1270.93 732.385 1270.8 732.283 1270.73 732.19C1270.64 732.262 1270.55 732.334 1270.67 732.686Z" fill="#724433"/>
<path d="M1064.07 468.312C1069.1 476.416 1067.81 483.808 1060.44 489.118C1057.49 491.244 1054.07 492.714 1050.97 494.638C1043.22 499.435 1042.26 505.565 1048.08 512.464C1048.92 513.458 1049.64 514.544 1050.46 515.641C1043.07 518.851 1032.57 511.865 1031.35 503.286C1030.39 496.617 1032.68 491.537 1038.43 488.028C1038.71 487.854 1039.02 487.717 1039.29 487.526C1042.34 485.387 1046.67 484.05 1046.1 479.234C1045.52 474.411 1041.54 472.645 1037.54 471.096C1026.79 466.921 1022.89 461.609 1023.31 452.017C1023.99 436.448 1042 431.385 1051 435.423C1054.78 437.116 1055.26 439.931 1052.33 442.852C1051.74 443.435 1051 443.858 1050.38 444.403C1044.11 449.84 1044.89 456.374 1052.14 460.57C1056.14 462.884 1059.94 465.536 1064.07 468.312Z" fill="#DBC3AB"/>
<path d="M1017.28 749.146C1019.71 750.144 1021.79 751.009 1024.7 752.222C1023.14 753.074 1022.44 753.809 1021.87 753.715C1012.84 752.212 1004.49 749.519 1001.41 739.555C1000.22 735.709 997.89 733.953 994.105 733.109C986.475 731.406 978.933 729.312 971.33 727.485C969.661 727.084 967.887 727.12 966.161 726.955C965.932 727.433 965.703 727.911 965.474 728.389C967.79 729.99 969.947 731.928 972.459 733.116C976.533 735.043 979.409 737.967 980.273 742.259C981.551 748.608 985.875 751.295 991.45 752.982C994.349 753.86 997.167 755.008 1000.02 756.034C999.854 756.76 999.688 757.487 999.521 758.213C996.104 757.566 992.687 756.919 987.768 755.988C990.234 760.829 992.214 764.715 994.193 768.601C993.732 768.931 993.271 769.262 992.81 769.592C990.86 767.231 988.664 765.03 987.007 762.478C982.705 755.85 979.642 748.07 974.215 742.611C968.052 736.411 960.182 731.622 952.382 727.488C949.451 725.935 944.611 727.768 940.687 728.363C933.619 729.433 926.602 730.842 919.53 731.885C916.734 732.297 913.312 732.526 912.953 728.535C912.595 724.555 915.891 724.535 918.779 724.068C925.988 722.902 933.276 721.954 940.32 720.109C952.24 716.987 963.995 716.558 975.72 720.544C979.104 721.694 981.941 721.293 985.241 719.897C989.474 718.107 994.081 717.004 998.632 716.228C1002.12 715.634 1004.66 714.663 1006.69 711.406C1008.36 708.746 1011.36 706.926 1013.77 704.733C1014.34 705.279 1014.9 705.824 1015.47 706.369C1013.46 708.802 1011.46 711.234 1008.53 714.786C1018.39 714.437 1027.66 711.745 1035.16 719.055C1019.52 716.026 1004.72 719.36 989.995 723.288C989.967 723.755 989.938 724.222 989.91 724.689C990.839 725.135 991.725 725.786 992.705 725.995C1006.51 728.94 1020.33 731.829 1034.15 734.717C1034.96 734.887 1035.97 734.676 1036.59 735.089C1037.9 735.958 1039 737.124 1040.19 738.168C1038.83 738.768 1037.38 740.012 1036.11 739.861C1028.01 738.908 1019.95 737.641 1011.88 736.491C1010.28 736.263 1008.67 736.092 1007.06 735.894C1006.39 742.388 1009.16 745.923 1017.28 749.146Z" fill="#724433"/>
<path d="M1286.53 545.911C1275.64 531.316 1260.39 531.024 1244.22 531.98C1244.97 531.154 1246.12 529.878 1247.48 529.575C1266.66 525.316 1281.92 516.072 1289.82 497.08C1290.21 496.148 1291.58 495.424 1292.65 495.011C1297.19 493.254 1301.8 491.652 1306.75 489.973C1306.87 499.052 1306 508.199 1306.69 517.229C1307.03 521.728 1309.67 526.376 1312.27 530.292C1314.93 534.306 1313.98 536.553 1310.52 538.871C1303.39 543.65 1295.37 545.393 1286.53 545.911Z" fill="#4D3026"/>
<path d="M1221.28 531.916C1216.17 531.86 1211.06 531.54 1205.97 531.804C1195.32 532.356 1186.65 537.115 1179 545.231C1173.37 544.449 1168.28 543.784 1163.4 542.391C1159.88 541.387 1156.64 539.411 1153.26 537.899C1153.25 537.928 1153.31 537.94 1153.51 537.608C1153.57 536.78 1153.42 536.285 1153.24 535.507C1152.92 534.521 1152.63 533.819 1152.34 533.116C1161.16 522.596 1161.81 510.253 1160.37 497.416C1160.16 495.615 1160.26 493.779 1160.3 491.503C1164.41 492.379 1168.47 493.63 1172.46 495.093C1173.7 495.546 1175.31 496.325 1175.75 497.375C1184.08 517.222 1200.19 526.268 1220.76 530.265C1221.25 531.052 1221.26 531.484 1221.28 531.916Z" fill="#4D3026"/>
<path d="M1023.1 799.073C1025.09 801.223 1027.17 803.3 1029.02 805.564C1029.7 806.389 1030.26 807.709 1030.15 808.718C1029.33 815.679 1028.37 822.762 1023.34 828.071C1022.11 829.359 1018.99 828.842 1016.12 829.243C1016.55 825.217 1016.87 822.315 1017.04 818.738C1016.28 815.516 1015.67 812.968 1015.06 810.419C1014.62 810.378 1014.18 810.338 1013.74 810.297C1012.52 814.416 1009.86 815.551 1005.85 815.994C999.85 816.656 999.747 822.931 997.016 827.04C994.818 826.323 992.979 825.567 991.14 824.811C990.815 825.294 990.49 825.776 990.166 826.259C991.763 827.455 993.298 828.766 995.035 829.7C995.25 829.815 996.542 827.922 997.667 826.894C999.701 825.775 1001.4 824.72 1003.11 823.666C1003.51 826.567 1004.16 829.464 1004.2 832.371C1004.23 833.99 1003.66 836.551 1002.59 837.043C1000.84 837.855 997.885 838.18 996.478 837.205C993.051 834.829 990.526 831.171 985.423 832.127C984.838 832.236 983.256 829.146 982.844 827.375C982.508 825.932 983.233 824.242 983.773 822.272C985.322 820.829 986.584 819.775 987.847 818.721C987.226 818.02 986.278 816.62 986.036 816.732C984.674 817.37 983.376 818.259 982.277 819.297C981.768 819.778 981.759 820.79 981.523 821.561C979.63 822.003 977.018 823.441 975.983 822.693C973.306 820.757 971.226 817.93 969.209 815.234C969 814.954 970.606 812.85 971.718 812.133C974.726 810.19 975.977 808.403 973.351 804.954C969.828 800.325 971.128 795.601 976.071 792.439C977.436 791.566 978.651 790.365 979.712 789.124C983.853 784.284 987.292 784.127 992.076 788.628C993.275 789.756 994.596 790.755 995.889 792.262C993.721 793.65 993.175 798.846 989.346 794.989C988.632 793.799 987.816 792.922 986.653 792.057C983.216 793.689 983.031 796.235 985.87 798.657C987.089 799.697 988.384 800.648 989.408 801.454C990.459 800.675 991.555 799.167 992.617 799.191C998.099 799.312 999.71 797.521 998.314 792.266C1000.49 792.132 1002.71 791.684 1004.84 791.953C1006.88 792.211 1008.88 793.086 1010.8 793.917C1013.64 795.146 1016.39 796.577 1019.32 798.425C1019.2 800.774 1018.92 802.619 1018.65 804.465C1019.39 804.629 1020.12 804.794 1020.85 804.958C1021.6 802.996 1022.35 801.034 1023.1 799.073ZM979.439 814.662C982.447 813.507 985.455 812.353 988.633 811.133C984.395 807.906 980.222 809.479 978.187 814.848C977.908 815.148 977.629 815.448 977.35 815.748C977.486 815.859 977.621 815.97 977.757 816.081C978.092 815.637 978.427 815.193 979.439 814.662ZM1001.74 804.932C1003.69 806.792 1005.65 808.653 1007.53 810.446C1009.44 808.194 1011.16 806.16 1013.62 803.271C1008.53 802.205 1003.88 801.228 999.223 800.251C998.792 801.003 998.361 801.754 997.929 802.505C999.073 803.137 1000.22 803.768 1001.74 804.932ZM994.914 811.116C995.685 812.298 996.289 814.232 997.274 814.451C998.266 814.672 999.867 813.379 1000.72 812.352C1001.06 811.946 1000.12 809.622 999.753 809.62C998.243 809.614 996.731 810.164 994.914 811.116ZM985.834 806.882C985.998 806.874 986.176 806.901 986.323 806.847C986.468 806.793 986.705 806.586 986.693 806.566C985.602 804.665 984.49 802.775 983.204 800.585C981.523 802.169 980.168 803.445 978.822 804.714C981.443 805.519 983.368 806.111 985.834 806.882ZM1023.27 813.733C1023.4 813.739 1023.33 813.736 1023.27 813.733Z" fill="#AA8C63"/>
<path d="M864.05 714.354C861.208 720.14 858.9 720.419 854.867 715.465C851.633 711.492 844.264 711.21 841.014 715.012C836.382 720.429 831.082 722.588 823.761 720.533C814.168 717.84 804.328 716.021 794.582 713.88C788.5 712.545 784.923 708.084 786.002 701.991C787.539 693.311 789.331 684.653 791.544 676.123C793.543 668.42 797.963 666.016 805.883 667.816C813.502 669.548 821.05 671.594 828.626 673.511C829.755 673.797 830.859 674.34 831.996 674.411C841.276 674.993 847.076 679.296 848.924 688.863C849.655 692.647 856.01 694.137 859.866 692.432C861.774 691.589 864.424 690.804 866.055 691.53C867.129 692.008 866.984 695.229 867.101 697.801C865.895 703.705 864.973 709.03 864.05 714.354ZM838.875 708.763C842.318 705.49 846.251 706.677 850.185 707.44C852.721 707.931 855.762 709.131 856.342 704.907C856.786 701.676 857.918 698.049 852.699 697.434C846.333 696.684 843.244 692.936 842.159 686.638C841.779 684.433 839.598 681.579 837.565 680.81C832.683 678.964 827.402 678.178 822.282 676.964C822.209 677.174 822.136 677.384 822.063 677.594C824.162 679.022 826.26 680.451 828.359 681.879C822.606 684.828 817.855 682.941 813.208 680.929C812.833 680.767 812.861 678.331 813.473 677.596C814.121 676.82 815.693 676.816 817.241 676.364C800.702 669.098 795.625 671.89 794.437 688.91C793.215 693.219 791.791 697.485 790.833 701.852C790.055 705.399 791.595 708.501 795.131 709.276C806.498 711.766 817.913 714.108 829.399 715.948C834.023 716.689 837.3 713.977 838.875 708.763Z" fill="#B7C9C3"/>
<path d="M976.147 560.228C986.69 562.377 996.949 565.125 1007.35 567.093C1013.84 568.32 1020.54 568.84 1027.15 568.857C1048.72 568.911 1070.39 570.208 1091.75 565.878C1099.7 564.268 1107.5 561.955 1115.75 559.959C1116.86 561.663 1117.58 563.37 1118.38 565.416C1105.67 569.107 1093.04 573.48 1080.05 575.525C1067.18 577.55 1053.93 577.945 1040.87 577.767C1020.13 577.486 999.404 576.195 979.598 568.919C977.769 568.246 975.701 568.223 973.289 567.887C973.864 565.417 974.895 562.957 976.147 560.228Z" fill="#4C3A45"/>
<path d="M1152.01 532.933C1152.63 533.819 1152.92 534.521 1153 535.661C1152.96 536.712 1153.14 537.326 1153.31 537.94C1153.31 537.94 1153.25 537.928 1153.22 538.267C1157.01 545.73 1160.8 552.875 1164.73 559.945C1165.11 560.641 1166.33 560.874 1167.17 561.322C1167.47 561.975 1167.77 562.629 1167.79 563.625C1167.34 564.011 1167.16 564.022 1167.03 564.111C1166.92 564.189 1166.76 564.411 1166.8 564.474C1170.24 570.78 1173.7 577.077 1177.2 583.733C1178.93 587.985 1181.07 591.763 1182.14 595.823C1182.62 597.636 1181.52 600.737 1180.06 601.897C1179.02 602.725 1176.14 601.444 1174.17 600.8C1173.34 600.526 1172.76 599.477 1172.04 598.44C1170.73 595.6 1169.44 593.1 1168.4 590.378C1173.09 588.693 1173.74 585.151 1172.86 581.374C1171.8 576.775 1168.34 574.778 1163.76 574.393C1161.91 574.237 1160.09 573.713 1158.26 573.357C1154.54 566.007 1150.67 558.728 1147.17 551.28C1145.01 546.698 1143.51 541.81 1141.51 537.149C1140.12 533.906 1138.68 530.612 1136.73 527.699C1133.7 523.182 1130.03 519.094 1127.04 514.56C1126.06 513.08 1125.83 510.693 1126.13 508.865C1126.73 505.216 1130.17 504.178 1132.82 506.714C1137.11 510.824 1141.8 514.682 1145.31 519.4C1148.19 523.282 1149.61 528.258 1152.01 532.933Z" fill="#724433"/>
<path d="M1162.42 701.867C1171.09 702.434 1176.88 708.146 1183.52 711.987C1184.69 712.661 1185.52 714.535 1185.79 715.987C1186.17 718.072 1185.89 720.277 1185.89 723.339C1184.73 723.67 1182.94 724.249 1181.12 724.691C1175.07 726.162 1169.01 727.586 1162.95 729.021C1161.99 729.249 1160.95 729.773 1160.06 729.595C1155.48 728.676 1150.93 727.576 1146.36 726.534C1145.73 726.388 1145.1 726.138 1144.46 726.067C1137.33 725.284 1135.27 720.985 1138.97 714.589C1143.15 707.361 1155.47 700.485 1162.42 701.867Z" fill="#767C35"/>
<path d="M1104.34 762.061C1108.09 760.274 1111.57 758.733 1114.8 756.772C1121.04 752.983 1126.41 753.68 1131.37 758.823C1132.84 760.337 1134.93 761.595 1136.96 762.136C1141.88 763.452 1143.83 767.946 1140.53 772.009C1137.53 775.708 1139.81 779.183 1140.25 782.764C1140.39 783.929 1141.25 785.743 1140.83 786.089C1139.85 786.892 1138.07 787.576 1137.02 787.193C1135.98 786.818 1134.81 785.07 1134.81 783.916C1134.76 777.907 1132.92 777.084 1127.15 779.001C1122.77 780.452 1117.83 781.037 1113.23 780.709C1108.13 780.346 1103.14 778.507 1097.36 777.133C1098.68 772.263 1099.72 767.953 1101.1 763.755C1101.35 762.98 1102.97 762.652 1104.34 762.061ZM1114.37 772.526C1113.25 773.335 1112.13 774.144 1111 774.952C1112.04 775.52 1113.08 776.088 1114.12 776.655C1114.39 775.393 1114.67 774.13 1114.37 772.526Z" fill="#955B37"/>
<path d="M1172.06 598.78C1172.76 599.477 1173.34 600.526 1174.17 600.8C1176.14 601.444 1179.02 602.725 1180.06 601.897C1181.52 600.737 1182.62 597.636 1182.14 595.823C1181.07 591.763 1178.93 587.985 1177.41 583.491C1177.87 582.579 1178.16 582.268 1178.8 581.922C1183.72 579.591 1188.28 577.294 1193.84 574.491C1193.84 577.829 1193.93 579.594 1193.83 581.349C1193.31 590.629 1192.77 599.909 1192.19 609.185C1191.94 613.221 1193.73 615.295 1197.74 616.011C1201.98 616.77 1206.15 617.99 1210.34 619.437C1210.35 621.286 1210.35 622.708 1210.36 624.13C1209.24 624.126 1208.13 624.122 1206.36 624.051C1205.71 623.984 1205.23 624.012 1205.23 624.012C1194.25 622.459 1183.27 620.906 1171.66 618.914C1170.3 611.855 1168.7 605.189 1172.06 598.78Z" fill="#4A2F4D"/>
<path d="M796.592 764.646C803.068 766.473 803.172 759.91 806.399 756.974C809.379 762.498 800.266 766.398 805.375 771.959C808.233 766.472 810.842 761.461 813.451 756.45C814.164 756.817 814.876 757.184 815.589 757.55C813.78 761.172 811.97 764.793 809.784 769.17C812.587 768.835 814.408 768.617 816.228 768.399C816.491 768.884 816.754 769.369 817.017 769.855C813.499 772.014 809.98 774.174 805.79 776.746C807.799 777.504 809.172 778.021 811.128 778.759C808.965 780.668 807.115 782.301 804.827 784.32C807.474 785.084 809.451 785.654 811.922 786.366C808.292 790.698 804.138 788.948 800.11 788.436C799.771 789.346 799.09 790.22 799.28 790.815C801.033 796.312 796.993 796.443 793.863 796.026C789.243 795.411 785.397 795.914 781.839 800.087C788.151 793.73 779.346 788.994 780.935 782.933C782.208 783.144 783.38 783.339 784.532 783.531C784.062 780.191 782.384 776.387 783.487 773.746C784.512 771.292 788.404 769.403 791.838 772.944C791.838 768.383 791.838 764.423 791.838 759.508C793.92 761.975 795.109 763.383 796.592 764.646ZM803.716 774.81C803.46 774.999 803.246 775.229 802.844 775.838C803.191 776.006 803.537 776.173 804.245 776.033C804.483 775.818 804.68 775.57 805.017 774.983C804.723 774.849 804.428 774.715 803.716 774.81ZM800.481 769.98C797.823 768.22 796.275 769.238 795.961 774.327C797.473 773.114 798.985 771.901 800.481 769.98ZM797.296 779.708C796.385 779.365 795.474 779.022 794.564 778.679C794.526 779.373 794.489 780.067 794.451 780.762C795.421 780.631 796.391 780.501 797.296 779.708ZM795.647 791.502C796.319 791.546 796.991 791.602 797.663 791.598C797.695 791.598 797.724 791.068 797.754 790.785C797.087 790.856 796.419 790.927 795.647 791.502ZM785.218 786.439C785.28 786.782 785.341 787.125 785.403 787.468C785.48 787.131 785.556 786.794 785.218 786.439ZM789.309 784.478C789.504 784.197 789.699 783.915 789.894 783.634C789.607 783.815 789.319 783.995 789.309 784.478ZM793.872 775.406L794.035 775.497C794.035 775.497 794.009 775.303 793.872 775.406Z" fill="#767C35"/>
<path d="M986.984 550.856C985.922 550.052 984.859 549.248 983.796 548.443C984.706 547.36 985.428 545.629 986.557 545.3C993.213 543.361 999.875 540.966 1006.7 540.192C1020.48 538.629 1034.37 538.022 1048.2 536.97C1049.32 536.885 1050.42 536.416 1052.15 536.123C1055.2 540.31 1058.12 540.522 1061.53 537.255C1062.24 536.577 1063.1 536.059 1063.89 535.467C1066.08 535.634 1068.27 535.8 1070.82 536.02C1070.23 536.613 1069.29 537.152 1067.36 538.251C1076.34 539.596 1084.27 540.682 1092.16 542.007C1096.54 542.742 1100.97 543.547 1105.17 544.935C1108.38 545.994 1109.72 548.096 1104.75 550.048C1097.35 548.953 1090.65 547.961 1084 546.727C1082.21 546.396 1080.24 545.693 1078.9 544.532C1074.81 540.999 1071.28 540.806 1066.87 544.056C1065.69 544.924 1064.02 545.668 1062.62 545.59C1056.69 545.259 1050.78 544.378 1044.84 544.14C1041.4 544.002 1038.69 543.498 1036.18 540.632C1032.72 536.674 1026.84 536.856 1024.83 541.371C1022.49 546.628 1018.75 546.269 1014.63 546.042C1005.03 545.513 995.784 546.856 986.984 550.856Z" fill="#3C2C35"/>
<path d="M1288.18 415.406C1275.85 415.113 1263.47 414.453 1250.56 413.278C1250.09 407.306 1250.15 401.85 1250.22 396.393C1258.64 396.736 1267.07 397.083 1275.5 397.418C1276.98 397.477 1278.46 397.484 1280.33 397.362C1283.18 403.153 1285.65 409.097 1288.18 415.406Z" fill="#824A8B"/>
<path d="M1218.05 413.676C1206.38 414.38 1194.71 415.085 1182.6 415.786C1185.25 409.684 1188.35 403.584 1191.68 397.283C1200.34 396.808 1208.76 396.534 1217.7 396.753C1218.16 402.723 1218.11 408.2 1218.05 413.676Z" fill="#824A8B"/>
<path d="M1261.47 623.678C1261.03 623.701 1260.77 623.619 1260.54 623.293C1260.26 621.634 1260.22 620.302 1260.51 618.818C1261.94 618.28 1262.99 617.697 1264.1 617.538C1277.64 615.605 1277.04 616.311 1278.58 599.832C1285.54 603.833 1290.62 603.559 1295.75 599.069C1295.86 605.726 1295.97 612.384 1296.09 619.512C1285.68 621.095 1275.26 622.206 1264.83 623.32C1263.86 623.425 1262.88 623.544 1261.47 623.678Z" fill="#4A2F4D"/>
<path d="M1172.04 598.44C1168.7 605.189 1170.3 611.855 1171.28 618.837C1170.64 621.813 1168.91 622.793 1166.17 622.088C1164.9 621.76 1163.55 621.749 1162.26 621.481C1154.62 619.893 1153.58 618.805 1154.89 611.104C1156.18 603.466 1158.16 595.945 1160.38 588.273C1163.32 588.983 1165.73 589.792 1168.14 590.6C1169.44 593.1 1170.73 595.6 1172.04 598.44Z" fill="#69396B"/>
<path d="M1113.41 663.398C1115.89 666.244 1117.47 669.193 1115.08 672.486C1112.62 675.879 1109.11 676.156 1105.3 675.203C1097.08 673.154 1094.29 666.424 1091.49 659.221C1095.02 656.335 1098.7 653.769 1102.71 651.121C1104.77 656.447 1106.39 661.948 1113.41 663.398Z" fill="#4C3A45"/>
<path d="M999.635 658.045C998.436 661.849 997.301 665.521 995.474 668.808C993.178 672.939 989.295 675.689 984.589 675.525C981.837 675.429 978.112 673.966 976.78 671.872C975.761 670.271 977.811 666.716 978.693 663.76C985.426 662.249 987.532 657.132 989.365 651.323C992.8 653.241 996.096 655.492 999.635 658.045Z" fill="#4C3A45"/>
<path d="M1210.45 624.402C1210.35 622.708 1210.35 621.286 1210.76 619.447C1216.4 619.509 1221.62 619.988 1227.12 620.492C1227.28 621.88 1227.45 623.328 1227.63 624.776C1227.54 627.967 1227.44 631.157 1226.81 634.858C1221.25 635.42 1216.23 635.471 1211.21 635.523C1211.02 632.557 1210.82 629.59 1210.54 626.216C1210.48 625.429 1210.51 625.051 1210.45 624.402Z" fill="#F4C2A4"/>
<path d="M878.578 793.349C875.958 791.826 873.057 790.776 871.59 788.708C869.016 785.079 870.867 779.687 874.711 777.515C878.621 775.306 883.545 776.702 885.944 780.7C888.21 784.474 887.013 789.697 883.137 792.066C881.926 792.806 880.351 792.948 878.578 793.349Z" fill="#4A2F4D"/>
<path d="M893.823 806.189C889.218 805.208 886.175 802.531 886.701 798.271C887.054 795.416 889.034 791.724 891.386 790.463C893.489 789.336 898.044 790.048 899.793 791.737C901.743 793.62 902.718 797.641 902.367 800.517C901.87 804.586 898.268 806.233 893.823 806.189Z" fill="#5B355B"/>
<path d="M1168.4 590.378C1165.73 589.792 1163.32 588.983 1160.62 587.989C1156.79 583.728 1156.85 579.083 1158.22 573.797C1160.09 573.714 1161.91 574.237 1163.76 574.393C1168.34 574.778 1171.8 576.775 1172.86 581.374C1173.74 585.151 1173.09 588.693 1168.4 590.378Z" fill="#F4C2A4"/>
<path d="M864.406 714.417C864.972 709.03 865.895 703.705 867.101 698.155C877.163 699.877 877.163 699.877 874.923 709.298C872.985 717.447 872.6 717.643 864.406 714.417Z" fill="#724433"/>
<path d="M867.905 797.854C871.34 795.658 876.371 795.933 878.578 798.748C881.211 802.104 881.472 805.89 878.941 809.387C876.509 812.748 873.086 813.671 869.222 811.9C865.222 810.067 863.94 806.205 865.719 800.842C867.094 802.057 867.96 803.726 869.314 804.376C869.928 804.671 872.284 803.121 872.514 802.104C873.335 798.483 870.099 798.602 867.905 797.854Z" fill="#4A2F4D"/>
<path d="M1076.97 468.47C1072.23 466.456 1071.24 463.097 1073.02 459.018C1074.46 455.739 1077.4 454.394 1080.81 455.422C1084.53 456.543 1086.73 459.3 1085.93 463.32C1085.02 467.906 1081.71 469.289 1076.97 468.47Z" fill="#DBC3AB"/>
<path d="M1063.99 535.187C1063.1 536.059 1062.24 536.577 1061.53 537.255C1058.12 540.522 1055.2 540.311 1052.5 535.885C1051.39 535.348 1050.57 535.046 1049.52 534.696C1050.43 533.497 1051.37 531.795 1052.74 531.313C1055.35 530.397 1058.29 529.55 1060.91 529.938C1062.19 530.127 1063.04 533.161 1063.99 535.187Z" fill="#80B843"/>
<path d="M1003.16 823.491C1001.4 824.72 999.701 825.774 997.676 826.905C997.353 826.981 997.374 826.999 997.374 826.999C999.747 822.931 999.85 816.656 1005.85 815.993C1009.86 815.551 1012.52 814.416 1013.74 810.296C1014.18 810.337 1014.62 810.378 1015.06 810.419C1015.67 812.967 1016.28 815.515 1017.02 818.31C1016.15 818.931 1015.16 819.304 1013.55 819.502C1008.58 817.494 1005.48 818.953 1003.35 822.978C1003.35 822.978 1003.21 823.316 1003.16 823.491Z" fill="#767C35"/>
<path d="M989.243 795.301C993.175 798.846 993.721 793.65 996.138 792.502C996.795 792.26 997.23 792.227 997.989 792.23C999.71 797.521 998.099 799.312 992.617 799.191C991.555 799.167 990.459 800.675 989.408 801.454C988.384 800.648 987.089 799.696 985.87 798.657C983.031 796.235 983.216 793.689 986.722 792.375C987.191 793.107 987.246 793.536 987.428 794.184C987.825 794.601 988.095 794.799 988.581 795.087C988.795 795.176 989.243 795.301 989.243 795.301Z" fill="#767C35"/>
<path d="M1045.9 534.158C1043.12 534.524 1040.52 534.568 1037.57 534.562C1038.23 533.116 1039.37 531.801 1040.18 530.305C1041.13 528.559 1041.54 526.466 1042.7 524.918C1043.12 524.366 1046 524.655 1046.15 525.094C1046.76 526.949 1046.89 529.003 1046.94 530.99C1046.96 531.932 1046.38 532.887 1045.9 534.158Z" fill="#80B843"/>
<path d="M1069.25 515.554C1072.36 512.555 1074.9 514.171 1077.35 516.55C1080.14 519.254 1079.49 522.673 1077.18 524.431C1075.1 526.006 1071.3 526.813 1068.87 526.04C1065.79 525.062 1064.34 521.833 1066.65 518.489C1067.41 522.089 1068.78 525.118 1072.63 524.779C1074.01 524.657 1076.15 522.066 1076.26 520.487C1076.55 516.162 1072.99 515.847 1069.74 515.621C1069.57 515.61 1069.41 515.577 1069.25 515.554Z" fill="#AA8C63"/>
<path d="M1018.23 519.647C1016.48 518.463 1014.69 517.473 1013.87 515.959C1013.48 515.227 1014.83 512.477 1015.49 512.439C1017.49 512.327 1020.46 512.424 1021.36 513.666C1023.33 516.382 1021.7 518.619 1018.23 519.647Z" fill="#80B843"/>
<path d="M1069.03 515.811C1069.41 515.577 1069.57 515.609 1069.74 515.621C1072.99 515.847 1076.55 516.162 1076.26 520.487C1076.15 522.065 1074.01 524.657 1072.63 524.779C1068.78 525.118 1067.41 522.089 1066.91 518.282C1067.51 517.282 1068.16 516.675 1069.03 515.811Z" fill="#80B843"/>
<path d="M1010.04 448.486C1008.23 449.499 1006.53 450.563 1004.8 450.601C1004.22 450.614 1002.79 447.74 1003.16 446.702C1003.65 445.372 1005.56 444.565 1006.86 443.532C1007.95 445.067 1009.04 446.602 1010.04 448.486Z" fill="#DBC3AB"/>
<path d="M1009.97 481.438C1009.96 483.586 1009.7 485.471 1009.43 487.356C1007.9 487.091 1006.01 487.27 1004.97 486.414C1004.18 485.769 1003.95 482.834 1004.39 482.592C1005.96 481.731 1007.91 481.588 1009.97 481.438Z" fill="#DBC3AB"/>
<path d="M1081.2 499.043C1079.88 497.835 1078.75 496.675 1078 495.31C1077.89 495.099 1079.46 493.395 1080.28 493.37C1081.37 493.337 1082.48 494.278 1083.59 494.8C1082.9 496.208 1082.21 497.617 1081.2 499.043Z" fill="#DBC3AB"/>
<path d="M867.653 797.957C870.099 798.602 873.335 798.483 872.514 802.104C872.284 803.121 869.928 804.671 869.314 804.376C867.96 803.726 867.094 802.057 865.9 800.507C866.314 799.493 866.858 798.776 867.653 797.957Z" fill="#5A4953"/>
<path d="M1003.63 823.154C1005.48 818.953 1008.58 817.494 1013.23 819.512C1012.85 820.687 1012.16 821.676 1011.01 822.965C1009.52 823.827 1008.5 824.39 1007.47 824.952C1006.29 824.411 1005.1 823.871 1003.63 823.154Z" fill="#AA8C63"/>
<path d="M1007.66 825.26C1008.5 824.39 1009.52 823.827 1010.85 823.284C1011.58 824.007 1012.35 824.707 1012.36 825.417C1012.38 826.79 1011.97 828.169 1011.74 829.546C1010.62 828.682 1009.45 827.864 1008.39 826.929C1008.06 826.639 1008.02 826.03 1007.66 825.26Z" fill="#767C35"/>
<path d="M1022.86 798.905C1022.35 801.034 1021.6 802.996 1020.85 804.958C1020.12 804.793 1019.39 804.629 1018.65 804.465C1018.92 802.619 1019.2 800.774 1019.63 798.663C1020.74 798.511 1021.68 798.624 1022.86 798.905Z" fill="#767C35"/>
<path d="M981.825 821.647C981.759 820.789 981.768 819.778 982.277 819.297C983.376 818.259 984.674 817.37 986.036 816.732C986.278 816.619 987.226 818.02 987.847 818.721C986.584 819.775 985.322 820.828 983.708 821.94C982.948 821.91 982.538 821.821 981.825 821.647Z" fill="#767C35"/>
<path d="M1030.83 534.342C1028.98 534.864 1027.1 535.095 1024.88 535.3C1026.25 532.979 1027.95 530.539 1030.83 534.342Z" fill="#80B843"/>
<path d="M1205.33 624.092C1205.23 624.012 1205.71 623.984 1205.94 624.047C1206.17 624.11 1205.81 624.236 1205.81 624.236C1205.81 624.236 1205.43 624.172 1205.33 624.092Z" fill="#A17660"/>
<path d="M980.657 623.593C976.491 616.35 974.24 608.937 974.426 600.905C974.467 599.107 974.838 597.248 975.431 595.548C976.632 592.106 979.273 590.813 982.859 590.932C986.809 591.064 988.554 593.64 989.187 596.891C991.109 606.77 993.907 616.249 999.16 624.977C1000.42 627.064 1000.14 630.073 1000.68 633.322C1001.51 633.555 1003.3 633.531 1004.17 634.411C1005.78 636.018 1007.84 638.165 1007.83 640.076C1007.82 641.646 1005.11 644.423 1003.55 644.451C1001.63 644.485 998.415 642.558 997.979 640.895C997.059 637.394 994.723 636.929 992.224 635.29C987.831 632.41 984.57 627.801 980.657 623.593Z" fill="#6C5863"/>
<path d="M1052.4 668.678C1052.43 671.779 1052.38 674.411 1052.44 677.04C1052.54 681.288 1050.12 682.944 1046.29 683.031C1042.4 683.119 1038.9 682.433 1038.5 677.549C1038.29 675.093 1038.26 672.623 1038.1 669.736C1037.92 666.86 1037.79 664.407 1037.64 661.955C1037.4 658.072 1040.11 654.61 1043.71 654.212C1047.16 653.831 1051.74 656.981 1052.15 660.313C1052.46 662.916 1052.32 665.574 1052.4 668.678Z" fill="#4C3A45"/>
<path d="M964.99 597.781C964.982 599.822 964.982 601.432 964.982 603.042C964.402 603.297 963.822 603.551 963.243 603.806C962.142 601.801 960.371 599.882 960.098 597.769C959.693 594.643 960.785 591.654 964.999 590.128C964.999 592.882 964.999 595.116 964.99 597.781Z" fill="#BA906D"/>
<path d="M1127.62 602.844C1127.2 598.723 1126.96 594.943 1126.69 590.75C1130.79 591.538 1132.28 594.043 1132.18 597.42C1132.1 600.168 1131.86 603.264 1127.62 602.844Z" fill="#BA906D"/>
<path d="M1199.63 491.325C1200.51 495.019 1201.13 499.526 1196.44 500.535C1191.54 501.589 1185.89 501.363 1181.01 500.177C1177.47 499.319 1177.31 494.364 1180.73 492.578C1183.76 491 1187.68 490.712 1191.26 490.26C1193.13 490.024 1195.14 490.663 1197.78 490.871C1198.86 490.998 1199.25 491.161 1199.63 491.325Z" fill="#F3AC92"/>
<path d="M1265.72 493.855C1269.72 489.428 1274.59 489.405 1279.5 490.463C1282.93 491.201 1285 493.93 1283.86 497.137C1283.17 499.092 1280.54 501.257 1278.45 501.65C1275.47 502.211 1272.02 501.736 1269.09 500.771C1266.37 499.874 1264.13 497.718 1265.72 493.855Z" fill="#F3AC92"/>
<path d="M1292.73 476.48C1293.16 475.124 1293.56 474.264 1294.08 473.042C1297.29 471.794 1300.64 467.588 1303.42 471.645C1305.06 474.045 1305.78 478.965 1304.39 481.137C1302.25 484.504 1297.96 486.51 1294.47 488.922C1294.41 488.963 1292.23 486.896 1292.17 485.75C1292.01 482.845 1292.49 479.904 1292.73 476.48Z" fill="#F3AC92"/>
<path d="M1169.06 471.783C1170.14 473.703 1170.85 475.503 1171.84 477.47C1172.12 481.401 1172.12 485.166 1172.12 488.923C1166.55 487.959 1161.88 483.149 1161.37 477.803C1160.91 472.99 1163.45 470.866 1169.06 471.783Z" fill="#F3AC92"/>
<path d="M1235.17 498.341C1237.33 496.825 1239.15 495.478 1240.97 494.132C1241.31 494.25 1241.66 494.368 1242 494.486C1241.66 495.755 1241.66 497.3 1240.91 498.249C1236.88 503.344 1227.38 503.388 1223.14 498.342C1222.45 497.514 1222.49 496.071 1222.19 494.912C1223.24 495.232 1224.63 495.231 1225.27 495.927C1227.97 498.857 1231.15 499.444 1235.17 498.341Z" fill="#724433"/>
<path d="M1230.63 490.636C1225.82 485.722 1230.38 481.468 1230.43 476.474C1233.45 478.841 1236.15 487.101 1234.7 489.134C1234.03 490.073 1232.27 490.236 1230.63 490.636Z" fill="#F3AC92"/>
<path d="M1221.43 532.074C1221.26 531.484 1221.25 531.052 1221.15 530.305C1228.19 530.491 1235.3 530.992 1242.78 531.675C1243.15 531.858 1243.2 531.935 1242.84 532.154C1235.77 535.14 1228.99 534.822 1222.16 532.863C1221.91 532.706 1221.71 532.496 1221.43 532.074Z" fill="#F3AC92"/>
<path d="M1199.11 466.904C1196.8 467.555 1194.88 468.232 1192.97 468.909C1192.69 468.446 1192.42 467.983 1192.15 467.52C1193.53 464.487 1196.41 463.417 1199.89 463.913C1202.32 464.258 1205.7 464.307 1204.85 468.888C1202.81 468.144 1201.16 467.537 1199.11 466.904Z" fill="#724433"/>
<path d="M1264.94 463.974C1267.06 465.096 1268.78 466.199 1270.5 467.302C1270.24 467.547 1269.98 467.793 1269.71 468.038C1265.93 467.872 1262.14 467.705 1258.36 467.539C1258.17 467.137 1257.98 466.735 1257.79 466.333C1260.04 465.54 1262.29 464.747 1264.94 463.974Z" fill="#4D3026"/>
<path d="M1218.23 414.026C1218.11 408.2 1218.16 402.723 1218.15 396.831C1219.01 394.826 1219.95 393.237 1221.58 391.39C1229.87 391.079 1237.48 391.026 1245.09 390.973C1246.66 392.57 1248.23 394.167 1250.01 396.078C1250.15 401.85 1250.09 407.306 1250.11 413.201C1248.98 417.024 1246.72 418.382 1243 418.2C1236.9 417.902 1230.76 418.42 1224.69 417.921C1222.52 417.742 1220.5 415.614 1218.23 414.026ZM1225.25 409.983C1227.32 411.726 1240.24 412.807 1242.12 411.382C1242.38 411.189 1242.74 410.906 1242.75 410.658C1242.83 406.883 1243.33 403.011 1242.59 399.396C1242.38 398.403 1238.44 397.683 1236.21 397.684C1224 397.688 1224.98 395.552 1225.25 409.983Z" fill="#E6B34C"/>
<path d="M1244.84 390.726C1237.48 391.026 1229.87 391.079 1221.81 391.147C1222.67 390.591 1223.96 389.583 1225.29 389.524C1230.67 389.285 1236.07 389.274 1241.45 389.339C1242.51 389.352 1243.55 390.08 1244.84 390.726Z" fill="#4D3026"/>
<path d="M1228.06 624.856C1227.45 623.328 1227.28 621.88 1227.12 620.492C1221.62 619.988 1216.4 619.509 1210.76 619.019C1206.15 617.99 1201.98 616.77 1197.74 616.011C1193.73 615.295 1191.94 613.221 1192.19 609.185C1192.77 599.908 1193.31 590.629 1193.83 581.349C1193.93 579.594 1193.84 577.829 1193.84 574.491C1188.28 577.294 1183.72 579.591 1178.69 581.541C1176.17 575.882 1174.11 570.569 1172.05 565.256C1176.55 564.204 1181.06 563.175 1185.55 562.096C1195.07 559.812 1204.57 557.493 1214.09 555.213C1215.68 554.833 1217.3 554.584 1219.83 554.094C1219.28 560.822 1215.06 566.862 1218.24 573.415C1226.61 572.113 1228.36 564.564 1232.7 558.804C1234.4 561.59 1235.62 564.587 1237.71 566.733C1240.2 569.3 1243.45 571.141 1246.37 573.296C1246.74 569.707 1247.63 566.074 1247.33 562.542C1247.09 559.726 1245.41 557.032 1243.93 553.124C1247.91 554.281 1250.83 555.04 1253.68 555.974C1263.3 559.12 1272.87 562.414 1282.51 565.48C1288.01 567.227 1291.17 570.714 1292.05 576.436C1292.6 580.034 1293.43 583.591 1293.73 587.677C1289.47 589.023 1285.65 590.208 1281.75 590.585C1278.47 590.902 1277.3 592.441 1277.28 595.61C1277.53 596.187 1277.66 596.523 1277.9 597.201C1278.09 598.257 1278.17 598.971 1278.25 599.686C1277.04 616.311 1277.64 615.605 1264.1 617.539C1262.99 617.697 1261.94 618.28 1260.08 618.84C1254.22 619.513 1249.14 620.012 1243.81 620.535C1243.6 622.063 1243.41 623.498 1243.21 624.933C1238.31 624.934 1233.4 624.935 1228.06 624.856ZM1234.9 568.534C1233.39 568.008 1231.88 567.483 1230.37 566.958C1230.41 568.137 1229.97 569.78 1230.58 570.408C1232.39 572.266 1234.09 571.942 1234.9 568.534Z" fill="#5B355B"/>
<path d="M1167.31 560.978C1166.33 560.874 1165.11 560.641 1164.73 559.945C1160.8 552.875 1157.01 545.73 1153.23 538.237C1156.64 539.411 1159.88 541.387 1163.4 542.391C1168.28 543.784 1173.37 544.449 1178.78 545.454C1175.27 550.534 1171.36 555.584 1167.31 560.978Z" fill="#BA906D"/>
<path d="M1277.16 595.369C1277.3 592.441 1278.47 590.902 1281.75 590.585C1285.65 590.208 1289.47 589.023 1293.72 588.106C1294.62 591.472 1295.13 594.92 1295.7 598.719C1290.62 603.559 1285.54 603.834 1278.58 599.832C1278.17 598.971 1278.09 598.257 1277.93 596.899C1277.62 595.96 1277.39 595.665 1277.16 595.369Z" fill="#F4C2A4"/>
<path d="M1222.21 533.209C1228.99 534.822 1235.77 535.14 1242.8 532.183C1239.87 535.472 1236.62 538.95 1233.1 542.712C1229 539.251 1225.63 536.403 1222.21 533.209Z" fill="#F4C2A4"/>
<path d="M1171.77 565.029C1174.11 570.569 1176.17 575.882 1178.34 581.576C1178.16 582.268 1177.87 582.579 1177.37 583.132C1173.7 577.077 1170.24 570.78 1166.8 564.474C1166.76 564.411 1166.92 564.189 1167.03 564.111C1167.16 564.022 1167.34 564.011 1167.81 563.897C1169.23 564.153 1170.36 564.477 1171.77 565.029Z" fill="#F4C2A4"/>
<path d="M1243.24 625.388C1243.41 623.498 1243.6 622.063 1243.81 620.535C1249.14 620.012 1254.22 619.513 1259.74 618.992C1260.22 620.302 1260.26 621.634 1260.41 623.352C1260.31 627.241 1260.11 630.744 1259.56 634.73C1253.87 635.381 1248.53 635.549 1243.18 635.718C1243.21 632.426 1243.24 629.135 1243.24 625.388Z" fill="#F4C2A4"/>
<path d="M1243.16 636.124C1248.53 635.549 1253.87 635.38 1259.68 635.194C1261.58 636.842 1263.13 638.426 1264.4 640.207C1265.12 641.204 1265.96 642.711 1265.67 643.647C1265.4 644.489 1263.67 645.353 1262.57 645.364C1256.95 645.419 1251.26 645.709 1245.73 644.937C1240.08 644.148 1243.52 639.525 1243.16 636.124Z" fill="#3C2C35"/>
<path d="M1211.13 635.823C1216.23 635.472 1221.25 635.42 1226.73 635.335C1227.51 637.08 1227.9 638.85 1228.13 640.639C1228.51 643.573 1227.13 644.988 1224.19 644.986C1219.21 644.984 1214.23 645.096 1209.25 644.979C1208.05 644.95 1206.86 644.214 1205.67 643.803C1206.14 642.492 1206.34 640.988 1207.13 639.919C1208.2 638.478 1209.72 637.373 1211.13 635.823Z" fill="#3C2C35"/>
<path d="M987.261 551.125C995.784 546.856 1005.03 545.513 1014.63 546.042C1018.75 546.269 1022.49 546.629 1024.83 541.371C1026.84 536.856 1032.72 536.674 1036.18 540.632C1038.69 543.498 1041.4 544.003 1044.84 544.141C1050.78 544.378 1056.69 545.259 1062.62 545.59C1064.02 545.668 1065.69 544.924 1066.87 544.056C1071.28 540.806 1074.81 540.999 1078.9 544.532C1080.24 545.693 1082.21 546.396 1084 546.728C1090.65 547.961 1097.35 548.953 1104.37 550.143C1103.07 551.132 1101.5 552.577 1099.76 552.804C1088.1 554.334 1076.4 555.606 1064.36 556.54C1063.92 554.68 1064.35 552.506 1063.61 551.959C1062.11 550.863 1059.8 549.933 1058.13 550.308C1056.74 550.62 1055.8 552.897 1054.66 554.304C1056.22 555.142 1057.71 556.237 1059.37 556.737C1060.73 557.145 1062.3 556.842 1063.78 556.854C1053.21 557.13 1042.62 558.049 1032.09 557.516C1019.56 556.881 1007.08 555.078 994.606 553.592C992.197 553.305 989.891 552.149 987.261 551.125Z" fill="#80B843"/>
<path d="M1063.76 556.861C1062.3 556.842 1060.73 557.145 1059.37 556.737C1057.71 556.237 1056.22 555.142 1054.66 554.304C1055.8 552.897 1056.74 550.62 1058.13 550.308C1059.8 549.933 1062.11 550.863 1063.61 551.959C1064.35 552.506 1063.92 554.68 1063.86 556.497C1063.72 556.876 1063.75 556.867 1063.76 556.861Z" fill="#BEAA93"/>
<path d="M1270.56 732.546C1270.55 732.334 1270.64 732.262 1270.73 732.19C1270.8 732.283 1270.93 732.385 1270.92 732.468C1270.91 732.551 1270.76 732.614 1270.56 732.546Z" fill="#BA906D"/>
<path d="M1153.51 537.607C1153.14 537.326 1152.96 536.712 1153.03 535.944C1153.42 536.285 1153.57 536.78 1153.51 537.607Z" fill="#BA906D"/>
<path d="M1001.55 804.666C1000.22 803.768 999.074 803.137 997.929 802.505C998.361 801.754 998.792 801.002 999.223 800.251C1003.88 801.228 1008.53 802.205 1013.62 803.271C1011.16 806.16 1009.44 808.194 1007.53 810.446C1005.65 808.652 1003.69 806.792 1001.55 804.666Z" fill="#767C35"/>
<path d="M978.595 814.581C980.222 809.479 984.395 807.906 988.633 811.133C985.455 812.353 982.447 813.507 979.066 814.656C978.693 814.65 978.595 814.581 978.595 814.581Z" fill="#767C35"/>
<path d="M995.067 810.813C996.731 810.164 998.243 809.614 999.753 809.62C1000.12 809.621 1001.06 811.946 1000.72 812.352C999.867 813.379 998.266 814.672 997.274 814.451C996.289 814.232 995.685 812.298 995.067 810.813Z" fill="#767C35"/>
<path d="M985.563 806.792C983.368 806.11 981.443 805.519 978.822 804.714C980.168 803.445 981.523 802.169 983.204 800.585C984.49 802.775 985.602 804.665 986.693 806.566C986.705 806.586 986.468 806.793 986.323 806.847C986.176 806.901 985.998 806.874 985.563 806.792Z" fill="#767C35"/>
<path d="M997.344 826.97C996.542 827.922 995.25 829.815 995.035 829.7C993.298 828.766 991.763 827.455 990.166 826.259C990.49 825.777 990.815 825.294 991.14 824.811C992.979 825.567 994.818 826.323 997.016 827.04C997.374 827 997.353 826.981 997.344 826.97Z" fill="#767C35"/>
<path d="M989.346 794.989C989.243 795.301 988.795 795.176 988.419 794.899C987.815 794.381 987.568 794.161 987.301 793.964C987.246 793.536 987.191 793.108 987.068 792.362C987.816 792.922 988.632 793.799 989.346 794.989Z" fill="#BA906D"/>
<path d="M1023.37 813.737C1023.33 813.736 1023.4 813.739 1023.37 813.737V813.737Z" fill="#BA906D"/>
<path d="M978.727 814.699C978.427 815.192 978.092 815.637 977.757 816.081C977.621 815.97 977.486 815.859 977.35 815.748C977.629 815.448 977.908 815.148 978.391 814.714C978.595 814.581 978.693 814.65 978.727 814.699Z" fill="#BA906D"/>
<path d="M794.746 688.257C795.625 671.89 800.702 669.098 817.241 676.365C815.693 676.816 814.121 676.82 813.473 677.596C812.861 678.331 812.833 680.767 813.207 680.929C817.855 682.942 822.606 684.828 828.359 681.88C826.26 680.451 824.162 679.022 822.063 677.594C822.136 677.384 822.209 677.174 822.282 676.964C827.402 678.178 832.683 678.964 837.565 680.81C839.598 681.579 841.779 684.433 842.159 686.638C843.244 692.936 846.333 696.684 852.699 697.434C857.918 698.049 856.786 701.676 856.342 704.907C855.762 709.131 852.721 707.932 850.185 707.44C846.251 706.677 842.318 705.49 838.227 708.829C828.178 703.301 818.774 697.711 809.378 692.108C804.867 689.418 800.169 687.465 794.746 688.257Z" fill="#BEAA93"/>
<path d="M794.592 688.584C800.169 687.465 804.867 689.418 809.379 692.108C818.774 697.711 828.179 703.301 837.9 708.987C837.3 713.977 834.023 716.689 829.399 715.948C817.913 714.109 806.498 711.766 795.131 709.276C791.595 708.501 790.055 705.399 790.833 701.852C791.791 697.485 793.215 693.219 794.592 688.584Z" fill="#80B843"/>
<path d="M1114.66 772.697C1114.67 774.13 1114.39 775.393 1114.12 776.655C1113.08 776.088 1112.04 775.52 1111 774.952C1112.13 774.144 1113.25 773.335 1114.66 772.697Z" fill="#A17660"/>
<path d="M800.489 770.334C798.985 771.901 797.473 773.114 795.961 774.327C796.275 769.238 797.823 768.22 800.489 770.334Z" fill="#BA906D"/>
<path d="M797.329 780.039C796.391 780.501 795.421 780.631 794.451 780.762C794.489 780.067 794.526 779.373 794.564 778.679C795.475 779.022 796.385 779.365 797.329 780.039Z" fill="#BA906D"/>
<path d="M795.699 791.25C796.419 790.927 797.086 790.856 797.754 790.785C797.724 791.068 797.695 791.598 797.663 791.598C796.991 791.602 796.319 791.546 795.699 791.25Z" fill="#BA906D"/>
<path d="M785.426 786.448C785.557 786.794 785.48 787.131 785.403 787.468C785.342 787.125 785.28 786.782 785.426 786.448Z" fill="#BA906D"/>
<path d="M789.17 784.327C789.319 783.995 789.607 783.815 789.895 783.634C789.699 783.915 789.504 784.197 789.17 784.327Z" fill="#BA906D"/>
<path d="M803.884 776.341C803.537 776.173 803.191 776.006 803.158 775.882C803.609 776.064 803.747 776.203 803.884 776.341Z" fill="#BA906D"/>
<path d="M803.273 775.712C803.246 775.229 803.46 774.999 804.1 774.873C804.483 774.937 804.837 775.29 804.837 775.29C804.68 775.57 804.483 775.818 804.064 776.187C803.746 776.203 803.609 776.065 803.273 775.712Z" fill="#BA906D"/>
<path d="M793.941 775.355C794.009 775.303 794.036 775.497 794.036 775.497C794.036 775.497 793.872 775.406 793.941 775.355Z" fill="#BA906D"/>
<path d="M804.308 774.759C804.428 774.715 804.723 774.849 804.928 775.137C804.838 775.29 804.483 774.937 804.308 774.759Z" fill="#BA906D"/>
<path d="M987.428 794.184C987.568 794.162 987.815 794.381 988.205 794.809C988.096 794.799 987.825 794.601 987.428 794.184Z" fill="#AA8C63"/>
<path d="M1225.19 409.529C1224.98 395.552 1224 397.688 1236.21 397.683C1238.44 397.683 1242.38 398.403 1242.59 399.395C1243.33 403.011 1242.83 406.883 1242.75 410.658C1242.74 410.906 1242.38 411.189 1242.12 411.382C1240.24 412.807 1227.32 411.725 1225.19 409.529Z" fill="#824A8B"/>
<path d="M1234.91 568.881C1234.09 571.941 1232.39 572.266 1230.58 570.407C1229.97 569.78 1230.41 568.137 1230.37 566.958C1231.88 567.483 1233.39 568.008 1234.91 568.881Z" fill="#3C2C35"/>
<path d="M1452.02 909.696C1446.16 914.684 1439.98 919.336 1433.8 923.987C1435.1 923.368 1436.4 922.748 1437.7 922.128C1432.03 917.282 1426.36 912.435 1420.69 907.588C1420.14 909.365 1419.59 911.143 1419.04 912.92C1425.67 908.613 1432.29 904.306 1438.92 900C1437.1 898.994 1435.27 897.989 1433.45 896.983C1439.53 901.109 1445.61 905.234 1452.02 909.696Z" fill="#604F47"/>
<path d="M506 943.99C509.997 943.99 515.809 942.747 517.491 942.49C527.501 940.964 536.791 937.252 546.847 937.157C591.495 936.735 636.15 937.171 680.8 936.836C698.824 936.701 716.621 934.411 733.684 927.835C752.642 920.528 769.368 909.903 783.295 895.246C798.293 879.463 815.404 866.823 835.808 859.007C851.291 853.077 867.415 849.607 884.086 849.583C951.396 849.484 1018.71 849.353 1086.02 849.539C1126.55 849.652 1162.71 837.523 1194.24 812.257C1204.99 803.645 1214.66 793.692 1225.53 785.253C1248.27 767.611 1274.54 758.09 1302.92 754.145C1308.83 753.323 1314.86 753.054 1320.84 753.045C1370.82 752.969 1422.27 753.004 1472.72 753.042C1473.19 816.683 1473 880.315 1473 944C1153.41 944 826.054 943.99 506 943.99ZM1446.39 908.434C1442.99 905.551 1439.6 902.669 1436.2 899.786C1437.22 900.489 1438.24 901.191 1439.26 901.894C1435.56 904.903 1431.86 907.912 1428.16 910.921C1428.46 909.679 1428.77 908.438 1429.08 907.196C1432.25 910.582 1435.41 913.969 1438.58 917.355C1437.85 917.788 1437.12 918.221 1436.4 918.654C1439.85 915.404 1443.3 912.154 1446.39 908.434Z" fill="#604F47"/>
<path d="M1263.07 490.923C1262.28 490.784 1261.88 490.618 1261.27 490.465C1256.45 485.614 1258.5 479.908 1259.17 474.62C1259.57 471.517 1264.65 471.033 1267.24 473.458C1270.1 476.132 1269.67 487.736 1266.5 490.026C1265.72 490.59 1264.48 490.62 1263.07 490.923Z" fill="#4D3026"/>
</g>
<defs>
<clipPath id="clip0_14_127">
<rect width="1473" height="944" fill="white" transform="translate(0.000610352)"/>
</clipPath>
</defs>
</svg>
